<svg viewBox="0 0 32 32" xmlns="http://www.w3.org/2000/svg">
<path clip-rule="evenodd" d="M12.7273 5C13.1968 5 13.6137 5.30047 13.7622 5.74593L19.2727 22.2775L21.5105 15.5641C21.659 15.1187 22.0759 14.8182 22.5455 14.8182H26.9091C27.5116 14.8182 28 15.3066 28 15.9091C28 16.5116 27.5116 17 26.9091 17H23.3317L20.3077 26.0722C20.1592 26.5177 19.7423 26.8182 19.2727 26.8182C18.8032 26.8182 18.3863 26.5177 18.2378 26.0722L12.7273 9.54067L10.4895 16.2541C10.341 16.6995 9.92411 17 9.45455 17H5.09091C4.48842 17 4 16.5116 4 15.9091C4 15.3066 4.48842 14.8182 5.09091 14.8182H8.66826L11.6923 5.74593C11.8408 5.30047 12.2577 5 12.7273 5Z"/>
</svg>
