<svg viewBox="0 0 32 32" xmlns="http://www.w3.org/2000/svg">
<path clip-rule="evenodd" d="M16 6.18182C10.5776 6.18182 6.18182 10.5776 6.18182 16C6.18182 21.4224 10.5776 25.8182 16 25.8182C21.4224 25.8182 25.8182 21.4224 25.8182 16C25.8182 10.5776 21.4224 6.18182 16 6.18182ZM4 16C4 9.37258 9.37258 4 16 4C22.6274 4 28 9.37258 28 16C28 22.6274 22.6274 28 16 28C9.37258 28 4 22.6274 4 16ZM16 10.5455C16.6025 10.5455 17.0909 11.0339 17.0909 11.6364V14.9091H20.3636C20.9661 14.9091 21.4545 15.3975 21.4545 16C21.4545 16.6025 20.9661 17.0909 20.3636 17.0909H17.0909V20.3636C17.0909 20.9661 16.6025 21.4545 16 21.4545C15.3975 21.4545 14.9091 20.9661 14.9091 20.3636V17.0909H11.6364C11.0339 17.0909 10.5455 16.6025 10.5455 16C10.5455 15.3975 11.0339 14.9091 11.6364 14.9091H14.9091V11.6364C14.9091 11.0339 15.3975 10.5455 16 10.5455Z"/>
</svg>
