<svg viewBox="0 0 25 24" xmlns="http://www.w3.org/2000/svg">
<path d="M10.1712 8.27107C10.2591 8.18107 10.3784 8.1305 10.5027 8.1305H14.4994C14.6238 8.1305 14.743 8.18107 14.831 8.27107C14.9189 8.36108 14.9683 8.48315 14.9683 8.61044C14.9683 8.73772 14.9189 8.85979 14.831 8.9498C14.743 9.0398 14.6238 9.09037 14.4994 9.09037H10.5027C10.3784 9.09037 10.2591 9.0398 10.1712 8.9498C10.0832 8.85979 10.0338 8.73772 10.0338 8.61044C10.0338 8.48315 10.0832 8.36108 10.1712 8.27107Z" />
<path fill-rule="evenodd" clip-rule="evenodd" d="M2.21872 4.92503C2.43327 4.68099 2.77334 4.5 3.14955 4.5H21.8733C22.2508 4.5 22.5863 4.68508 22.7972 4.92858C23.0082 5.17205 23.1242 5.45682 23.209 5.72906C23.9452 8.09177 23.913 11.2086 23.2159 13.8224C23.139 14.1108 23.0169 14.3998 22.8007 14.6442C22.5845 14.8884 22.249 15.0727 21.8733 15.0727H3.14947C2.77378 15.0727 2.43486 14.8884 2.21864 14.6442C2.00242 14.3998 1.88031 14.1108 1.8034 13.8224C1.05721 11.0242 1.07274 8.3541 1.80694 5.73968C1.88649 5.45642 2.00417 5.16909 2.21872 4.92503ZM21.8734 5.45633H3.14955C3.03181 5.45633 2.98831 5.4817 2.91408 5.56621C2.83985 5.65065 2.76104 5.81104 2.70646 6.00541C2.31732 7.39124 2.14366 8.78136 2.19361 10.2061H22.7951C22.8469 8.70246 22.6897 7.21788 22.3163 6.01958C22.2536 5.81821 22.1728 5.65217 22.0983 5.56621C22.0238 5.48007 21.9899 5.45633 21.8734 5.45633ZM22.7338 11.166H2.2606C2.34267 11.9536 2.49203 12.7537 2.71001 13.571C2.76094 13.762 2.83656 13.9194 2.9107 14.0031C2.98484 14.0867 3.03119 14.1129 3.14947 14.1129H4.23943V12.7775C4.23917 12.7142 4.25117 12.6514 4.27473 12.5929C4.29829 12.5343 4.33294 12.4811 4.37669 12.4363C4.42044 12.3915 4.47243 12.3561 4.52964 12.332C4.58685 12.3079 4.64816 12.2956 4.71003 12.2958H20.2919C20.3535 12.296 20.4144 12.3087 20.4712 12.333C20.5281 12.3573 20.5796 12.3929 20.623 12.4376C20.6664 12.4823 20.7007 12.5354 20.7241 12.5937C20.7474 12.652 20.7593 12.7145 20.7591 12.7775V14.1129H21.8733C21.9916 14.1129 22.0345 14.0869 22.1086 14.0031C22.1828 13.9194 22.2619 13.762 22.3128 13.571C22.5155 12.8109 22.6563 11.9942 22.7338 11.166ZM19.8213 14.1129H5.17718V13.2557H19.8213V14.1129Z" />
<path d="M6.80707 16.8915C6.72302 16.8913 6.64045 16.9084 6.56801 16.9411C6.49556 16.9738 6.43591 17.0208 6.39529 17.0773C5.80412 17.8764 5.56127 18.3075 5.6617 18.7307C5.71191 18.9423 5.91201 19.1223 6.10116 19.2058C6.26256 19.277 6.40923 19.3069 6.52945 19.3314C6.55013 19.3357 6.57002 19.3397 6.58907 19.3438C6.7189 19.3715 6.80673 19.3975 6.84167 19.4154C6.84756 19.4184 6.85246 19.4207 6.85662 19.4226C6.87701 19.4319 6.87959 19.433 6.89358 19.4792C6.92732 19.5903 6.87551 20.0223 6.37453 20.8646C6.34885 20.9076 6.33447 20.9541 6.33222 21.0014C6.32997 21.0487 6.3399 21.0959 6.36142 21.1403C6.38295 21.1846 6.41566 21.2253 6.45768 21.26C6.49971 21.2946 6.55022 21.3226 6.60635 21.3423C6.66247 21.362 6.72311 21.373 6.78479 21.3748C6.84647 21.3765 6.90798 21.3689 6.96583 21.3523C7.02367 21.3358 7.0767 21.3107 7.1219 21.2785C7.16709 21.2463 7.20357 21.2075 7.22924 21.1644C7.76203 20.2687 7.93878 19.7512 7.80711 19.3173C7.74128 19.1003 7.55823 18.918 7.36419 18.8183C7.17854 18.7229 7.00082 18.685 6.86048 18.6551L6.84168 18.6511C6.70793 18.6224 6.622 18.5997 6.58907 18.5874C6.58394 18.55 6.6564 18.1792 7.20847 17.4329C7.2501 17.3784 7.2723 17.3165 7.27285 17.2534C7.27339 17.1903 7.25226 17.1281 7.21158 17.0733C7.1709 17.0184 7.1121 16.9727 7.04109 16.9408C6.97009 16.9088 6.88937 16.8919 6.80707 16.8915Z" />
<path d="M10.4055 16.9411C10.478 16.9084 10.5605 16.8913 10.6446 16.8915C10.7269 16.8919 10.8076 16.9088 10.8786 16.9408C10.9496 16.9727 11.0084 17.0184 11.0491 17.0733C11.0898 17.1281 11.1109 17.1903 11.1104 17.2534C11.1098 17.3165 11.0876 17.3784 11.046 17.4329C10.4939 18.1792 10.4215 18.55 10.4266 18.5874C10.4595 18.5997 10.5455 18.6224 10.6792 18.6511L10.698 18.6551C10.8383 18.685 11.0161 18.7229 11.2017 18.8183C11.3958 18.918 11.5788 19.1003 11.6446 19.3173C11.7763 19.7512 11.5996 20.2687 11.0668 21.1644C11.0411 21.2075 11.0046 21.2463 10.9594 21.2785C10.9142 21.3107 10.8612 21.3358 10.8034 21.3523C10.7455 21.3689 10.684 21.3765 10.6223 21.3748C10.5606 21.373 10.5 21.362 10.4439 21.3423C10.3878 21.3226 10.3372 21.2946 10.2952 21.26C10.2532 21.2253 10.2205 21.1846 10.1989 21.1403C10.1774 21.0959 10.1675 21.0487 10.1698 21.0014C10.172 20.9541 10.1864 20.9076 10.2121 20.8646C10.713 20.0223 10.7648 19.5903 10.7311 19.4792C10.7171 19.433 10.7147 19.4319 10.6943 19.4226C10.6901 19.4207 10.6851 19.4185 10.6792 19.4154C10.6443 19.3975 10.5564 19.3715 10.4266 19.3438C10.4075 19.3397 10.3876 19.3357 10.367 19.3314C10.2468 19.3069 10.1001 19.277 9.93869 19.2058C9.74953 19.1223 9.54943 18.9423 9.49922 18.7307C9.3988 18.3075 9.64165 17.8764 10.2328 17.0773C10.2734 17.0208 10.3331 16.9738 10.4055 16.9411Z" />
<path d="M14.4787 16.8915C14.3952 16.8918 14.3134 16.9091 14.2416 16.9418C14.1698 16.9745 14.1107 17.0212 14.0704 17.0773C13.4792 17.8764 13.2364 18.3075 13.3368 18.7307C13.387 18.9423 13.5871 19.1223 13.7763 19.2058C13.9376 19.277 14.0843 19.3069 14.2045 19.3314C14.2251 19.3356 14.2452 19.3397 14.2642 19.3438C14.394 19.3715 14.4818 19.3975 14.5168 19.4154C14.5227 19.4185 14.5277 19.4207 14.5318 19.4226C14.5522 19.4319 14.5547 19.433 14.5687 19.4792C14.6024 19.5903 14.5506 20.0223 14.0496 20.8646C14.0239 20.9076 14.0096 20.9541 14.0073 21.0014C14.0051 21.0487 14.015 21.0959 14.0365 21.1403C14.058 21.1846 14.0908 21.2253 14.1328 21.26C14.1748 21.2946 14.2253 21.3226 14.2814 21.3423C14.3376 21.362 14.3982 21.373 14.4599 21.3748C14.5216 21.3765 14.5831 21.3689 14.6409 21.3523C14.6988 21.3358 14.7518 21.3107 14.797 21.2785C14.8422 21.2463 14.8787 21.2075 14.9043 21.1644C15.4371 20.2687 15.6139 19.7512 15.4822 19.3173C15.4164 19.1003 15.2333 18.918 15.0393 18.8183C14.8536 18.7229 14.6759 18.685 14.5355 18.6551L14.5168 18.6511C14.383 18.6224 14.2971 18.5997 14.2642 18.5874C14.259 18.55 14.3315 18.1792 14.8836 17.4329C14.9253 17.3782 14.9476 17.3161 14.9479 17.2527C14.9483 17.1894 14.9269 17.127 14.8858 17.0721C14.8447 17.0171 14.7854 16.9715 14.7139 16.9398C14.6425 16.908 14.5613 16.8914 14.4787 16.8915Z" />
<path d="M18.079 16.9418C18.1508 16.9091 18.2327 16.8918 18.3161 16.8915C18.3987 16.8914 18.4799 16.908 18.5514 16.9398C18.6229 16.9715 18.6822 17.0171 18.7232 17.0721C18.7643 17.127 18.7858 17.1894 18.7854 17.2527C18.785 17.3161 18.7628 17.3782 18.721 17.4329C18.1689 18.1792 18.0965 18.55 18.1016 18.5874C18.1356 18.5999 18.222 18.6228 18.3542 18.6511C18.3604 18.6524 18.3666 18.6537 18.373 18.6551C18.5133 18.685 18.6911 18.7229 18.8767 18.8183C19.0708 18.918 19.2538 19.1003 19.3196 19.3173C19.4513 19.7512 19.2746 20.2687 18.7418 21.1644C18.7161 21.2075 18.6796 21.2463 18.6344 21.2785C18.5892 21.3107 18.5362 21.3358 18.4784 21.3523C18.4205 21.3689 18.359 21.3765 18.2973 21.3748C18.2356 21.373 18.175 21.362 18.1189 21.3423C18.0628 21.3226 18.0122 21.2946 17.9702 21.26C17.9282 21.2253 17.8955 21.1846 17.874 21.1403C17.8524 21.0959 17.8425 21.0487 17.8447 21.0014C17.847 20.9541 17.8614 20.9076 17.8871 20.8646C18.388 20.0223 18.4398 19.5903 18.4061 19.4792C18.3921 19.433 18.3897 19.4319 18.3693 19.4226C18.3651 19.4207 18.3601 19.4185 18.3542 19.4154C18.3193 19.3975 18.2314 19.3715 18.1016 19.3438C18.0825 19.3397 18.0627 19.3357 18.042 19.3314C17.9218 19.3069 17.7751 19.277 17.6137 19.2058C17.4245 19.1223 17.2244 18.9423 17.1742 18.7307C17.0738 18.3075 17.3167 17.8764 17.9078 17.0773C17.9482 17.0212 18.0073 16.9745 18.079 16.9418Z" />
<path d="M10.1712 8.27107C10.2591 8.18107 10.3784 8.1305 10.5027 8.1305H14.4994C14.6238 8.1305 14.743 8.18107 14.831 8.27107C14.9189 8.36108 14.9683 8.48315 14.9683 8.61044C14.9683 8.73772 14.9189 8.85979 14.831 8.9498C14.743 9.0398 14.6238 9.09037 14.4994 9.09037H10.5027C10.3784 9.09037 10.2591 9.0398 10.1712 8.9498C10.0832 8.85979 10.0338 8.73772 10.0338 8.61044C10.0338 8.48315 10.0832 8.36108 10.1712 8.27107Z"  stroke-width="0.4"/>
<path fill-rule="evenodd" clip-rule="evenodd" d="M2.21872 4.92503C2.43327 4.68099 2.77334 4.5 3.14955 4.5H21.8733C22.2508 4.5 22.5863 4.68508 22.7972 4.92858C23.0082 5.17205 23.1242 5.45682 23.209 5.72906C23.9452 8.09177 23.913 11.2086 23.2159 13.8224C23.139 14.1108 23.0169 14.3998 22.8007 14.6442C22.5845 14.8884 22.249 15.0727 21.8733 15.0727H3.14947C2.77378 15.0727 2.43486 14.8884 2.21864 14.6442C2.00242 14.3998 1.88031 14.1108 1.8034 13.8224C1.05721 11.0242 1.07274 8.3541 1.80694 5.73968C1.88649 5.45642 2.00417 5.16909 2.21872 4.92503ZM21.8734 5.45633H3.14955C3.03181 5.45633 2.98831 5.4817 2.91408 5.56621C2.83985 5.65065 2.76104 5.81104 2.70646 6.00541C2.31732 7.39124 2.14366 8.78136 2.19361 10.2061H22.7951C22.8469 8.70246 22.6897 7.21788 22.3163 6.01958C22.2536 5.81821 22.1728 5.65217 22.0983 5.56621C22.0238 5.48007 21.9899 5.45633 21.8734 5.45633ZM22.7338 11.166H2.2606C2.34267 11.9536 2.49203 12.7537 2.71001 13.571C2.76094 13.762 2.83656 13.9194 2.9107 14.0031C2.98484 14.0867 3.03119 14.1129 3.14947 14.1129H4.23943V12.7775C4.23917 12.7142 4.25117 12.6514 4.27473 12.5929C4.29829 12.5343 4.33294 12.4811 4.37669 12.4363C4.42044 12.3915 4.47243 12.3561 4.52964 12.332C4.58685 12.3079 4.64816 12.2956 4.71003 12.2958H20.2919C20.3535 12.296 20.4144 12.3087 20.4712 12.333C20.5281 12.3573 20.5796 12.3929 20.623 12.4376C20.6664 12.4823 20.7007 12.5354 20.7241 12.5937C20.7474 12.652 20.7593 12.7145 20.7591 12.7775V14.1129H21.8733C21.9916 14.1129 22.0345 14.0869 22.1086 14.0031C22.1828 13.9194 22.2619 13.762 22.3128 13.571C22.5155 12.8109 22.6563 11.9942 22.7338 11.166ZM19.8213 14.1129H5.17718V13.2557H19.8213V14.1129Z"  stroke-width="0.4"/>
<path d="M6.80707 16.8915C6.72302 16.8913 6.64045 16.9084 6.56801 16.9411C6.49556 16.9738 6.43591 17.0208 6.39529 17.0773C5.80412 17.8764 5.56127 18.3075 5.6617 18.7307C5.71191 18.9423 5.91201 19.1223 6.10116 19.2058C6.26256 19.277 6.40923 19.3069 6.52945 19.3314C6.55013 19.3357 6.57002 19.3397 6.58907 19.3438C6.7189 19.3715 6.80673 19.3975 6.84167 19.4154C6.84756 19.4184 6.85246 19.4207 6.85662 19.4226C6.87701 19.4319 6.87959 19.433 6.89358 19.4792C6.92732 19.5903 6.87551 20.0223 6.37453 20.8646C6.34885 20.9076 6.33447 20.9541 6.33222 21.0014C6.32997 21.0487 6.3399 21.0959 6.36142 21.1403C6.38295 21.1846 6.41566 21.2253 6.45768 21.26C6.49971 21.2946 6.55022 21.3226 6.60635 21.3423C6.66247 21.362 6.72311 21.373 6.78479 21.3748C6.84647 21.3765 6.90798 21.3689 6.96583 21.3523C7.02367 21.3358 7.0767 21.3107 7.1219 21.2785C7.16709 21.2463 7.20357 21.2075 7.22924 21.1644C7.76203 20.2687 7.93878 19.7512 7.80711 19.3173C7.74128 19.1003 7.55823 18.918 7.36419 18.8183C7.17854 18.7229 7.00082 18.685 6.86048 18.6551L6.84168 18.6511C6.70793 18.6224 6.622 18.5997 6.58907 18.5874C6.58394 18.55 6.6564 18.1792 7.20847 17.4329C7.2501 17.3784 7.2723 17.3165 7.27285 17.2534C7.27339 17.1903 7.25226 17.1281 7.21158 17.0733C7.1709 17.0184 7.1121 16.9727 7.04109 16.9408C6.97009 16.9088 6.88937 16.8919 6.80707 16.8915Z"  stroke-width="0.4"/>
<path d="M10.4055 16.9411C10.478 16.9084 10.5605 16.8913 10.6446 16.8915C10.7269 16.8919 10.8076 16.9088 10.8786 16.9408C10.9496 16.9727 11.0084 17.0184 11.0491 17.0733C11.0898 17.1281 11.1109 17.1903 11.1104 17.2534C11.1098 17.3165 11.0876 17.3784 11.046 17.4329C10.4939 18.1792 10.4215 18.55 10.4266 18.5874C10.4595 18.5997 10.5455 18.6224 10.6792 18.6511L10.698 18.6551C10.8383 18.685 11.0161 18.7229 11.2017 18.8183C11.3958 18.918 11.5788 19.1003 11.6446 19.3173C11.7763 19.7512 11.5996 20.2687 11.0668 21.1644C11.0411 21.2075 11.0046 21.2463 10.9594 21.2785C10.9142 21.3107 10.8612 21.3358 10.8034 21.3523C10.7455 21.3689 10.684 21.3765 10.6223 21.3748C10.5606 21.373 10.5 21.362 10.4439 21.3423C10.3878 21.3226 10.3372 21.2946 10.2952 21.26C10.2532 21.2253 10.2205 21.1846 10.1989 21.1403C10.1774 21.0959 10.1675 21.0487 10.1698 21.0014C10.172 20.9541 10.1864 20.9076 10.2121 20.8646C10.713 20.0223 10.7648 19.5903 10.7311 19.4792C10.7171 19.433 10.7147 19.4319 10.6943 19.4226C10.6901 19.4207 10.6851 19.4185 10.6792 19.4154C10.6443 19.3975 10.5564 19.3715 10.4266 19.3438C10.4075 19.3397 10.3876 19.3357 10.367 19.3314C10.2468 19.3069 10.1001 19.277 9.93869 19.2058C9.74953 19.1223 9.54943 18.9423 9.49922 18.7307C9.3988 18.3075 9.64165 17.8764 10.2328 17.0773C10.2734 17.0208 10.3331 16.9738 10.4055 16.9411Z"  stroke-width="0.4"/>
<path d="M14.4787 16.8915C14.3952 16.8918 14.3134 16.9091 14.2416 16.9418C14.1698 16.9745 14.1107 17.0212 14.0704 17.0773C13.4792 17.8764 13.2364 18.3075 13.3368 18.7307C13.387 18.9423 13.5871 19.1223 13.7763 19.2058C13.9376 19.277 14.0843 19.3069 14.2045 19.3314C14.2251 19.3356 14.2452 19.3397 14.2642 19.3438C14.394 19.3715 14.4818 19.3975 14.5168 19.4154C14.5227 19.4185 14.5277 19.4207 14.5318 19.4226C14.5522 19.4319 14.5547 19.433 14.5687 19.4792C14.6024 19.5903 14.5506 20.0223 14.0496 20.8646C14.0239 20.9076 14.0096 20.9541 14.0073 21.0014C14.0051 21.0487 14.015 21.0959 14.0365 21.1403C14.058 21.1846 14.0908 21.2253 14.1328 21.26C14.1748 21.2946 14.2253 21.3226 14.2814 21.3423C14.3376 21.362 14.3982 21.373 14.4599 21.3748C14.5216 21.3765 14.5831 21.3689 14.6409 21.3523C14.6988 21.3358 14.7518 21.3107 14.797 21.2785C14.8422 21.2463 14.8787 21.2075 14.9043 21.1644C15.4371 20.2687 15.6139 19.7512 15.4822 19.3173C15.4164 19.1003 15.2333 18.918 15.0393 18.8183C14.8536 18.7229 14.6759 18.685 14.5355 18.6551L14.5168 18.6511C14.383 18.6224 14.2971 18.5997 14.2642 18.5874C14.259 18.55 14.3315 18.1792 14.8836 17.4329C14.9253 17.3782 14.9476 17.3161 14.9479 17.2527C14.9483 17.1894 14.9269 17.127 14.8858 17.0721C14.8447 17.0171 14.7854 16.9715 14.7139 16.9398C14.6425 16.908 14.5613 16.8914 14.4787 16.8915Z"  stroke-width="0.4"/>
<path d="M18.079 16.9418C18.1508 16.9091 18.2327 16.8918 18.3161 16.8915C18.3987 16.8914 18.4799 16.908 18.5514 16.9398C18.6229 16.9715 18.6822 17.0171 18.7232 17.0721C18.7643 17.127 18.7858 17.1894 18.7854 17.2527C18.785 17.3161 18.7628 17.3782 18.721 17.4329C18.1689 18.1792 18.0965 18.55 18.1016 18.5874C18.1356 18.5999 18.222 18.6228 18.3542 18.6511C18.3604 18.6524 18.3666 18.6537 18.373 18.6551C18.5133 18.685 18.6911 18.7229 18.8767 18.8183C19.0708 18.918 19.2538 19.1003 19.3196 19.3173C19.4513 19.7512 19.2746 20.2687 18.7418 21.1644C18.7161 21.2075 18.6796 21.2463 18.6344 21.2785C18.5892 21.3107 18.5362 21.3358 18.4784 21.3523C18.4205 21.3689 18.359 21.3765 18.2973 21.3748C18.2356 21.373 18.175 21.362 18.1189 21.3423C18.0628 21.3226 18.0122 21.2946 17.9702 21.26C17.9282 21.2253 17.8955 21.1846 17.874 21.1403C17.8524 21.0959 17.8425 21.0487 17.8447 21.0014C17.847 20.9541 17.8614 20.9076 17.8871 20.8646C18.388 20.0223 18.4398 19.5903 18.4061 19.4792C18.3921 19.433 18.3897 19.4319 18.3693 19.4226C18.3651 19.4207 18.3601 19.4185 18.3542 19.4154C18.3193 19.3975 18.2314 19.3715 18.1016 19.3438C18.0825 19.3397 18.0627 19.3357 18.042 19.3314C17.9218 19.3069 17.7751 19.277 17.6137 19.2058C17.4245 19.1223 17.2244 18.9423 17.1742 18.7307C17.0738 18.3075 17.3167 17.8764 17.9078 17.0773C17.9482 17.0212 18.0073 16.9745 18.079 16.9418Z"  stroke-width="0.4"/>
</svg>
