<svg xmlns="http://www.w3.org/2000/svg" viewBox="0 0 20 20"><path d="M3.875 11.876l.146-.146a.5.5 0 01.708.707l-1 1a.5.5 0 01-.708 0l-1-1a.5.5 0 11.708-.707l.146.146V4.207l-.146.147a.5.5 0 01-.708-.708l1-1a.5.5 0 01.708 0l1 1a.5.5 0 11-.708.708l-.146-.147v7.67z"/><path fill-rule="evenodd" d="M16.375 2.5h-10a.5.5 0 00-.5.5v10.333a.5.5 0 00.5.5h10a.5.5 0 00.5-.5V3a.5.5 0 00-.5-.5zm-.5 4h-1.5a.5.5 0 000 1h1.5v5.333H9.542v-1.5a.5.5 0 00-1 0v1.5H6.875V3.5h1.667V9a.5.5 0 001 0V7.5h2.5a.5.5 0 100-1h-2.5v-3h6.333v3z" clip-rule="evenodd"/><path d="M16.729 15.98l-1-1a.5.5 0 10-.707.707l.146.146h-7.71l.146-.146a.5.5 0 00-.708-.707l-1 1a.5.5 0 000 .707l1 1a.5.5 0 10.708-.707l-.147-.147h7.71l-.146.147a.5.5 0 00.707.707l1-1a.501.501 0 000-.707z"/></svg>