<svg width="32" height="32" viewBox="0 0 32 32" xmlns="http://www.w3.org/2000/svg">
<path d="M16.3416 10.825C15.886 10.3694 15.886 9.63066 16.3416 9.17505C16.7973 8.71944 17.5359 8.71944 17.9916 9.17505L23.8249 15.0084C24.2805 15.464 24.2805 16.2027 23.8249 16.6583L17.9916 22.4916C17.5359 22.9472 16.7973 22.9472 16.3416 22.4916C15.886 22.036 15.886 21.2973 16.3416 20.8417L21.35 15.8333L16.3416 10.825Z"/>
<path d="M8.17496 10.825C7.71935 10.3694 7.71935 9.63066 8.17496 9.17505C8.63057 8.71944 9.36927 8.71944 9.82488 9.17505L15.6582 15.0084C16.1138 15.464 16.1138 16.2027 15.6582 16.6583L9.82488 22.4916C9.36927 22.9472 8.63057 22.9472 8.17496 22.4916C7.71935 22.036 7.71935 21.2973 8.17496 20.8417L13.1833 15.8333L8.17496 10.825Z"/>
</svg>
