<svg viewBox="0 0 32 32" xmlns="http://www.w3.org/2000/svg">
<path d="M15.6583 10.825C16.1139 10.3694 16.1139 9.63066 15.6583 9.17505C15.2027 8.71944 14.464 8.71944 14.0084 9.17505L8.17505 15.0084C7.71944 15.464 7.71944 16.2027 8.17505 16.6583L14.0084 22.4916C14.464 22.9472 15.2027 22.9472 15.6583 22.4916C16.1139 22.036 16.1139 21.2973 15.6583 20.8417L10.6499 15.8333L15.6583 10.825Z" />
<path d="M23.825 10.825C24.2806 10.3694 24.2806 9.63066 23.825 9.17505C23.3694 8.71944 22.6307 8.71944 22.1751 9.17505L16.3417 15.0084C15.8861 15.464 15.8861 16.2027 16.3417 16.6583L22.1751 22.4916C22.6307 22.9472 23.3694 22.9472 23.825 22.4916C24.2806 22.036 24.2806 21.2973 23.825 20.8417L18.8166 15.8333L23.825 10.825Z" />
</svg>
