<svg xmlns="http://www.w3.org/2000/svg" viewBox="0 0 32 32">
    <path d="M26.3156 15.1611H7.34194l3.50366-3.5036c.3773-.3773.3773-.9972 0-1.3745-.3773-.37733-.9972-.37733-1.37452 0l-5.17462 5.1746c-.0539.0539-.08085.1078-.13475.1617 0 .027-.02695.027-.02695.0539-.02696.027-.05391.0809-.05391.1078 0 .027-.02695.0539-.02695.0809 0 .0269-.02695.0539-.02695.0808 0 .0539-.02695.1348-.02695.1887s0 .1347.02695.1886c0 .027.02695.0539.02695.0809.02695.0539.02695.0809.02695.1078.02695.027.02695.0809.05391.1078 0 .027.02695.027.02695.0539.02695.0539.08085.1078.13475.1617l5.17462 5.1746c.18866.1887.43122.2965.70072.2965s.5121-.1078.7007-.2965c.3774-.3773.3774-.9972 0-1.3745l-3.50361-3.5036H26.3425c.539 0 .9702-.4312.9702-.9703-.0269-.539-.4581-.9972-.9971-.9972z"/>
</svg>
