<svg viewBox="0 0 32 32" xmlns="http://www.w3.org/2000/svg">
<path clip-rule="evenodd" d="M15.1981 4.36812C15.4353 4.13234 15.7562 4 16.0906 4C16.425 4 16.7459 4.13234 16.9831 4.36812L16.9843 4.36934L28.8571 16.258L28.8689 16.2718C29.0763 16.5139 29.1847 16.8254 29.1723 17.144C29.16 17.4626 29.028 17.7649 28.8025 17.9903C28.5771 18.2158 28.2748 18.3478 27.9562 18.3602C27.6376 18.3725 27.3261 18.2641 27.084 18.0567L27.07 18.0447L25.8974 16.8714V26.1011C25.8974 26.6047 25.6974 27.0877 25.3412 27.4438C24.9851 27.7999 24.5022 28 23.9986 28H18.1437V20.0881H14.0296V28H8.17477C7.67116 28 7.18818 27.7999 6.83207 27.4438C6.47596 27.0877 6.27591 26.6047 6.27591 26.1011V16.8642L5.10327 18.0369L5.08934 18.0488C4.84717 18.2562 4.53565 18.3645 4.21705 18.3522C3.89846 18.3399 3.59623 18.2079 3.37078 17.9824C3.14533 17.757 3.01325 17.4547 3.00094 17.1361C2.98864 16.8175 3.09701 16.506 3.3044 16.2638L3.31633 16.2499L15.1971 4.36912L15.1981 4.36812ZM8.49125 14.6489V25.7847H11.8142V17.8728H20.3591V25.7847H23.6821V14.6545L16.0865 7.0536L8.49125 14.6489Z">
</svg>
