<svg viewBox="0 0 32 32" xmlns="http://www.w3.org/2000/svg">
<path clip-rule="evenodd" d="M20.6865 6.1229C19.8413 6.1229 19.0308 6.45864 18.4331 7.05627L8.6784 16.811C7.68243 17.807 7.1229 19.1578 7.1229 20.5663C7.1229 21.9748 7.68243 23.3256 8.6784 24.3216C9.67437 25.3176 11.0252 25.8771 12.4337 25.8771C13.8422 25.8771 15.193 25.3176 16.189 24.3216L25.9437 14.5669C26.3583 14.1523 27.0303 14.1523 27.4449 14.5669C27.8594 14.9814 27.8594 15.6535 27.4449 16.068L17.6901 25.8227C16.296 27.2168 14.4052 28 12.4337 28C10.4622 28 8.57137 27.2168 7.17728 25.8227C5.78319 24.4286 5 22.5378 5 20.5663C5 18.5948 5.78319 16.704 7.17728 15.3099L16.932 5.55515C17.9278 4.5594 19.2783 4 20.6865 4C22.0947 4 23.4452 4.5594 24.4409 5.55515C25.4367 6.5509 25.9961 7.90142 25.9961 9.30961C25.9961 10.7178 25.4367 12.0683 24.4409 13.0641L14.6756 22.8188C14.0782 23.4162 13.2679 23.7518 12.4231 23.7518C11.5782 23.7518 10.768 23.4162 10.1706 22.8188C9.57317 22.2214 9.23755 21.4112 9.23755 20.5663C9.23755 19.7214 9.57317 18.9112 10.1706 18.3138L19.1827 9.31224C19.5975 8.89797 20.2696 8.89836 20.6838 9.31313C21.0981 9.72789 21.0977 10.4 20.683 10.8142L11.6717 19.8149C11.4727 20.0141 11.3605 20.2847 11.3605 20.5663C11.3605 20.8481 11.4724 21.1184 11.6717 21.3177C11.871 21.517 12.1413 21.6289 12.4231 21.6289C12.7049 21.6289 12.9752 21.517 13.1745 21.3177L22.9398 11.563C23.5372 10.9654 23.8732 10.1546 23.8732 9.30961C23.8732 8.46445 23.5374 7.65389 22.9398 7.05627C22.3422 6.45864 21.5316 6.1229 20.6865 6.1229Z">
</svg>
