<svg viewBox="0 0 18 19" xmlns="http://www.w3.org/2000/svg">
<path d="M6.58633 3.64727C7.25304 2.91267 8.11125 2.50735 9 2.50735C9.88875 2.50735 10.747 2.91267 11.4137 3.64727C11.5599 3.80839 11.7829 3.79083 11.9118 3.60805C12.0407 3.42527 12.0267 3.14648 11.8804 2.98536C11.0848 2.1087 10.0606 1.625 9 1.625C7.93938 1.625 6.9152 2.1087 6.11956 2.98536C5.97334 3.14648 5.95929 3.42527 6.08818 3.60805C6.21707 3.79083 6.4401 3.80839 6.58633 3.64727Z"/>
<path d="M8.30873 4.57605C8.50301 4.40351 8.73542 4.31082 8.97374 4.31082C9.21206 4.31082 9.44448 4.40351 9.63876 4.57605C9.79766 4.71716 10.018 4.67054 10.1309 4.47191C10.2438 4.27328 10.2065 3.99786 10.0476 3.85674C9.73387 3.57814 9.35857 3.42847 8.97374 3.42847C8.58891 3.42847 8.21362 3.57814 7.89991 3.85674C7.741 3.99786 7.7037 4.27328 7.8166 4.47191C7.92949 4.67054 8.14983 4.71716 8.30873 4.57605Z"/>
<path fill-rule="evenodd" clip-rule="evenodd" d="M2 5.72064C2 5.4445 2.22386 5.22064 2.5 5.22064L15.5 5.22064C15.7761 5.22064 16 5.4445 16 5.72064L15.9983 16.7206H17.5C17.7761 16.7206 18 16.9445 18 17.2206C18 17.4968 17.7761 17.7206 17.5 17.7206L0.5 17.7206C0.223858 17.7206 0 17.4968 0 17.2206C0 16.9445 0.223858 16.7206 0.5 16.7206H2.00172L2 5.72064ZM15 10.6581L15.0017 16.7206L2.9983 16.7206C2.9983 16.7206 3.00001 12.6598 3.00001 10.6581L15 10.6581ZM15 7.39062V6.22064L3.00001 6.22064V7.39062H15ZM15 8.51562H3.00001V9.65814L15 9.65814V8.51562Z"/>
</svg>
