<svg xmlns="http://www.w3.org/2000/svg" viewBox="0 0 20 20"><path fill-rule="evenodd" d="M13.476 2.938a2.183 2.183 0 00-2.18 2.18v.75a.598.598 0 101.195 0v-.75a.987.987 0 011.97 0v5.41H3.708a.598.598 0 00-.598.598 4.516 4.516 0 002.693 4.127 2.057 2.057 0 00-.39 1.212.598.598 0 101.195 0c0-.469.355-.83.766-.83h5.253c.411 0 .766.361.766.83a.598.598 0 001.196 0c0-.454-.145-.874-.391-1.212a4.515 4.515 0 002.693-4.127.598.598 0 00-.598-.598h-.634v-5.41a2.184 2.184 0 00-2.181-2.18zM7.62 14.44a3.32 3.32 0 01-3.26-2.716h11.28a3.32 3.32 0 01-3.259 2.716H7.62z" clip-rule="evenodd"/><path d="M11.893 7.427a.598.598 0 00-.598.598v.356a.598.598 0 101.196 0v-.356a.598.598 0 00-.598-.598z"/></svg>