<svg xmlns="http://www.w3.org/2000/svg" viewBox="0 0 20 20"><path stroke="#363C4B" d="M17.193 9.387v.37l.354.108c.737.226 1.328 1 1.328 1.97v3.4a.13.13 0 01-.029.086.044.044 0 01-.011.01h-1.642v1.573a.13.13 0 01-.029.086.053.053 0 01-.009.009.05.05 0 01-.009-.009.13.13 0 01-.029-.086V15.33H3.507v1.573a.13.13 0 01-.028.086.05.05 0 01-.01.009.05.05 0 01-.008-.009.13.13 0 01-.03-.086V15.33H1.79a.043.043 0 01-.011-.01.13.13 0 01-.029-.086v-3.4c0-.97.591-1.744 1.328-1.97l.354-.108V4.914c0-.76.547-1.289 1.113-1.289H16.08c.567 0 1.114.529 1.114 1.289v4.473zm1.64 5.944h.002-.002zm-1.681 1.67h.001-.001zm.005 0h.002-.002zm-13.69 0s0 0 0 0h0zm.005 0h.001-.001zm-1.68-1.67H1.79h.002zm14.825-5.536h.5V4.914c0-.555-.418-1.096-1.038-1.096H4.545c-.62 0-1.037.54-1.037 1.096v4.88h2.26V8.099c0-.815.588-1.388 1.204-1.388h2.175c.3 0 .584.13.805.359l.36.376.361-.376c.22-.23.504-.36.805-.36h2.175c.616 0 1.203.574 1.203 1.389v1.697h1.761zm-2.337 0h.5V8.098c0-.61-.458-1.195-1.127-1.195h-2.175c-.67 0-1.127.585-1.127 1.195v1.697h3.93zm-4.506 0h.5V8.098c0-.61-.458-1.195-1.127-1.195H6.972c-.67 0-1.127.585-1.127 1.195v1.697h3.93zm8.525 5.343h.5v-3.303c0-.97-.723-1.848-1.716-1.848H3.543c-.995 0-1.717.879-1.717 1.848v3.303H18.3z"/></svg>