<svg viewBox="0 0 32 32" xmlns="http://www.w3.org/2000/svg"><path d="M26.31 14.02V7.861C26.31 6.284 25.15 5 23.726 5H9.273C7.849 5 6.69 6.284 6.69 7.862v6.157C5.14 14.495 4 16.07 4 17.937v5.438c0 .527.386.954.86.954h1.83v1.717c0 .527.386.954.862.954.475 0 .86-.427.86-.954v-1.717h16.175v1.717c0 .527.386.954.861.954.476 0 .861-.427.861-.954v-1.717h1.83c.476 0 .861-.427.861-.954v-5.438c0-1.867-1.141-3.442-2.69-3.918zM8.412 7.861c0-.526.385-.954.86-.954h14.454c.475 0 .86.428.86.954v6.01H22.57v-1.916c0-1.665-1.222-3.02-2.725-3.02h-1.48c-.721 0-1.377.312-1.865.82-.488-.508-1.144-.82-1.864-.82h-1.48c-1.504 0-2.726 1.355-2.726 3.02v1.916H8.413v-6.01zm12.435 4.094v1.916h-3.487v-1.916c0-.613.45-1.112 1.003-1.112h1.48c.554 0 1.004.5 1.004 1.112zm-5.209 0v1.916h-3.487v-1.916c0-.613.45-1.112 1.003-1.112h1.48c.554 0 1.004.5 1.004 1.112zm11.64 10.465H5.721v-4.484c0-1.19.873-2.157 1.946-2.157h17.664c1.073 0 1.946.967 1.946 2.157v4.484z" /><path fill-rule="evenodd" clip-rule="evenodd" d="M16.331 9.594a2.55 2.55 0 00-1.695-.658h-1.48c-1.504 0-2.726 1.355-2.726 3.02v1.916H8.413v-6.01c0-.526.385-.954.86-.954h14.454c.475 0 .86.428.86.954v6.01H22.57v-1.916c0-1.665-1.222-3.02-2.725-3.02h-1.48c-.641 0-1.23.247-1.696.658a2.833 2.833 0 00-.169.162 2.897 2.897 0 00-.169-.162zm9.978-1.732v6.157C27.86 14.495 29 16.07 29 17.937v5.438c0 .527-.386.954-.86.954h-1.83v1.717c0 .527-.386.954-.862.954-.475 0-.86-.427-.86-.954v-1.717H8.412v1.717c0 .527-.386.954-.861.954-.476 0-.861-.427-.861-.954v-1.717H4.86c-.475 0-.861-.427-.861-.954v-5.438c0-1.867 1.141-3.442 2.69-3.918V7.862C6.69 6.284 7.85 5 9.274 5h14.454c1.424 0 2.582 1.284 2.582 2.862zm-5.46 4.094c0-.613-.45-1.112-1.004-1.112h-1.48c-.554 0-1.004.499-1.004 1.112v1.916h3.487v-1.916zm-5.21 0c0-.613-.45-1.112-1.003-1.112h-1.481c-.553 0-1.003.499-1.003 1.112v1.916h3.487v-1.916zm11.64 10.465v-4.484c0-1.19-.874-2.157-1.947-2.157H7.668c-1.073 0-1.946.967-1.946 2.157v4.484h21.556z" /></svg>
