<svg viewBox="0 0 32 32" xmlns="http://www.w3.org/2000/svg">
<path d="M28.3093 15.0193V7.86179C28.3093 6.28381 27.151 5 25.7272 5H7.27279C5.84901 5 4.69066 6.28381 4.69066 7.86179V15.0193C3.1412 15.4947 2 17.0703 2 18.9367V24.3751C2 24.9021 2.3855 25.3293 2.86094 25.3293H4.69066V27.0458C4.69066 27.5728 5.07615 28 5.55159 28C6.02704 28 6.41253 27.5728 6.41253 27.0458V25.3293H26.5875V27.0458C26.5875 27.5728 26.973 28 27.4484 28C27.9238 28 28.3093 27.5728 28.3093 27.0458V25.3293H30.1391C30.6145 25.3293 31 24.9021 31 24.3751V18.9367C31 17.0703 29.8587 15.4947 28.3093 15.0193ZM6.41253 7.86179C6.41253 7.33611 6.79848 6.90836 7.27279 6.90836H25.7273C26.2016 6.90836 26.5875 7.33611 26.5875 7.86179V14.8716H24.5703V12.9563C24.5703 11.2908 23.3477 9.93587 21.845 9.93587H18.3644C17.6437 9.93587 16.9879 10.2481 16.5001 10.7562C16.0122 10.2481 15.3564 9.93587 14.6357 9.93587H11.1551C9.65238 9.93587 8.42984 11.2909 8.42984 12.9563V14.8716H6.41253V7.86179ZM22.8484 12.9563V14.8716H17.3609V12.9563C17.3609 12.343 17.8111 11.8442 18.3643 11.8442H21.8449C22.3983 11.8442 22.8484 12.3431 22.8484 12.9563ZM15.639 12.9563V14.8716H10.1515V12.9563C10.1515 12.343 10.6017 11.8442 11.1549 11.8442H14.6356C15.1889 11.8442 15.639 12.3431 15.639 12.9563ZM29.2781 23.4209H3.72187V18.9367C3.72187 17.7475 4.59482 16.78 5.66788 16.78H27.3321C28.4051 16.78 29.2781 17.7475 29.2781 18.9367V23.4209Z"/>
<path fill-rule="evenodd" clip-rule="evenodd" d="M16.3313 10.5942C15.8656 10.1826 15.2763 9.93587 14.6357 9.93587H11.1551C9.65238 9.93587 8.42984 11.2909 8.42984 12.9563V14.8716H6.41253V7.86179C6.41253 7.33611 6.79848 6.90836 7.27279 6.90836H25.7273C26.2016 6.90836 26.5875 7.33611 26.5875 7.86179V14.8716H24.5703V12.9563C24.5703 11.2908 23.3477 9.93587 21.845 9.93587H18.3644C17.7238 9.93587 17.1344 10.1825 16.6688 10.5942C16.6105 10.6457 16.5543 10.6997 16.5001 10.7562C16.4458 10.6997 16.3895 10.6457 16.3313 10.5942ZM28.3093 7.86179V15.0193C29.8587 15.4947 31 17.0703 31 18.9367V24.3751C31 24.9021 30.6145 25.3293 30.1391 25.3293H28.3093V27.0458C28.3093 27.5728 27.9238 28 27.4484 28C26.973 28 26.5875 27.5728 26.5875 27.0458V25.3293H6.41253V27.0458C6.41253 27.5728 6.02704 28 5.55159 28C5.07615 28 4.69066 27.5728 4.69066 27.0458V25.3293H2.86094C2.3855 25.3293 2 24.9021 2 24.3751V18.9367C2 17.0703 3.1412 15.4947 4.69066 15.0193V7.86179C4.69066 6.28381 5.84901 5 7.27279 5H25.7272C27.151 5 28.3093 6.28381 28.3093 7.86179ZM22.8484 12.9563C22.8484 12.3431 22.3983 11.8442 21.8449 11.8442H18.3643C17.8111 11.8442 17.3609 12.343 17.3609 12.9563V14.8716H22.8484V12.9563ZM15.639 12.9563C15.639 12.3431 15.1889 11.8442 14.6356 11.8442H11.1549C10.6017 11.8442 10.1515 12.343 10.1515 12.9563V14.8716H15.639V12.9563ZM29.2781 23.4209V18.9367C29.2781 17.7475 28.4051 16.78 27.3321 16.78H5.66788C4.59482 16.78 3.72187 17.7475 3.72187 18.9367V23.4209H29.2781Z"/>
</svg>
