<svg xmlns="http://www.w3.org/2000/svg" viewBox="0 0 24 24"><path  d="M8.996 9.614c0-.49.395-.89.886-.89h4.081c.491 0 .887.4.887.89 0 .491-.396.891-.887.891h-4.08a.889.889 0 01-.887-.89zM9.882 11.83c-.49 0-.886.401-.886.892 0 .49.395.89.886.89h7.17c.49 0 .886-.4.886-.89 0-.491-.395-.891-.887-.891H9.882z"/><path fill-rule="evenodd" d="M10.57 3.003a.883.883 0 011.183 0l1.703 1.532 1.702-1.532a.884.884 0 011.184 0l1.705 1.534 1.703-1.515a.884.884 0 011.475.666v14.139c0 1.849-1.477 3.36-3.309 3.398H5.82v-.016a3.396 3.396 0 01-3.044-3.383v-1.62c0-.49.396-.89.887-.89h2.025V3.688a.886.886 0 011.475-.667l1.702 1.515 1.706-1.534zM4.548 17.097v.73c0 .882.707 1.6 1.577 1.616H14.874a3.394 3.394 0 01-.408-1.617v-.729H4.548zM15.75 4.862l-1.703 1.532a.883.883 0 01-1.183 0l-1.702-1.532-1.703 1.532a.884.884 0 01-1.18.003l-.819-.729v9.647h7.893c.491 0 .887.4.887.891v1.62c0 .893.722 1.618 1.606 1.618.883 0 1.605-.725 1.605-1.617V5.667l-.819.73a.884.884 0 01-1.18-.004L15.75 4.862z" clip-rule="evenodd"/></svg>