<svg xmlns="http://www.w3.org/2000/svg" viewBox="0 0 20 20"><path d="M16.33 17.042h-1.089V4.325c0-.3-.243-.544-.544-.544h-4.084V2.42c0-.301-.244-.545-.545-.545H6.29c-.3 0-.544.244-.544.545v1.36h-.443c-.3 0-.544.245-.544.546v12.716h-1.09a.545.545 0 100 1.09H16.33a.545.545 0 100-1.09zM6.835 2.964h2.689v.817h-2.69v-.817zM8.91 17.042v-2.314h2.178v2.314H8.911zm3.267 0v-2.314h.238a.545.545 0 000-1.09H7.584a.545.545 0 000 1.09h.238v2.314H5.848V4.87h8.304v12.172h-1.974zm-2.96-9.937c0 .3-.245.545-.545.545H8.06a.545.545 0 010-1.09h.613c.3 0 .544.244.544.545zm3.232 0c0 .3-.243.545-.544.545h-.613a.545.545 0 010-1.09h.613c.3 0 .544.244.544.545zM9.217 9.147c0 .3-.244.545-.544.545H8.06a.545.545 0 010-1.09h.613c.3 0 .544.244.544.545zm3.233 0c0 .3-.243.545-.544.545h-.613a.545.545 0 010-1.09h.613c.3 0 .544.244.544.545zM9.217 11.19c0 .3-.244.545-.544.545H8.06a.545.545 0 110-1.09h.613c.3 0 .544.244.544.545zm3.233 0c0 .3-.243.545-.544.545h-.613a.545.545 0 010-1.09h.613c.3 0 .544.244.544.545z"/></svg>