<svg xmlns="http://www.w3.org/2000/svg" viewBox="0 0 14 14"><path fill-rule="evenodd" d="M2.653 2.705a.614.614 0 0 0-.613.613v8.591c0 .34.275.614.613.614h8.591a.614.614 0 0 0 .614-.614V3.32a.614.614 0 0 0-.614-.614h-8.59Zm-1.84.613a1.84 1.84 0 0 1 1.84-1.84h8.591a1.84 1.84 0 0 1 1.841 1.84v8.591a1.84 1.84 0 0 1-1.84 1.841H2.652a1.84 1.84 0 0 1-1.84-1.84V3.317Z" clip-rule="evenodd"/><path fill-rule="evenodd" d="M9.403.25c.34 0 .614.275.614.614v2.454a.614.614 0 1 1-1.227 0V.864c0-.339.275-.614.613-.614ZM4.494.25c.34 0 .614.275.614.614v2.454a.614.614 0 1 1-1.227 0V.864c0-.339.274-.614.613-.614ZM.813 5.773c0-.339.274-.614.613-.614h11.046a.614.614 0 0 1 0 1.228H1.426a.614.614 0 0 1-.613-.614Z" clip-rule="evenodd"/></svg>