<svg xmlns="http://www.w3.org/2000/svg" viewBox="0 0 32 32">
    <path fill-rule="evenodd"
        d="M8.273 8.364a1.09 1.09 0 0 0-1.091 1.09v15.273c0 .603.488 1.091 1.09 1.091h15.274a1.09 1.09 0 0 0 1.09-1.09V9.454c0-.603-.488-1.091-1.09-1.091H8.273ZM5 9.454a3.273 3.273 0 0 1 3.273-3.272h15.273a3.273 3.273 0 0 1 3.272 3.273v15.272A3.273 3.273 0 0 1 23.545 28H8.274A3.273 3.273 0 0 1 5 24.727V9.455Z"
        clip-rule="evenodd" />
    <path fill-rule="evenodd"
        d="M20.273 4c.602 0 1.09.488 1.09 1.09v4.365a1.091 1.091 0 0 1-2.181 0V5.09c0-.603.488-1.091 1.09-1.091ZM11.546 4c.602 0 1.09.488 1.09 1.09v4.365a1.091 1.091 0 0 1-2.181 0V5.09c0-.603.488-1.091 1.09-1.091ZM5 13.818c0-.602.488-1.09 1.09-1.09h19.637a1.09 1.09 0 1 1 0 2.181H6.091A1.09 1.09 0 0 1 5 13.82Z"
        clip-rule="evenodd" />
</svg>