<svg xmlns="http://www.w3.org/2000/svg" viewBox="0 0 18 18"><path  d="M12.454 9.512h.941c.26 0 .471.229.471.511 0 .282-.21.511-.47.511h-.943c-.26 0-.47-.229-.47-.511 0-.282.21-.511.47-.511ZM5.547 9.512h-.942c-.26 0-.471.229-.471.511 0 .282.21.511.47.511h.943c.26 0 .47-.229.47-.511 0-.282-.21-.511-.47-.511Z"/><path fill-rule="evenodd" d="m13.957 5.124.735 2.391c.608.171 1.058.772 1.058 1.485v3.069c0 .282-.21.51-.47.51h-.472v1.535c0 .282-.21.511-.47.511h-2.512c-.26 0-.471-.229-.471-.511V12.58h-4.71v1.534c0 .282-.21.511-.47.511H3.662c-.26 0-.471-.229-.471-.511V12.58H2.72c-.26 0-.471-.23-.471-.511V9c0-.713.45-1.314 1.058-1.485l.734-2.391c.321-1.046 1.22-1.749 2.234-1.749h5.448c1.015 0 1.912.703 2.233 1.749Zm-7.68-.726c-.61 0-1.148.422-1.341 1.049l-.62 2.02H6.13c.579 0 1.116.311 1.437.834a.38.38 0 0 0 .323.188h2.22c.13 0 .25-.07.323-.188.321-.523.858-.835 1.437-.835h1.814l-.62-2.019c-.193-.627-.731-1.049-1.34-1.049H9.47v1.023h.314c.26 0 .47.229.47.511 0 .282-.21.511-.47.511h-1.57c-.26 0-.47-.228-.47-.51 0-.283.21-.512.47-.512h.314V4.398H6.276Zm-2.143 9.204h1.57V12.58h-1.57v1.022Zm8.162 0h1.57V12.58h-1.57v1.022Zm-9.104-2.045h11.616V9c0-.282-.211-.511-.47-.511H11.87a.769.769 0 0 0-.653.38 1.303 1.303 0 0 1-1.107.643H7.89c-.446 0-.86-.24-1.107-.644a.769.769 0 0 0-.653-.38H3.663c-.26 0-.471.23-.471.512v2.557Z" clip-rule="evenodd"/></svg>