<svg viewBox="0 0 32 32" xmlns="http://www.w3.org/2000/svg">
<path d="M14.7891 6.07031V25.8906H17.1953L17.2372 6.07031H14.7891ZM13.8182 4H18.1818C18.7843 4 19.2727 4.53726 19.2727 5.2V26.8C19.2727 27.4627 18.7843 28 18.1818 28H13.8182C13.2157 28 12.7273 27.4627 12.7273 26.8V5.2C12.7273 4.53726 13.2157 4 13.8182 4ZM22.5455 10H26.9091C27.5116 10 28 10.5373 28 11.2V26.8C28 27.4627 27.5116 28 26.9091 28H22.5455C21.943 28 21.4545 27.4627 21.4545 26.8V11.2C21.4545 10.5373 21.943 10 22.5455 10ZM5.09091 16H9.45455C10.057 16 10.5455 16.5373 10.5455 17.2V26.8C10.5455 27.4627 10.057 28 9.45455 28H5.09091C4.48842 28 4 27.4627 4 26.8V17.2C4 16.5373 4.48842 16 5.09091 16ZM23.5234 12.1055V25.8906H25.8828V12.1055H23.5234ZM6.07422 25.8828H8.46484V18.0703H6.07422V25.8828Z">
</svg>
