<svg viewBox="0 0 32 32" xmlns="http://www.w3.org/2000/svg">
<path clip-rule="evenodd" d="M16.0002 4C15.7109 4 15.4334 4.11496 15.2288 4.31959C15.0243 4.52422 14.9093 4.80175 14.9093 5.09114V16.0025C14.9093 16.6052 15.3977 17.0937 16.0002 17.0937H26.9091C27.5116 17.0937 28 16.6052 28 16.0025C28 14.4264 27.6896 12.8656 27.0866 11.4094C26.4835 9.95316 25.5996 8.63 24.4854 7.51547C23.3711 6.40093 22.0482 5.51682 20.5923 4.91364C19.1365 4.31046 17.5761 4 16.0002 4ZM17.0911 14.9114V6.24309C18.0059 6.34539 18.9036 6.57608 19.7574 6.92981C20.9486 7.42332 22.0309 8.14668 22.9426 9.05857C23.8543 9.97047 24.5775 11.053 25.0709 12.2445C25.4245 13.0985 25.6552 13.9964 25.7574 14.9114H17.0911ZM12.073 6.99685C12.6252 6.75583 12.8775 6.1127 12.6365 5.56037C12.3955 5.00805 11.7525 4.7557 11.2004 4.99672C9.40384 5.78087 7.82673 6.99326 6.60689 8.52791C5.38705 10.0625 4.56163 11.8727 4.2028 13.8001C3.84396 15.7276 3.96263 17.7136 4.54844 19.5846C5.13424 21.4555 6.16934 23.1545 7.56324 24.5329C8.95714 25.9112 10.6674 26.9271 12.5445 27.4917C14.4216 28.0562 16.4084 28.1522 18.3311 27.7713C20.2539 27.3904 22.0541 26.5442 23.5744 25.3066C25.0946 24.069 26.2887 22.4778 27.0521 20.672C27.2867 20.117 27.0271 19.4768 26.4722 19.2421C25.9173 19.0074 25.2772 19.2671 25.0426 19.8221C24.418 21.2996 23.441 22.6015 22.1972 23.614C20.9533 24.6266 19.4804 25.3189 17.9073 25.6306C16.3341 25.9422 14.7085 25.8637 13.1727 25.4018C11.6369 24.9399 10.2376 24.1087 9.09716 22.981C7.95669 21.8532 7.10979 20.4631 6.6305 18.9324C6.1512 17.4016 6.05411 15.7766 6.3477 14.1997C6.6413 12.6227 7.31664 11.1416 8.31469 9.886C9.31274 8.63039 10.6031 7.63843 12.073 6.99685Z">
</svg>
