<svg xmlns="http://www.w3.org/2000/svg" viewBox="0 0 18 19">
    <path fill-rule="evenodd"
        d="M5.625 9.35a1.125 1.125 0 0 1-.563-.975V6.688c0-.622.504-1.125 1.125-1.125h5.625c.622 0 1.126.503 1.126 1.125v1.687c0 .417-.227.78-.563.975v6.338c0 .621-.504 1.125-1.125 1.125h-4.5a1.125 1.125 0 0 1-1.125-1.125V9.35Zm.563-2.662h5.625v1.687H6.186V6.688ZM6.75 9.5v6.188h4.5V9.5h-4.5Z"
        clip-rule="evenodd" />
    <path fill-rule="evenodd"
        d="M1.923 8.99a.562.562 0 1 0-.471 1.02l4.173 1.927v-1.239L1.923 8.989Zm10.452 4.823v1.24l3.702 1.708a.563.563 0 1 0 .471-1.021l-4.173-1.927Z"
        clip-rule="evenodd" />
    <path
        d="M7.626 1.625a.436.436 0 0 0-.18.037.32.32 0 0 0-.13.103c-.443.599-.625.922-.55 1.24.038.158.188.293.33.356.121.053.231.076.321.094l.045.01a.974.974 0 0 1 .2.059c.016.006.018.007.028.042.026.083-.013.407-.389 1.039a.214.214 0 0 0-.01.207.27.27 0 0 0 .072.09c.032.026.07.047.112.061a.443.443 0 0 0 .387-.048.286.286 0 0 0 .08-.085c.4-.672.532-1.06.434-1.385a.665.665 0 0 0-.333-.375c-.139-.071-.272-.1-.377-.122l-.014-.003a1.757 1.757 0 0 1-.19-.048c-.004-.028.05-.306.465-.866a.224.224 0 0 0 .048-.134.223.223 0 0 0-.046-.135.322.322 0 0 0-.128-.1.436.436 0 0 0-.175-.037ZM10.324 1.662a.436.436 0 0 1 .355 0 .322.322 0 0 1 .128.1c.03.04.046.087.046.135a.224.224 0 0 1-.048.134c-.414.56-.469.838-.465.866.025.01.09.026.19.048l.014.003c.105.022.238.05.377.122a.665.665 0 0 1 .333.375c.098.325-.034.713-.434 1.385a.286.286 0 0 1-.08.085.383.383 0 0 1-.117.056.451.451 0 0 1-.27-.008.366.366 0 0 1-.111-.061.27.27 0 0 1-.073-.09.213.213 0 0 1 .01-.207c.376-.632.415-.956.39-1.04-.01-.034-.013-.034-.028-.041l-.011-.006a.972.972 0 0 0-.19-.054l-.044-.009c-.09-.018-.2-.04-.322-.094-.142-.063-.292-.198-.33-.356-.075-.318.107-.641.55-1.24a.32.32 0 0 1 .13-.103Z" />
    <path stroke-width=".4"
        d="M7.626 1.625a.436.436 0 0 0-.18.037.32.32 0 0 0-.13.103c-.443.599-.625.922-.55 1.24.038.158.188.293.33.356.121.053.231.076.321.094l.045.01a.974.974 0 0 1 .2.059c.016.006.018.007.028.042.026.083-.013.407-.389 1.039a.214.214 0 0 0-.01.207.27.27 0 0 0 .072.09c.032.026.07.047.112.061a.443.443 0 0 0 .387-.048.286.286 0 0 0 .08-.085c.4-.672.532-1.06.434-1.385a.665.665 0 0 0-.333-.375c-.139-.071-.272-.1-.377-.122l-.014-.003a1.757 1.757 0 0 1-.19-.048c-.004-.028.05-.306.465-.866a.224.224 0 0 0 .048-.134.223.223 0 0 0-.046-.135.322.322 0 0 0-.128-.1.436.436 0 0 0-.175-.037ZM10.324 1.662a.436.436 0 0 1 .355 0 .322.322 0 0 1 .128.1c.03.04.046.087.046.135a.224.224 0 0 1-.048.134c-.414.56-.469.838-.465.866.025.01.09.026.19.048l.014.003c.105.022.238.05.377.122a.665.665 0 0 1 .333.375c.098.325-.034.713-.434 1.385a.286.286 0 0 1-.08.085.383.383 0 0 1-.117.056.451.451 0 0 1-.27-.008.366.366 0 0 1-.111-.061.27.27 0 0 1-.073-.09.213.213 0 0 1 .01-.207c.376-.632.415-.956.39-1.04-.01-.034-.013-.034-.028-.041l-.011-.006a.972.972 0 0 0-.19-.054l-.044-.009c-.09-.018-.2-.04-.322-.094-.142-.063-.292-.198-.33-.356-.075-.318.107-.641.55-1.24a.32.32 0 0 1 .13-.103Z" />
</svg>