<svg viewBox="0 0 32 32" xmlns="http://www.w3.org/2000/svg">
<path d="M26.2857 8.42857H21.1429V6.71429C21.1429 5.74286 20.4 5 19.4286 5H12.5714C11.6 5 10.8571 5.74286 10.8571 6.71429V8.42857H5.71429C4.74286 8.42857 4 9.17143 4 10.1429V24.4286C4 25.4 4.74286 26.1429 5.71429 26.1429H26.2857C27.2571 26.1429 28 25.4 28 24.4286V10.1429C28 9.17143 27.2571 8.42857 26.2857 8.42857ZM12.5714 6.71429H19.4286V8.42857H12.5714V6.71429ZM26.2857 10.1429V14.4286C26.1714 14.4286 26 14.4286 25.8857 14.5429C25.8286 14.5429 22.2857 16.2571 18.7429 17C18.5143 16.3714 17.8857 15.9143 17.1429 15.9143H14.8571C14.1143 15.9143 13.4857 16.3714 13.2572 17.0571C9.60001 16.3714 6.05713 14.6 6.05713 14.5429C5.94284 14.4857 5.82856 14.4857 5.77141 14.4286V10.1429H26.2857ZM17.1429 17.5714V19.2857H14.8571V17.5714H17.1429ZM5.71429 24.4286V16.3143C6.97143 16.8857 10.0571 18.2 13.1429 18.7714V19.2857C13.1429 20.2571 13.8857 21 14.8571 21H17.1429C18.1143 21 18.8571 20.2571 18.8571 19.2857V18.6572C22.4 18.0286 25.4286 16.6 26.2857 16.1429V24.3714L5.71429 24.4286Z">
</svg>
