<svg viewBox="0 0 32 32" xmlns="http://www.w3.org/2000/svg">
<path clip-rule="evenodd" d="M6.50134 6.50134C6.70592 6.29675 6.9834 6.18182 7.27273 6.18182H17.0909C17.3802 6.18182 17.6577 6.29675 17.8623 6.50134C18.0669 6.70592 18.1818 6.9834 18.1818 7.27273V8.36364C18.1818 8.96613 18.6702 9.45455 19.2727 9.45455C19.8752 9.45455 20.3636 8.96613 20.3636 8.36364V7.27273C20.3636 6.40475 20.0188 5.57231 19.4051 4.95856C18.7913 4.3448 17.9589 4 17.0909 4H7.27273C6.40475 4 5.57232 4.3448 4.95856 4.95856C4.3448 5.57232 4 6.40475 4 7.27273V17.0909C4 17.9589 4.3448 18.7913 4.95856 19.4051C5.57231 20.0188 6.40475 20.3636 7.27273 20.3636H8.36364C8.96613 20.3636 9.45455 19.8752 9.45455 19.2727C9.45455 18.6702 8.96613 18.1818 8.36364 18.1818H7.27273C6.9834 18.1818 6.70592 18.0669 6.50134 17.8623C6.29675 17.6577 6.18182 17.3802 6.18182 17.0909V7.27273C6.18182 6.9834 6.29675 6.70592 6.50134 6.50134ZM13.8182 14.9091C13.8182 14.3066 14.3066 13.8182 14.9091 13.8182H24.7273C25.3298 13.8182 25.8182 14.3066 25.8182 14.9091V24.7273C25.8182 25.3298 25.3298 25.8182 24.7273 25.8182H14.9091C14.3066 25.8182 13.8182 25.3298 13.8182 24.7273V14.9091ZM14.9091 11.6364C13.1016 11.6364 11.6364 13.1016 11.6364 14.9091V24.7273C11.6364 26.5347 13.1016 28 14.9091 28H24.7273C26.5348 28 28 26.5347 28 24.7273V14.9091C28 13.1016 26.5348 11.6364 24.7273 11.6364H14.9091Z">
</svg>
