<svg xmlns="http://www.w3.org/2000/svg" viewBox="0 0 18 19">
    <path fill-rule="evenodd"
        d="M8.749 2.81a.563.563 0 0 1 .503 0l5.625 2.812a.563.563 0 0 1 .307.564c.003.02.004.04.004.061v3.914c0 .213-.12.407-.311.503l-5.625 2.812a.562.562 0 0 1-.503 0l-5.625-2.812a.562.562 0 0 1-.311-.503V6.247a.57.57 0 0 1 .003-.06.565.565 0 0 1 .308-.565L8.749 2.81ZM3.938 7.035v2.778L9 12.344l5.063-2.531V7.035L9.252 9.441a.563.563 0 0 1-.503 0L3.938 7.035Zm.695-.91L9 8.31l4.367-2.184L9 3.942 4.633 6.125Zm-2.886 5.936a.562.562 0 0 1 .755-.251L9 15.059l6.499-3.25a.562.562 0 1 1 .503 1.007l-6.75 3.375a.562.562 0 0 1-.503 0l-6.75-3.375a.563.563 0 0 1-.252-.755Z"
        clip-rule="evenodd" />
</svg>