<svg xmlns="http://www.w3.org/2000/svg" viewBox="0 0 32 32">
    <path fill-rule="evenodd" d="M12.9559 6.50134c.2046-.20459.482-.31952.7714-.31952h4.3636c.2893 0 .5668.11493.7714.31952.2046.20458.3195.48206.3195.77139v1.09091h-6.5454V7.27273c0-.28933.1149-.56681.3195-.77139zm8.4077.77139v1.09091h4.3637c.6025 0 1.0909.48842 1.0909 1.09091 0 .60245-.4884 1.09095-1.0909 1.09095h-1.0909v14.1818c0 .868-.3448 1.7004-.9586 2.3141-.6137.6138-1.4462.9586-2.3142.9586H10.4545c-.86793 0-1.70036-.3448-2.31412-.9586-.61375-.6137-.95856-1.4461-.95856-2.3141V10.5455H6.09091C5.48842 10.5455 5 10.057 5 9.45455c0-.60249.48842-1.09091 1.09091-1.09091h4.36359V7.27273c0-.86798.3449-1.70042.9586-2.31417C12.0269 4.3448 12.8593 4 13.7273 4h4.3636c.868 0 1.7004.3448 2.3142.95856.6137.61375.9585 1.44619.9585 2.31417zM9.36364 10.5455v14.1818c0 .2893.11493.5668.31952.7714.20458.2045.48204.3195.77134.3195h10.9091c.2894 0 .5668-.115.7714-.3195.2046-.2046.3195-.4821.3195-.7714V10.5455H9.36364zm4.36366 3.2727c.6025 0 1.0909.4884 1.0909 1.0909v6.5454c0 .6025-.4884 1.091-1.0909 1.091s-1.0909-.4885-1.0909-1.091v-6.5454c0-.6025.4884-1.0909 1.0909-1.0909zm5.4545 1.0909c0-.6025-.4884-1.0909-1.0909-1.0909S17 14.3066 17 14.9091v6.5454c0 .6025.4884 1.091 1.0909 1.091s1.0909-.4885 1.0909-1.091v-6.5454z" clip-rule="evenodd"/>
</svg>
