<svg xmlns="http://www.w3.org/2000/svg" viewBox="0 0 32 32">
    <path d="M26.869 3H7.066A2.057 2.057 0 005 5.066v21.196c0 1.148.918 2.066 2.066 2.066h3.188a1.123 1.123 0 000-2.246H8.098a.812.812 0 01-.82-.82V6.066c0-.46.361-.82.82-.82h17.836c.46 0 .82.36.82.82v19.196c0 .46-.36.82-.82.82h-1.696a1.123 1.123 0 100 2.246h2.696A2.057 2.057 0 0029 26.262V5.066A2.135 2.135 0 0026.869 3z"/>
    <path clip-rule="evenodd" d="M11.293 23.293a1 1 0 011.414 0L17 27.586l4.293-4.293a1 1 0 011.414 1.414l-5 5a1 1 0 01-1.414 0l-5-5a1 1 0 010-1.414z"/>
    <path clip-rule="evenodd" d="M17 17a1 1 0 011 1v11a1 1 0 11-2 0V18a1 1 0 011-1z" />
    <path d="M10.725 12.83V15H9.182V8.602h2.553c.49 0 .922.09 1.297.272.378.179.67.435.874.77.208.33.312.707.312 1.129 0 .623-.224 1.123-.672 1.498-.445.372-1.058.558-1.837.558h-.984zm0-1.192h1.01c.3 0 .526-.075.681-.224.159-.15.238-.36.238-.633 0-.299-.08-.537-.242-.716-.161-.179-.38-.27-.66-.273h-1.027v1.846zM15.044 15V8.602h2.061c.566 0 1.074.128 1.525.386.451.255.803.617 1.055 1.086.255.466.384.989.387 1.569v.294c0 .586-.125 1.112-.374 1.578a2.714 2.714 0 01-1.046 1.09c-.448.26-.949.392-1.503.395h-2.105zm1.543-5.208v4.021h.536c.442 0 .782-.156 1.02-.47.237-.316.355-.785.355-1.406v-.277c0-.618-.118-1.084-.355-1.397-.238-.314-.583-.47-1.038-.47h-.518zM24.893 12.451h-2.488V15h-1.542V8.602h4.28v1.19h-2.738v1.473h2.488v1.186z"/>
</svg>
