<svg xmlns="http://www.w3.org/2000/svg" viewBox="0 0 32 32">
  <path clip-rule="evenodd" d="M10.757 21.155a1.2 1.2 0 011.696 0l3.95 3.95 3.949-3.95a1.2 1.2 0 111.696 1.697l-4.798 4.797a1.2 1.2 0 01-1.696 0l-4.797-4.797a1.2 1.2 0 010-1.697z" />
  <path clip-rule="evenodd" d="M16.402 14.808a1.2 1.2 0 011.2 1.199v10.794a1.2 1.2 0 01-2.399 0V16.007a1.2 1.2 0 011.2-1.2z"/>
  <path clip-rule="evenodd" d="M12.406 4.007a10.794 10.794 0 0110.569 7.203h.622a7.199 7.199 0 016.866 5.022 7.196 7.196 0 01-2.721 8.06 1.2 1.2 0 01-1.38-1.962 4.798 4.798 0 00-2.763-8.722h-1.512a1.2 1.2 0 01-1.162-.9 8.395 8.395 0 10-14.418 7.65 1.2 1.2 0 01-1.796 1.589 10.794 10.794 0 017.695-17.94z"/>
</svg>
