<svg xmlns="http://www.w3.org/2000/svg"  viewBox="0 0 32 32">
    <path fill-rule="evenodd" d="M15.1598 5.13777c.4649-.45007 1.203-.4504 1.6684-.00074l6.3672 6.15227c1.43 1.3809 2.4092 3.1459 2.8065 5.0736.3975 1.9281.1937 3.9263-.5834 5.7401-.777 1.8132-2.0901 3.3564-3.7668 4.4391C19.9754 27.6246 18.0087 28.2 16 28.2s-3.9754-.5754-5.6517-1.6579c-1.67673-1.0827-2.98984-2.6259-3.76679-4.4391-.77716-1.8138-.98087-3.812-.58344-5.7401.39731-1.9275 1.37609-3.6921 2.8058-5.0729l6.35593-6.15223zm.8353 2.53161l-5.5234 5.34642c-1.08845 1.051-1.82492 2.3853-2.12304 3.8316-.29806 1.446-.146 2.9454.43887 4.3103.58509 1.3655 1.57907 2.5394 2.86267 3.3682C12.9343 25.3551 14.4481 25.8 16 25.8c1.5519 0 3.0657-.4449 4.3498-1.2741 1.2836-.8288 2.2776-2.0027 2.8627-3.3682.5848-1.3649.7369-2.8643.4388-4.3103-.2981-1.4463-1.0346-2.7806-2.123-3.8316l-5.5332-5.34642z" clip-rule="evenodd"/>
    <path d="M16 7l8 7 .5 6-3.5 6H10l-3-9 3.5-5L16 7z"/>
</svg>
