<svg viewBox="0 0 32 32" xmlns="http://www.w3.org/2000/svg">
<path d="M18.0909 6.63369L7.18182 17.5428V20.3636H10.0027L20.9118 9.45455L18.0909 6.63369ZM18.8623 4.31952L23.2259 8.68316C23.652 9.10918 23.652 9.79991 23.2259 10.2259L11.2259 22.2259C11.0213 22.4305 10.7439 22.5455 10.4545 22.5455H6.09091C5.48842 22.5455 5 22.057 5 21.4545V17.0909C5 16.8016 5.11493 16.5241 5.31952 16.3195L17.3195 4.31952C17.7455 3.89349 18.4363 3.89349 18.8623 4.31952ZM6.09091 28C5.48842 28 5 27.5116 5 26.9091C5 26.3066 5.48842 25.8182 6.09091 25.8182H25.7273C26.3298 25.8182 26.8182 26.3066 26.8182 26.9091C26.8182 27.5116 26.3298 28 25.7273 28H6.09091Z">
</svg>
