<svg viewBox="0 0 25 24" xmlns="http://www.w3.org/2000/svg">
<path d="M10.53 5.34711H14.1442C14.4377 5.34711 14.6757 5.58509 14.6757 5.87861C14.6757 6.17212 14.4377 6.4101 14.1442 6.4101H10.53C10.2365 6.4101 9.99855 6.17212 9.99855 5.87861C9.99855 5.58509 10.2365 5.34711 10.53 5.34711Z" />
<path fill-rule="evenodd" clip-rule="evenodd" d="M4.25 3.68149C4.25 3.30513 4.55513 3 4.93149 3H19.7425C20.1189 3 20.424 3.30514 20.424 3.68149V20.6185C20.424 20.9949 20.1189 21.3 19.7425 21.3H4.93149C4.55513 21.3 4.25 20.9949 4.25 20.6185V3.68149ZM19.061 19.937V4.36298H5.61298V19.9371H7.30212V8.07539C7.30212 7.69903 7.60725 7.3939 7.98362 7.3939H16.6904C17.0668 7.3939 17.3719 7.69903 17.3719 8.07539V19.937H19.061ZM8.66511 8.75688V19.937H11.6556V8.75688H8.66511ZM13.0186 8.75688V19.937H16.0089V8.75688H13.0186Z" />
</svg>
