<svg xmlns="http://www.w3.org/2000/svg" viewBox="0 0 32 32"><path d="M25.4 6.1c.2.1.4.3.5.5.1.1.1.3.1.4v6c0 .6-.4 1-1 1s-1-.4-1-1V9.4l-9.3 9.3c-.4.4-1 .4-1.4 0-.4-.4-.4-1 0-1.4L22.6 8H19c-.6 0-1-.4-1-1s.4-1 1-1h6c.1 0 .3 0 .4.1z"/><path d="M21 17c0-.6.4-1 1-1s1 .4 1 1v6c0 .8-.3 1.5-.9 2.1-.5.6-1.3.9-2.1.9H9c-.8 0-1.6-.3-2.1-.9-.6-.5-.9-1.3-.9-2.1V12c0-.8.4-1.5.9-2.1C7.4 9.3 8.2 9 9 9h6c.6 0 1 .4 1 1s-.4 1-1 1H9c-.3 0-.5.1-.7.3-.2.2-.3.4-.3.7v11c0 .3.1.5.3.7.2.2.4.3.7.3h11c.3 0 .5-.1.7-.3.2-.2.3-.4.3-.7v-6z"/></svg>