<svg viewBox="0 0 25 24" xmlns="http://www.w3.org/2000/svg">
<path d="M12.5 5.72346C12.8888 5.72346 13.2039 5.40835 13.2039 5.01955V2.20391C13.2039 1.81512 12.8888 1.5 12.5 1.5C12.1112 1.5 11.7961 1.81512 11.7961 2.20391V5.01955C11.7961 5.40835 12.1112 5.72346 12.5 5.72346Z" />
<path d="M11.7961 18.9804V21.7961C11.7961 22.1849 12.1112 22.5 12.5 22.5C12.8888 22.5 13.2039 22.1849 13.2039 21.7961V18.9804C13.2039 18.5916 12.8888 18.2765 12.5 18.2765C12.1112 18.2765 11.7961 18.5916 11.7961 18.9804Z" />
<path d="M22.2961 11.2961H19.4805C19.0917 11.2961 18.7766 11.6112 18.7766 12C18.7766 12.3888 19.0917 12.7039 19.4805 12.7039H22.2961C22.6849 12.7039 23 12.3888 23 12C23 11.6112 22.6849 11.2961 22.2961 11.2961Z" />
<path d="M6.22346 12C6.22346 11.6112 5.90835 11.2961 5.51955 11.2961H2.70391C2.31512 11.2961 2 11.6112 2 12C2 12.3888 2.31512 12.7039 2.70391 12.7039H5.51955C5.90835 12.7039 6.22346 12.3888 6.22346 12Z" />
<path d="M17.4361 7.76786C17.6163 7.76786 17.7965 7.69911 17.9338 7.56162L19.9247 5.57072C20.1996 5.29596 20.1996 4.85015 19.9247 4.57539C19.6499 4.3004 19.2041 4.3004 18.9293 4.57539L16.9384 6.56629C16.6634 6.84105 16.6634 7.28686 16.9384 7.56162C17.0757 7.69911 17.2559 7.76786 17.4361 7.76786Z" />
<path d="M7.06629 16.4384L5.07539 18.4291C4.8004 18.7038 4.8004 19.1496 5.07539 19.4244C5.21265 19.5619 5.39309 19.6306 5.57306 19.6306C5.75302 19.6306 5.93346 19.5619 6.07072 19.4244L8.06161 17.4335C8.33661 17.1587 8.33661 16.7129 8.06161 16.4382C7.78709 16.1634 7.34104 16.1634 7.06629 16.4384Z" />
<path d="M16.9384 16.4384C16.6634 16.7131 16.6634 17.159 16.9384 17.4337L18.9293 19.4246C19.0666 19.5621 19.247 19.6309 19.427 19.6309C19.607 19.6309 19.7874 19.5621 19.9247 19.4246C20.1996 19.1498 20.1996 18.704 19.9247 18.4293L17.9338 16.4384C17.659 16.1634 17.2129 16.1634 16.9384 16.4384Z" />
<path d="M7.06629 7.56162C7.20355 7.69911 7.38398 7.76786 7.56395 7.76786C7.74392 7.76786 7.92435 7.69911 8.06161 7.56162C8.33661 7.28686 8.33661 6.84105 8.06161 6.56629L6.07072 4.57539C5.79596 4.3004 5.35015 4.3004 5.07539 4.57539C4.8004 4.85015 4.8004 5.29596 5.07539 5.57072L7.06629 7.56162Z" />
<path d="M12.4707 6.63267C9.51118 6.63267 7.10334 9.04051 7.10334 12C7.10334 14.9595 9.51118 17.3673 12.4707 17.3673C15.4301 17.3673 17.838 14.9595 17.838 12C17.838 9.04051 15.4301 6.63267 12.4707 6.63267ZM12.4707 15.8408C10.3528 15.8408 8.62989 14.1178 8.62989 12C8.62989 9.88216 10.3528 8.15922 12.4707 8.15922C14.5885 8.15922 16.3114 9.88216 16.3114 12C16.3114 14.1178 14.5885 15.8408 12.4707 15.8408Z" />
</svg>
