<svg xmlns="http://www.w3.org/2000/svg" viewBox="0 0 32 32">
    <path fill-rule="evenodd" d="M5.70711 4.29289c-.39053-.39052-1.02369-.39052-1.41422 0-.39052.39053-.39052 1.02369 0 1.41422l4.2756 4.27559c-1.80879 1.557-3.31813 3.4358-4.44965 5.5445-.15363.2863-.15858.6294-.01327.92-.01737-.0322.16179.304.2084.3868.39482.7019 1.34734 2.2669 2.83149 3.85C9.10448 22.7736 12.1005 25 16 25l.0163-.0001c2.0685-.0338 4.0799-.6463 5.8098-1.7596l4.4668 4.4668c.3905.3905 1.0237.3905 1.4142 0 .3905-.3905.3905-1.0237 0-1.4142l-5.06-5.06-3.816-3.816-.0071-.0071-4.2339-4.2339-.0069-.0069-3.8161-3.81608-5.05999-5.06003zM20.3714 21.7856l-2.3217-2.3216c-.6118.3835-1.3287.5974-2.054.6102-1.0741.019-2.1393-.4112-2.899-1.1709-.7596-.7597-1.1899-1.8248-1.1709-2.899.0128-.7253.2267-1.4422.6102-2.054l-2.5489-2.549c-1.53679 1.3001-2.83775 2.8569-3.84453 4.6019.10908.1884.25335.4279.43184.7043.46102.7138 1.14376 1.6631 2.03013 2.6086C10.3939 21.2248 12.8951 22.9969 15.9918 23c1.5455-.0266 3.0519-.4476 4.3796-1.2144zm-6.3435-6.3435c-.0642.1925-.0988.3939-.1024.5975-.0095.5371.2056 1.0696.5855 1.4495.3798.3798.9124.5949 1.4494.5854.2036-.0035.4051-.0382.5975-.1024l-2.53-2.53zm10.7247 2.2456l-8.6794-8.68735c3.0667.02764 5.5454 1.78825 7.3223 3.68365.8863.9454 1.5691 1.8947 2.0301 2.6085.1788.2769.3232.5168.4324.7053-.3357.5842-.7048 1.1484-1.1054 1.6899zm3.1293-1.2163c.1529-.286.1576-.6285.0125-.9186-.2328-.4641-.5074-.9096-.7887-1.3453-.5078-.7862-1.2625-1.8369-2.2512-2.8914-1.9588-2.08943-4.9544-4.31564-8.8533-4.31607-.7841-.00175-1.5657.08762-2.3291.26631-.3533.08271-.6341.35034-.7337.69929-.0996.34895-.0023.72446.2542.98118l10.94 10.94999c.198.1982.4701.3043.7501.2923.28-.012.542-.1408.7225-.3552.8738-1.0386 1.6369-2.1655 2.2767-3.3625z" clip-rule="evenodd"/>
</svg>
