<svg viewBox="0 0 32 32" xmlns="http://www.w3.org/2000/svg">
<path clip-rule="evenodd" d="M4.89434 14.2075C4.50997 14.8026 4.24614 15.2717 4.10557 15.5528C3.96481 15.8343 3.96481 16.1657 4.10557 16.4472C4.24614 16.7283 4.50997 17.1974 4.89434 17.7925C5.5305 18.7776 6.28113 19.762 7.14546 20.6839C9.66131 23.3675 12.6202 25 16 25C19.3798 25 22.3387 23.3675 24.8545 20.6839C25.7189 19.762 26.4695 18.7776 27.1057 17.7925C27.49 17.1974 27.7539 16.7283 27.8944 16.4472C28.0352 16.1657 28.0352 15.8343 27.8944 15.5528C27.7539 15.2717 27.49 14.8026 27.1057 14.2075C26.4695 13.2224 25.7189 12.238 24.8545 11.3161C22.3387 8.63249 19.3798 7 16 7C12.6202 7 9.66131 8.63249 7.14546 11.3161C6.28113 12.238 5.5305 13.2224 4.89434 14.2075ZM8.60454 19.3161C7.82825 18.488 7.14919 17.5974 6.57441 16.7075C6.41128 16.4549 6.26659 16.2176 6.14071 16C6.26659 15.7824 6.41128 15.5451 6.57441 15.2925C7.14919 14.4026 7.82825 13.512 8.60454 12.6839C10.7762 10.3675 13.2548 9 16 9C18.7452 9 21.2238 10.3675 23.3955 12.6839C24.1718 13.512 24.8508 14.4026 25.4256 15.2925C25.5887 15.5451 25.7334 15.7824 25.8593 16C25.7334 16.2176 25.5887 16.4549 25.4256 16.7075C24.8508 17.5974 24.1718 18.488 23.3955 19.3161C21.2238 21.6325 18.7452 23 16 23C13.2548 23 10.7762 21.6325 8.60454 19.3161ZM12 16C12 18.2091 13.7909 20 16 20C18.2091 20 20 18.2091 20 16C20 13.7909 18.2091 12 16 12C13.7909 12 12 13.7909 12 16ZM18 16C18 17.1046 17.1046 18 16 18C14.8954 18 14 17.1046 14 16C14 14.8954 14.8954 14 16 14C17.1046 14 18 14.8954 18 16Z">
</svg>
