<svg xmlns="http://www.w3.org/2000/svg" viewBox="0 0 18 19">
    <path fill-rule="evenodd"
        d="M3.037 2.15c-.413 0-.785.25-.947.637l-.882 2.1a1.068 1.068 0 0 0 .254 1.19 2.243 2.243 0 0 0 .994 2.302V15.8H1.94a.52.52 0 0 0-.515.525c0 .29.23.525.515.525H16.36a.52.52 0 0 0 .515-.525.52.52 0 0 0-.515-.525h-.515V8.191a2.247 2.247 0 0 0 .734-2.154 1.068 1.068 0 0 0 .174-1.233l-1.104-2.1a1.027 1.027 0 0 0-.908-.554H3.037Zm12.549 4.2h-2.308a1.173 1.173 0 0 0 1.154 1.318 1.173 1.173 0 0 0 1.154-1.318Zm-3.605 0H9.673a1.173 1.173 0 0 0 1.154 1.318A1.173 1.173 0 0 0 11.98 6.35Zm-3.605 0H6.068a1.173 1.173 0 0 0 1.154 1.318A1.173 1.173 0 0 0 8.376 6.35Zm-3.605 0H2.463a1.173 1.173 0 0 0 1.154 1.318A1.173 1.173 0 0 0 4.771 6.35ZM2.155 5.3h13.69l-1.104-2.1H3.037l-.882 2.1Zm12.277 3.418c.13 0 .259-.011.383-.034V15.8h-3.09v-4.725c0-.58-.46-1.05-1.03-1.05h-3.09c-.273 0-.535.11-.728.308a1.06 1.06 0 0 0-.301.742V15.8h-3.09V8.714a2.177 2.177 0 0 0 1.934-.96 2.177 2.177 0 0 0 1.802.964c.747 0 1.407-.38 1.802-.963a2.177 2.177 0 0 0 1.803.963c.747 0 1.407-.38 1.802-.963a2.177 2.177 0 0 0 1.803.963ZM7.606 15.8h3.09v-4.725h-3.09V15.8Z"
        clip-rule="evenodd" />
</svg>