<svg viewBox="0 0 32 32" xmlns="http://www.w3.org/2000/svg">
<path clip-rule="evenodd" d="M18 4C18.6025 4 19.0909 4.48842 19.0909 5.09091V10.5455H24.5455C25.1479 10.5455 25.6364 11.0339 25.6364 11.6364C25.6364 12.2389 25.1479 12.7273 24.5455 12.7273H18C17.3975 12.7273 16.9091 12.2389 16.9091 11.6364V5.09091C16.9091 4.48842 17.3975 4 18 4Z" />
<path d="M10.3636 17.0909C10.3636 16.4884 10.8521 16 11.4545 16H13.6364C14.2389 16 14.7273 16.4884 14.7273 17.0909C14.7273 17.6934 14.2389 18.1818 13.6364 18.1818H11.4545C10.8521 18.1818 10.3636 17.6934 10.3636 17.0909Z"/>
<path d="M10.3636 21.4545C10.3636 20.8521 10.8521 20.3636 11.4545 20.3636H20.1818C20.7843 20.3636 21.2727 20.8521 21.2727 21.4545C21.2727 22.057 20.7843 22.5455 20.1818 22.5455H11.4545C10.8521 22.5455 10.3636 22.057 10.3636 21.4545Z"/>
<path clip-rule="evenodd" d="M9.27273 4C8.40475 4 7.57232 4.3448 6.95856 4.95856C6.3448 5.57232 6 6.40475 6 7.27273V24.7273C6 25.5953 6.3448 26.4277 6.95856 27.0414C7.57231 27.6552 8.40475 28 9.27273 28H22.3636C23.2316 28 24.0641 27.6552 24.6778 27.0414C25.2916 26.4277 25.6364 25.5953 25.6364 24.7273V11.6364C25.6364 11.347 25.5214 11.0696 25.3168 10.865L18.7714 4.31952C18.5668 4.11493 18.2893 4 18 4H9.27273ZM8.50134 6.50134C8.70592 6.29675 8.9834 6.18182 9.27273 6.18182H17.5481L23.4545 12.0882V24.7273C23.4545 25.0166 23.3396 25.2941 23.135 25.4987C22.9304 25.7032 22.653 25.8182 22.3636 25.8182H9.27273C8.9834 25.8182 8.70592 25.7032 8.50134 25.4987C8.29675 25.2941 8.18182 25.0166 8.18182 24.7273V7.27273C8.18182 6.9834 8.29675 6.70592 8.50134 6.50134Z" />
</svg>
