<svg viewBox="0 0 32 32" xmlns="http://www.w3.org/2000/svg">
<path clip-rule="evenodd" d="M3.09288 4.57912C3.25674 4.22596 3.61067 4 4 4H28C28.3893 4 28.7433 4.22596 28.9071 4.57912C29.071 4.93229 29.015 5.34845 28.7636 5.64573L19.4 16.7181V26.6C19.4 26.9466 19.2205 27.2684 18.9257 27.4507C18.6309 27.6329 18.2628 27.6494 17.9528 27.4944L13.1528 25.0944C12.814 24.925 12.6 24.5788 12.6 24.2V16.7181L3.23643 5.64573C2.98503 5.34845 2.92902 4.93229 3.09288 4.57912ZM6.1553 6L14.3636 15.7063C14.5162 15.8868 14.6 16.1156 14.6 16.352V23.582L17.4 24.982V16.352C17.4 16.1156 17.4838 15.8868 17.6364 15.7063L25.8447 6H6.1553Z">
</svg>
