<svg viewBox="0 0 32 32" xmlns="http://www.w3.org/2000/svg">
<path clip-rule="evenodd" d="M7.27273 7.18182C6.9834 7.18182 6.70592 7.29675 6.50134 7.50134C6.29675 7.70592 6.18182 7.9834 6.18182 8.27273V23.5455C6.18182 23.8348 6.29675 24.1123 6.50134 24.3168C6.70592 24.5214 6.9834 24.6364 7.27273 24.6364H24.7273C25.0166 24.6364 25.2941 24.5214 25.4987 24.3168C25.7032 24.1123 25.8182 23.8348 25.8182 23.5455V11.5455C25.8182 11.2561 25.7032 10.9787 25.4987 10.7741C25.2941 10.5695 25.0166 10.4545 24.7273 10.4545H14.9091C14.5443 10.4545 14.2037 10.2723 14.0014 9.96876L12.1434 7.18182H7.27273ZM4.95856 5.95856C5.57232 5.3448 6.40475 5 7.27273 5H12.7273C13.092 5 13.4326 5.18229 13.635 5.48578L15.4929 8.27273H24.7273C25.5953 8.27273 26.4277 8.61753 27.0414 9.23129C27.6552 9.84504 28 10.6775 28 11.5455V23.5455C28 24.4134 27.6552 25.2459 27.0414 25.8596C26.4277 26.4734 25.5953 26.8182 24.7273 26.8182H7.27273C6.40475 26.8182 5.57231 26.4734 4.95856 25.8596C4.3448 25.2459 4 24.4134 4 23.5455V8.27273C4 7.40475 4.3448 6.57231 4.95856 5.95856Z">
</svg>
