<svg xmlns="http://www.w3.org/2000/svg" viewBox="0 0 32 32">
    <path fill-rule="evenodd" d="M16.0033 27C22.0769 26.9982 27 22.074 27 16c0-6.07513-4.9249-11-11-11C9.92487 5 5 9.92487 5 16c0 6.0732 4.92174 10.9969 10.9942 11h.0091zM13.7257 7.28982C10.1688 8.21596 7.46801 11.2632 7.05493 15h3.99517c.2242-2.7632 1.149-5.41558 2.6756-7.71018zm4.5486 0C19.8009 9.58442 20.7257 12.2368 20.9499 15h3.9952c-.4131-3.7368-3.1139-6.78404-6.6708-7.71018zM18.9424 15C18.6912 12.2868 17.6697 9.70194 16 7.55081 14.3303 9.70194 13.3088 12.2868 13.0576 15h5.8848zm-5.8848 2h5.8848c-.2512 2.7132-1.2727 5.2981-2.9424 7.4492-1.6697-2.1511-2.6912-4.736-2.9424-7.4492zm-2.0075 0H7.05493c.41308 3.7368 3.11387 6.784 6.67077 7.7102-1.5266-2.2946-2.4514-4.947-2.6756-7.7102zm7.2242 7.7102c1.5266-2.2946 2.4514-4.947 2.6756-7.7102h3.9952c-.4131 3.7368-3.1139 6.784-6.6708 7.7102z" clip-rule="evenodd"/>
</svg>
