<svg viewBox="0 0 32 32" xmlns="http://www.w3.org/2000/svg">
<path clip-rule="evenodd" d="M7 6C6.44772 6 6 6.44772 6 7V14C6 14.5523 6.44772 15 7 15H14C14.5523 15 15 14.5523 15 14V7C15 6.44772 14.5523 6 14 6H7ZM8 13V8H13V13H8ZM18 6C17.4477 6 17 6.44772 17 7V14C17 14.5523 17.4477 15 18 15H25C25.5523 15 26 14.5523 26 14V7C26 6.44772 25.5523 6 25 6H18ZM19 13V8H24V13H19ZM17 18C17 17.4477 17.4477 17 18 17H25C25.5523 17 26 17.4477 26 18V25C26 25.5523 25.5523 26 25 26H18C17.4477 26 17 25.5523 17 25V18ZM19 19V24H24V19H19ZM7 17C6.44772 17 6 17.4477 6 18V25C6 25.5523 6.44772 26 7 26H14C14.5523 26 15 25.5523 15 25V18C15 17.4477 14.5523 17 14 17H7ZM8 24V19H13V24H8Z">
</svg>
