<svg xmlns="http://www.w3.org/2000/svg" viewBox="0 0 18 19">
  <path fill-rule="evenodd" d="M5.386 2.298a2.342 2.342 0 0 1 1.645-.673c.617 0 1.21.242 1.645.673.437.43.682 1.015.682 1.624v7.06a3.61 3.61 0 0 1 1.116 1.568c.264.73.284 1.523.056 2.264a3.61 3.61 0 0 1-1.32 1.85c-.63.462-1.394.711-2.179.711a3.688 3.688 0 0 1-2.178-.71 3.61 3.61 0 0 1-1.32-1.851 3.565 3.565 0 0 1 .056-2.264 3.61 3.61 0 0 1 1.116-1.568v-7.06c0-.61.245-1.193.681-1.624Zm1.645.64c-.264 0-.518.103-.705.288a.978.978 0 0 0-.292.696v7.389c0 .219-.11.424-.295.545-.415.274-.73.672-.898 1.136-.169.464-.181.97-.036 1.44.145.472.44.885.84 1.179a2.347 2.347 0 0 0 2.772 0c.401-.294.696-.707.84-1.178a2.268 2.268 0 0 0-.035-1.44 2.301 2.301 0 0 0-.898-1.137.654.654 0 0 1-.296-.545V3.92a.978.978 0 0 0-.292-.695 1.004 1.004 0 0 0-.705-.288ZM10.125 3.875c0-.31.252-.562.563-.562h3.656a.562.562 0 0 1 0 1.125h-3.656a.562.562 0 0 1-.563-.563ZM10.125 6.125c0-.31.252-.562.563-.562h2.25a.562.562 0 1 1 0 1.125h-2.25a.562.562 0 0 1-.563-.563ZM10.125 8.375c0-.31.252-.562.563-.562h1.124a.562.562 0 1 1 0 1.125h-1.124a.562.562 0 0 1-.563-.563Z" clip-rule="evenodd"/>
  <circle cx="7.031" cy="13.719" r="1.406"/>
  <path fill-rule="evenodd" d="M7.031 6.125c.31 0 .563.252.563.563v5.625a.563.563 0 0 1-1.125 0V6.688c0-.311.252-.563.562-.563Z" clip-rule="evenodd"/>
</svg>