<svg viewBox="0 0 32 32" xmlns="http://www.w3.org/2000/svg">
<path clip-rule="evenodd" d="M16 6.18182C10.5776 6.18182 6.18182 10.5776 6.18182 16C6.18182 21.4224 10.5776 25.8182 16 25.8182C21.4224 25.8182 25.8182 21.4224 25.8182 16C25.8182 10.5776 21.4224 6.18182 16 6.18182ZM4 16C4 9.37258 9.37258 4 16 4C22.6274 4 28 9.37258 28 16C28 22.6274 22.6274 28 16 28C9.37258 28 4 22.6274 4 16ZM16 14.9091C16.6025 14.9091 17.0909 15.3975 17.0909 16V20.3636C17.0909 20.9661 16.6025 21.4545 16 21.4545C15.3975 21.4545 14.9091 20.9661 14.9091 20.3636V16C14.9091 15.3975 15.3975 14.9091 16 14.9091ZM15.9946 10.5455C15.3951 10.5455 14.9091 11.0339 14.9091 11.6364C14.9091 12.2389 15.3951 12.7273 15.9946 12.7273H16.0054C16.6049 12.7273 17.0909 12.2389 17.0909 11.6364C17.0909 11.0339 16.6049 10.5455 16.0054 10.5455H15.9946Z">
</svg>
