<svg xmlns="http://www.w3.org/2000/svg" viewBox="0 0 18 19">
    <path fill-rule="evenodd"
        d="M11.398 3.598c0-.476.386-.862.861-.862h.92c.475 0 .86.386.86.862v1.25l1.085.965a.862.862 0 0 1 .288.644v.183a.861.861 0 0 1-.861.862h-3.665a.861.861 0 0 1-.861-.862v-.183c0-.246.105-.48.289-.644l1.084-.964V3.598Zm1.012.15v1.169c0 .245-.105.48-.289.643l-1.044.93h3.283l-1.044-.93a.862.862 0 0 1-.289-.643V3.749h-.617ZM10.094 13.125c0-.31.252-.562.562-.562h3.688c.31 0 .562.252.562.562v1.938c0 .31-.252.562-.562.562h-3.688a.563.563 0 0 1-.562-.562v-1.938Zm1.012 1.488v-1.038h2.788v1.038h-2.788Z"
        clip-rule="evenodd" />
    <path fill-rule="evenodd"
        d="M9.219 3.805V9.5h6.875c.31 0 .562.252.562.563v6.75c0 .31-.252.562-.562.562H8.906a.56.56 0 0 1-.125-.014.56.56 0 0 1-.125.014h-6.75a.563.563 0 0 1-.562-.562V3.805c0-.31.252-.563.562-.563h6.75c.31 0 .563.252.563.563Zm.137 6.708v5.85h6.288v-5.85H9.356Zm-7-2.446v8.296h5.85V8.067h-5.85Zm0-1.013v-2.8h5.85v2.8h-5.85Z"
        clip-rule="evenodd" />
</svg>