<svg viewBox="0 0 32 32" xmlns="http://www.w3.org/2000/svg">
<path clip-rule="evenodd" d="M29.501 6.63457C29.979 6.91129 30.1421 7.52307 29.8654 8.00103L18.8654 27.001C18.6885 27.3066 18.3635 27.4963 18.0104 27.4999C17.6573 27.5036 17.3285 27.3208 17.1452 27.019L9.4127 14.2831L4.3 21.1C3.96863 21.5418 3.34183 21.6314 2.9 21.3C2.45817 20.9686 2.36863 20.3418 2.7 19.9L8.7 11.9C8.89921 11.6344 9.21728 11.485 9.5489 11.5012C9.88053 11.5174 10.1825 11.6972 10.3548 11.981L17.9796 24.5395L28.1346 6.99896C28.4113 6.521 29.0231 6.35786 29.501 6.63457Z">
</svg>
