<svg xmlns="http://www.w3.org/2000/svg" viewBox="0 0 32 32">
    <path fill-rule="evenodd" d="M6.99502 9C6.44549 9 6 9.44772 6 10c0 .5523.44549 1 .99502 1h.00996C7.55451 11 8 10.5523 8 10c0-.55228-.44549-1-.99502-1h-.00996zM12 9c-.5523 0-1 .44772-1 1 0 .5523.4477 1 1 1h13c.5523 0 1-.4477 1-1 0-.55228-.4477-1-1-1H12zm0 6c-.5523 0-1 .4477-1 1s.4477 1 1 1h13c.5523 0 1-.4477 1-1s-.4477-1-1-1H12zm-1 7c0-.5523.4477-1 1-1h13c.5523 0 1 .4477 1 1s-.4477 1-1 1H12c-.5523 0-1-.4477-1-1zm-5-6c0-.5523.44549-1 .99502-1h.00996C7.55451 15 8 15.4477 8 16s-.44549 1-.99502 1h-.00996C6.44549 17 6 16.5523 6 16zm.99502 5C6.44549 21 6 21.4477 6 22s.44549 1 .99502 1h.00996C7.55451 23 8 22.5523 8 22s-.44549-1-.99502-1h-.00996z" clip-rule="evenodd"/>
</svg>
