<svg viewBox="0 0 16 12" xmlns="http://www.w3.org/2000/svg">
  <path clip-rule="evenodd"
    d="M1.24627 0.75C0.834116 0.75 0.5 1.08579 0.5 1.5C0.5 1.91421 0.834116 2.25 1.24627 2.25H1.25373C1.66588 2.25 2 1.91421 2 1.5C2 1.08579 1.66588 0.75 1.25373 0.75H1.24627ZM5 0.75C4.58579 0.75 4.25 1.08579 4.25 1.5C4.25 1.91421 4.58579 2.25 5 2.25H14.75C15.1642 2.25 15.5 1.91421 15.5 1.5C15.5 1.08579 15.1642 0.75 14.75 0.75H5ZM5 5.25C4.58579 5.25 4.25 5.58579 4.25 6C4.25 6.41421 4.58579 6.75 5 6.75H14.75C15.1642 6.75 15.5 6.41421 15.5 6C15.5 5.58579 15.1642 5.25 14.75 5.25H5ZM4.25 10.5C4.25 10.0858 4.58579 9.75 5 9.75H14.75C15.1642 9.75 15.5 10.0858 15.5 10.5C15.5 10.9142 15.1642 11.25 14.75 11.25H5C4.58579 11.25 4.25 10.9142 4.25 10.5ZM0.5 6C0.5 5.58579 0.834116 5.25 1.24627 5.25H1.25373C1.66588 5.25 2 5.58579 2 6C2 6.41421 1.66588 6.75 1.25373 6.75H1.24627C0.834116 6.75 0.5 6.41421 0.5 6ZM1.24627 9.75C0.834116 9.75 0.5 10.0858 0.5 10.5C0.5 10.9142 0.834116 11.25 1.24627 11.25H1.25373C1.66588 11.25 2 10.9142 2 10.5C2 10.0858 1.66588 9.75 1.25373 9.75H1.24627Z"
     />
</svg>