<svg xmlns="http://www.w3.org/2000/svg" viewBox="0 0 32 32"><path d="M16 1.66667C16.5523 1.66667 17 2.11438 17 2.66667V8C17 8.55228 16.5523 9 16 9C15.4477 9 15 8.55228 15 8V2.66667C15 2.11438 15.4477 1.66667 16 1.66667Z"/><path d="M16 23C16.5523 23 17 23.4477 17 24V29.3333C17 29.8856 16.5523 30.3333 16 30.3333C15.4477 30.3333 15 29.8856 15 29.3333V24C15 23.4477 15.4477 23 16 23Z"/><path d="M5.86621 5.86623C6.25674 5.4757 6.8899 5.4757 7.28043 5.86623L11.0538 9.63956C11.4443 10.0301 11.4443 10.6632 11.0538 11.0538C10.6632 11.4443 10.0301 11.4443 9.63955 11.0538L5.86621 7.28044C5.47569 6.88992 5.47569 6.25675 5.86621 5.86623Z"/><path d="M20.9462 20.9462C21.3367 20.5557 21.9699 20.5557 22.3604 20.9462L26.1338 24.7196C26.5243 25.1101 26.5243 25.7432 26.1338 26.1338C25.7432 26.5243 25.1101 26.5243 24.7195 26.1338L20.9462 22.3604C20.5557 21.9699 20.5557 21.3368 20.9462 20.9462Z"/><path d="M1.66666 16C1.66666 15.4477 2.11437 15 2.66666 15H7.99999C8.55227 15 8.99999 15.4477 8.99999 16C8.99999 16.5523 8.55227 17 7.99999 17H2.66666C2.11437 17 1.66666 16.5523 1.66666 16Z"/><path d="M23 16C23 15.4477 23.4477 15 24 15H29.3333C29.8856 15 30.3333 15.4477 30.3333 16C30.3333 16.5523 29.8856 17 29.3333 17H24C23.4477 17 23 16.5523 23 16Z"/><path d="M11.0538 20.9462C11.4443 21.3368 11.4443 21.9699 11.0538 22.3604L7.28043 26.1338C6.8899 26.5243 6.25674 26.5243 5.86621 26.1338C5.47569 25.7432 5.47569 25.1101 5.86621 24.7196L9.63955 20.9462C10.0301 20.5557 10.6632 20.5557 11.0538 20.9462Z"/><path d="M26.1338 5.86623C26.5243 6.25675 26.5243 6.88992 26.1338 7.28044L22.3604 11.0538C21.9699 11.4443 21.3367 11.4443 20.9462 11.0538C20.5557 10.6633 20.5557 10.0301 20.9462 9.63956L24.7195 5.86623C25.1101 5.4757 25.7432 5.4757 26.1338 5.86623Z"/></svg>
