<svg viewBox="0 0 18 19" xmlns="http://www.w3.org/2000/svg">
<path d="M16.5902 8.97363H10.7112C10.3502 8.97363 10.058 9.26612 10.058 9.62685C10.058 9.98758 10.3502 10.2801 10.7112 10.2801H15.937V14.8526H15.7553C15.5286 14.464 15.1119 14.1994 14.6305 14.1994C14.1492 14.1994 13.7325 14.464 13.5058 14.8526H10.7112V11.5865C10.7112 11.2258 10.419 10.9333 10.058 10.9333H7.44512C7.22699 10.9333 7.02287 11.0424 6.90156 11.2242L5.59512 13.1838C5.52382 13.291 5.48547 13.4173 5.48547 13.5462V15.5058C5.48547 15.8666 5.77767 16.1591 6.13869 16.1591H6.97358C7.20032 16.5476 7.61703 16.8123 8.09836 16.8123C8.57969 16.8123 8.9964 16.5476 9.22313 16.1591H13.506C13.7326 16.5476 14.1493 16.8123 14.6306 16.8123C15.112 16.8123 15.5287 16.5476 15.7554 16.1591H16.5903C16.9513 16.1591 17.2435 15.8666 17.2435 15.5058V9.62685C17.2435 9.26612 16.9513 8.97363 16.5903 8.97363H16.5902ZM9.40479 14.8526H9.22311C8.99638 14.464 8.57967 14.1994 8.09834 14.1994C7.61701 14.1994 7.20029 14.464 6.97357 14.8526H6.79189V13.7439L7.79475 12.2397H9.40477L9.40479 14.8526Z"/>
<path fill-rule="evenodd" clip-rule="evenodd" d="M8.30529 1.67308C8.47294 1.60897 8.6567 1.60898 8.82436 1.67308C10.8606 2.45621 11.8434 2.83427 12.9089 3.2441C13.742 3.56455 14.6258 3.9045 16.1035 4.47289C16.4756 4.61645 16.6624 5.03477 16.5189 5.40759C16.408 5.69491 16.1339 5.87151 15.8437 5.87151C15.718 5.87151 15.6005 5.83678 15.4997 5.79879C15.482 5.79211 15.4644 5.78508 15.4471 5.77806V7.59739C15.4471 7.99674 15.1236 8.32063 14.7239 8.32063C14.3242 8.32063 14.0007 7.99674 14.0007 7.59739V5.21398L8.56489 3.12322L3.1291 5.21398V12.8932C3.1291 13.2926 2.80557 13.6164 2.40589 13.6164C2.0062 13.6164 1.68267 13.2926 1.68267 12.8932V5.77056L1.54591 5.82319L1.54513 5.82351C1.17268 5.96457 0.754462 5.78082 0.610862 5.40759C0.467402 5.03486 0.654049 4.61662 1.02605 4.47304C2.37323 3.9549 3.49249 3.52436 4.56147 3.11317C5.78587 2.6422 6.94486 2.1963 8.30529 1.67308Z"/>
</svg>
