<svg xmlns="http://www.w3.org/2000/svg" viewBox="0 0 32 32">
  <path fill-rule="evenodd" clip-rule="evenodd" d="M15 .667a1 1 0 011 1V7a1 1 0 11-2 0V1.667a1 1 0 011-1zM15 22a1 1 0 011 1v5.333a1 1 0 11-2 0V23a1 1 0 011-1zM4.866 4.866a1 1 0 011.414 0l3.774 3.774a1 1 0 01-1.414 1.414L4.866 6.28a1 1 0 010-1.414zM19.946 19.946a1 1 0 011.414 0l3.774 3.774a1 1 0 01-1.415 1.414l-3.773-3.774a1 1 0 010-1.414zM.667 15a1 1 0 011-1H7a1 1 0 110 2H1.667a1 1 0 01-1-1zM22 15a1 1 0 011-1h5.333a1 1 0 110 2H23a1 1 0 01-1-1zM10.054 19.946a1 1 0 010 1.414L6.28 25.134a1 1 0 01-1.414-1.414l3.774-3.774a1 1 0 011.414 0zM25.134 4.866a1 1 0 010 1.414l-3.774 3.774a1 1 0 01-1.414-1.414l3.773-3.774a1 1 0 011.415 0z"/>    
</svg>
