<svg xmlns="http://www.w3.org/2000/svg" viewBox="0 0 32 32">
    <path d="M8.3 7.2c-.29174 0-.57153.11589-.77782.32218C7.31589 7.72847 7.2 8.00826 7.2 8.3v15.4c0 .2917.11589.5715.32218.7778.20629.2063.48608.3222.77782.3222h4.4c.6075 0 1.1.4925 1.1 1.1 0 .6075-.4925 1.1-1.1 1.1H8.3c-.87521 0-1.71458-.3477-2.33345-.9665C5.34768 25.4146 5 24.5752 5 23.7V8.3c0-.87521.34768-1.71458.96655-2.33345S7.42479 5 8.3 5h4.4c.6075 0 1.1.49249 1.1 1.1 0 .60751-.4925 1.1-1.1 1.1H8.3zM19.6222 9.72218c.4296-.42957 1.126-.42957 1.5556 0l5.5 5.50002c.4296.4296.4296 1.126 0 1.5556l-5.5 5.5c-.4296.4296-1.126.4296-1.5556 0-.4296-.4296-.4296-1.126 0-1.5556L24.3444 16l-4.7222-4.7222c-.4296-.4296-.4296-1.126 0-1.55562z" clip-rule="evenodd"/>
    <path d="M11.6 16c0-.6075.4925-1.1 1.1-1.1h13.2c.6075 0 1.1.4925 1.1 1.1 0 .6075-.4925 1.1-1.1 1.1H12.7c-.6075 0-1.1-.4925-1.1-1.1z" clip-rule="evenodd"/>
</svg>
