<svg viewBox="0 0 32 32" xmlns="http://www.w3.org/2000/svg">
<path clip-rule="evenodd" d="M10.3431 8.34315C11.8434 6.84285 13.8783 6 16 6C18.1217 6 20.1566 6.84285 21.6569 8.34315C23.1571 9.84344 24 11.8783 24 14C24 17.0981 21.9843 20.1042 19.774 22.4373C18.6894 23.5822 17.6013 24.5195 16.7833 25.1708C16.4789 25.4133 16.213 25.6152 16 25.7726C15.787 25.6152 15.5211 25.4133 15.2167 25.1708C14.3987 24.5195 13.3106 23.5822 12.226 22.4373C10.0157 20.1042 8 17.0981 8 14C8 11.8783 8.84285 9.84344 10.3431 8.34315ZM15.4448 27.8317C15.445 27.8319 15.4453 27.8321 16 27L16.5547 27.8321C16.2188 28.056 15.7807 28.0556 15.4448 27.8317ZM15.4448 27.8317L16 27C16.5547 27.8321 16.5557 27.8314 16.556 27.8312L16.5581 27.8298L16.5648 27.8253L16.5877 27.8098C16.6072 27.7966 16.6349 27.7776 16.6704 27.753C16.7415 27.7038 16.8435 27.6321 16.9722 27.5392C17.2295 27.3534 17.5936 27.0822 18.0292 26.7354C18.8987 26.043 20.0606 25.0428 21.226 23.8127C23.5157 21.3958 26 17.9019 26 14C26 11.3478 24.9464 8.8043 23.0711 6.92893C21.1957 5.05357 18.6522 4 16 4C13.3478 4 10.8043 5.05357 8.92893 6.92893C7.05357 8.8043 6 11.3478 6 14C6 17.9019 8.48426 21.3958 10.774 23.8127C11.9394 25.0428 13.1013 26.043 13.9708 26.7354C14.4064 27.0822 14.7705 27.3534 15.0278 27.5392C15.1565 27.6321 15.2585 27.7038 15.3296 27.753C15.3651 27.7776 15.3928 27.7966 15.4123 27.8098L15.4352 27.8253L15.4419 27.8298L15.4448 27.8317ZM14 14C14 12.8954 14.8954 12 16 12C17.1046 12 18 12.8954 18 14C18 15.1046 17.1046 16 16 16C14.8954 16 14 15.1046 14 14ZM16 10C13.7909 10 12 11.7909 12 14C12 16.2091 13.7909 18 16 18C18.2091 18 20 16.2091 20 14C20 11.7909 18.2091 10 16 10Z">
</svg>
