<svg xmlns="http://www.w3.org/2000/svg" viewBox="0 0 35 42"><path fill-rule="evenodd" stroke-linecap="round" stroke-linejoin="round" d="M16.737 40.717l.004.003c.56.373 1.29.374 1.85 0l-.97.28.972-.281.004-.002.011-.008.038-.026.138-.094a47.523 47.523 0 002.265-1.696 52.386 52.386 0 005.328-4.871c3.816-4.029 7.957-9.852 7.957-16.355a16.667 16.667 0 00-33.334 0c0 6.503 4.14 12.326 7.957 16.355a52.374 52.374 0 007.09 6.21 31.46 31.46 0 00.64.451l.038.026.012.008zm-4.07-23.05a5 5 0 1110 0 5 5 0 01-10 0z" clip-rule="evenodd"/></svg>
