<svg xmlns="http://www.w3.org/2000/svg" viewBox="0 0 32 32">
    <path fill-rule="evenodd" d="M12 5c-.1869 0-.3618.05126-.5114.14048L4.50386 9.13176C4.19229 9.3098 4 9.64114 4 10v16c0 .3565.18976.686.49807.8649.30832.1789.68857.1802.99807.0033l6.53536-3.7344 7.5033 3.7516c.1298.0684.2764.109.4321.1141.011.0003.0221.0005.0331.0005.1869 0 .3618-.0513.5114-.1405l6.9847-3.9913c.3116-.178.5039-.5093.5039-.8682V6c0-.35647-.1898-.68599-.4981-.86491-.3083-.17892-.6885-.18019-.998-.00333l-6.5354 3.73447-7.5033-3.75166C12.3263 5.04141 12.168 5 12 5zm9 19.2768l5-2.8571V7.72318l-5 2.85712v13.6965zM19 10.618l-6-2.99997V21.382l6 3V10.618zm-13-.0377l5-2.85712V21.4197l-5 2.8571V10.5803z" clip-rule="evenodd"/>
</svg>
