<svg xmlns="http://www.w3.org/2000/svg" viewBox="0 0 32 32">
    <path d="M25.9241 6.61722c-.0484-.11708-.1201-.22682-.2149-.3222-.0014-.00142-.0028-.00283-.0042-.00424C25.5242 6.11106 25.2751 6 25 6h-6c-.5523 0-1 .44772-1 1s.4477 1 1 1h3.5858l-5.2929 5.2929c-.3905.3905-.3905 1.0237 0 1.4142.3905.3905 1.0237.3905 1.4142 0L24 9.41421V13c0 .5523.4477 1 1 1s1-.4477 1-1V7.00069 6.997c-.0004-.1345-.0273-.26275-.0759-.37978zM9.41421 24l5.29289-5.2929c.3905-.3905.3905-1.0237 0-1.4142-.3905-.3905-1.0237-.3905-1.4142 0L8 22.5858V19c0-.5523-.44772-1-1-1s-1 .4477-1 1v5.9998c0 .1356.02699.2651.07588.383.04844.1171.12007.2268.2149.3222.00141.0014.00282.0028.00424.0042.19422.1931.44799.29.70198.2908H13c.5523 0 1-.4477 1-1s-.4477-1-1-1H9.41421z"/>
</svg>
