<svg viewBox="0 0 32 32" xmlns="http://www.w3.org/2000/svg">
<path clip-rule="evenodd" d="M25.7071 7.70711L20.4142 13H24C24.5523 13 25 13.4477 25 14C25 14.5523 24.5523 15 24 15H18L17.997 15C17.7421 14.9992 17.4874 14.9016 17.2929 14.7071C17.197 14.6112 17.1247 14.5007 17.0759 14.3828C17.027 14.2649 17 14.1354 17 13.9998V8C17 7.44772 17.4477 7 18 7C18.5523 7 19 7.44772 19 8V11.5858L24.2929 6.29289C24.6834 5.90237 25.3166 5.90237 25.7071 6.29289C26.0976 6.68342 26.0976 7.31658 25.7071 7.70711ZM6.29289 24.2929L11.5858 19H8C7.44772 19 7 18.5523 7 18C7 17.4477 7.44772 17 8 17H14L14.003 17C14.2579 17.0008 14.5126 17.0984 14.7071 17.2929C14.803 17.3888 14.8753 17.4993 14.9241 17.6172C14.973 17.7351 15 17.8646 15 18.0002V24C15 24.5523 14.5523 25 14 25C13.4477 25 13 24.5523 13 24V20.4142L7.70711 25.7071C7.31658 26.0976 6.68342 26.0976 6.29289 25.7071C5.90237 25.3166 5.90237 24.6834 6.29289 24.2929Z">
</svg>
