<svg xmlns="http://www.w3.org/2000/svg" viewBox="0 0 32 32">
    <path d="M8 9.6C8 8.71634 8.71634 8 9.6 8c.8837 0 1.6.71634 1.6 1.6 0 .8837-.7163 1.6-1.6 1.6-.88366 0-1.6-.7163-1.6-1.6zM8 15.8165c0-.8836.71634-1.6 1.6-1.6.8837 0 1.6.7164 1.6 1.6 0 .8837-.7163 1.6-1.6 1.6-.88366 0-1.6-.7163-1.6-1.6zM9.6 20.433c-.88366 0-1.6.7164-1.6 1.6 0 .8837.71634 1.6 1.6 1.6.8837 0 1.6-.7163 1.6-1.6 0-.8836-.7163-1.6-1.6-1.6zM14.4 9.6c0-.88366.7163-1.6 1.6-1.6.8836 0 1.6.71634 1.6 1.6 0 .8837-.7164 1.6-1.6 1.6-.8837 0-1.6-.7163-1.6-1.6zM14.4 15.8165c0-.8836.7163-1.6 1.6-1.6.8836 0 1.6.7164 1.6 1.6 0 .8837-.7164 1.6-1.6 1.6-.8837 0-1.6-.7163-1.6-1.6zM16 20.433c-.8837 0-1.6.7164-1.6 1.6 0 .8837.7163 1.6 1.6 1.6.8836 0 1.6-.7163 1.6-1.6 0-.8836-.7164-1.6-1.6-1.6zM20.8 9.6c0-.88366.7163-1.6 1.6-1.6s1.6.71634 1.6 1.6c0 .8837-.7163 1.6-1.6 1.6s-1.6-.7163-1.6-1.6zM20.8 15.8165c0-.8836.7163-1.6 1.6-1.6s1.6.7164 1.6 1.6c0 .8837-.7163 1.6-1.6 1.6s-1.6-.7163-1.6-1.6zM22.4 20.433c-.8837 0-1.6.7164-1.6 1.6 0 .8837.7163 1.6 1.6 1.6s1.6-.7163 1.6-1.6c0-.8836-.7163-1.6-1.6-1.6z" clip-rule="evenodd"/>
</svg>
