<svg viewBox="0 0 25 24" xmlns="http://www.w3.org/2000/svg">
<path fill-rule="evenodd" clip-rule="evenodd" d="M15.1624 7.12611C15.6153 6.90189 15.7097 6.29675 15.3465 5.94523L13.583 4.23828L10.1563 7.58594V5.7157H6.47512V11.1862L4.25 13.36L5.27736 14.4066L6.47512 13.2338V20.7383H20.9488L20.9416 13.8939C20.9412 13.49 20.6137 13.1627 20.2097 13.1627C19.8051 13.1627 19.4773 13.491 19.4778 13.8956L19.4845 19.2745H16.0616V14.7372H11.1058V19.2745H7.93904V11.8028L13.5918 6.28164L14.329 6.99594C14.5513 7.21127 14.885 7.2634 15.1624 7.12611ZM7.93904 9.75492V7.17967H8.69245V9.0164L7.93904 9.75492ZM12.5697 19.2745V16.2012H14.5976V19.2745H12.5697Z" />
<path d="M17.75 6.75C17.3087 6.75 16.9509 7.10778 16.9509 7.54912V8.72947C16.9509 9.17082 17.3087 9.52859 17.75 9.52859C18.1914 9.52859 18.5492 9.17082 18.5492 8.72947V7.54912C18.5492 7.10778 18.1914 6.75 17.75 6.75Z" />
<path d="M14.7991 9.70088C14.3578 9.70088 14 10.0587 14 10.5C14 10.9413 14.3578 11.2991 14.7991 11.2991H15.9795C16.4208 11.2991 16.7786 10.9413 16.7786 10.5C16.7786 10.0587 16.4208 9.70088 15.9795 9.70088H14.7991Z" />
<path d="M19.5206 9.70088C19.0792 9.70088 18.7214 10.0587 18.7214 10.5C18.7214 10.9413 19.0792 11.2991 19.5206 11.2991H20.7009C21.1423 11.2991 21.5 10.9413 21.5 10.5C21.5 10.0587 21.1423 9.70088 20.7009 9.70088H19.5206Z" />
<path d="M17.75 11.4714C17.3087 11.4714 16.9509 11.8292 16.9509 12.2705V13.4509C16.9509 13.8922 17.3087 14.25 17.75 14.25C18.1914 14.25 18.5492 13.8922 18.5492 13.4509V12.2705C18.5492 11.8292 18.1914 11.4714 17.75 11.4714Z" />
</svg>
