<svg viewBox="0 0 18 19" xmlns="http://www.w3.org/2000/svg">
<path fill-rule="evenodd" clip-rule="evenodd" d="M10.3809 4.4296L14.6532 8.80357H15.3125C15.8648 8.80357 16.3125 9.25129 16.3125 9.80357V15.8125C16.3125 16.3648 15.8648 16.8125 15.3125 16.8125H2.6875C2.13522 16.8125 1.6875 16.3648 1.6875 15.8125V9.80357C1.6875 9.25128 2.13522 8.80357 2.6875 8.80357H3.34684L7.61911 4.4296C7.5233 4.22503 7.46952 3.99608 7.46952 3.75446C7.46952 2.89045 8.15606 2.1875 9.00003 2.1875C9.84399 2.1875 10.5305 2.89042 10.5305 3.75446C10.5305 3.99608 10.4768 4.22503 10.3809 4.4296ZM9 5.32144C8.764 5.32144 8.54037 5.26637 8.34056 5.16829L4.7898 8.80357H13.2102L9.65944 5.16829C9.45963 5.26637 9.236 5.32144 9 5.32144ZM2.70785 15.7679H15.2921V9.84822H2.70785V15.7679ZM5.70736 12.8297V11.3677H6.4971V14.2431H5.86935L4.72726 12.8297V14.2431H3.9375V11.3677H4.55312L5.70736 12.8297ZM8.028 13.1011V13.5547H9.28755V14.2431H7.2382V11.3677H9.25107V12.0562H8.028V12.4611H9.07289V13.1011H8.028ZM13.2039 11.3677L12.5842 13.34L12.3777 12.7406L12.8515 11.3677H12.1266L11.8715 12.2546L11.6204 11.3677H10.8954L11.3611 12.7406L11.1627 13.34L10.539 11.3677H9.68445L10.8104 14.2431H11.4664L11.8715 13.2145L12.2805 14.2431H12.9366L14.0625 11.3677H13.2039Z"/>
</svg>
