<svg xmlns="http://www.w3.org/2000/svg" viewBox="0 0 32 32">
    <path fill-rule="evenodd" d="M18.595 7.49873c.1739-.30013.1866-.68249.0001-1.00405-.2637-.45461-.6423-.83197-1.0977-1.09429C17.042 5.13807 16.5256 5 16.0001 5c-.5256 0-1.0419.13807-1.4974.40039-.4554.26232-.8339.63968-1.0976 1.09429-.1866.32156-.1739.70392.0001 1.00405-.8738.34875-1.6767.87338-2.3549 1.55152C9.73758 10.363 9.00008 12.1435 9.00008 14c0 3.3527-.71707 5.4346-1.3779 6.6461-.33179.6083-.65488 1.0074-.8793 1.2443-.11248.1187-.20086.1974-.25408.2418-.02662.0221-.04448.0358-.05217.0415l-.00286.0021c-.35849.2463-.51713.6967-.39078 1.114.12769.4217.51642.7102.95709.7102H25.0001c.4406 0 .8294-.2885.9571-.7102.1263-.4173-.0323-.8677-.3908-1.114l-.0029-.0021c-.0077-.0057-.0255-.0194-.0521-.0415-.0533-.0444-.1416-.1231-.2541-.2418-.2244-.2369-.5475-.636-.8793-1.2443-.6609-1.2115-1.3779-3.2934-1.3779-6.6461 0-1.8565-.7375-3.637-2.0503-4.94975-.6781-.67814-1.4811-1.20277-2.3548-1.55152zM9.1494 22h13.7014c-.0761-.1247-.1525-.2566-.2286-.3962-.8392-1.5384-1.6221-3.9565-1.6221-7.6038 0-1.3261-.5268-2.5979-1.4645-3.5355-.9377-.93772-2.2094-1.46451-3.5355-1.46451-1.3261 0-2.5979.52679-3.5356 1.46451-.9376.9376-1.4644 2.2094-1.4644 3.5355 0 3.6473-.783 6.0654-1.62213 7.6038-.07609.1396-.15248.2715-.22857.3962z" clip-rule="evenodd"/>
    <path d="M13.7683 25.135c.4777-.2771 1.0897-.1145 1.3668.3632.0879.1516.2141.2773.3659.3648.1518.0874.3239.1334.4991.1334.1752 0 .3473-.046.4991-.1334.1518-.0875.278-.2132.3659-.3648.2771-.4777.889-.6403 1.3667-.3632.4778.2771.6404.889.3633 1.3668-.2637.4546-.6423.8319-1.0977 1.0943-.4554.2623-.9718.4003-1.4973.4003-.5256 0-1.0419-.138-1.4974-.4003-.4554-.2624-.8339-.6397-1.0976-1.0943-.2771-.4778-.1145-1.0897.3632-1.3668z"/>
</svg>
