<svg viewBox="0 0 10 11" xmlns="http://www.w3.org/2000/svg">
<path fill-rule="evenodd" clip-rule="evenodd" d="M4.05522 0.503041C4.32967 0.533536 4.52744 0.780745 4.49694 1.0552L4.2253 3.49998H6.21915L6.50306 0.944767C6.53355 0.670314 6.78076 0.472546 7.05522 0.503041C7.32967 0.533536 7.52744 0.780745 7.49694 1.0552L7.2253 3.49998H9C9.27614 3.49998 9.5 3.72384 9.5 3.99998C9.5 4.27613 9.27614 4.49998 9 4.49998H7.11419L6.89197 6.49998H9C9.27614 6.49998 9.5 6.72384 9.5 6.99998C9.5 7.27613 9.27614 7.49998 9 7.49998H6.78085L6.49694 10.0552C6.46645 10.3297 6.21924 10.5274 5.94478 10.4969C5.67033 10.4664 5.47256 10.2192 5.50306 9.94477L5.7747 7.49998H3.78085L3.49694 10.0552C3.46645 10.3297 3.21924 10.5274 2.94478 10.4969C2.67033 10.4664 2.47256 10.2192 2.50306 9.94477L2.7747 7.49998H1C0.723858 7.49998 0.5 7.27613 0.5 6.99998C0.5 6.72384 0.723858 6.49998 1 6.49998H2.88581L3.10803 4.49998H1C0.723858 4.49998 0.5 4.27613 0.5 3.99998C0.5 3.72384 0.723858 3.49998 1 3.49998H3.21915L3.50306 0.944767C3.53355 0.670314 3.78076 0.472546 4.05522 0.503041ZM4.11419 4.49998L3.89197 6.49998H5.88581L6.10803 4.49998H4.11419Z" />
</svg>
