<svg xmlns="http://www.w3.org/2000/svg" viewBox="0 0 32 32">
    <path fill-rule="evenodd" d="M16 18.2c0 .6627-.597 1.2-1.3333 1.2H5.33333C4.59695 19.4 4 18.8627 4 18.2S4.59695 17 5.33333 17h9.33337C15.403 17 16 17.5373 16 18.2zM20 24.2c0 .6627-.597 1.2-1.3333 1.2H5.33333C4.59695 25.4 4 24.8627 4 24.2S4.59695 23 5.33333 23H18.6667C19.403 23 20 23.5373 20 24.2zM12 12.2c0 .6627-.597 1.2-1.3333 1.2H5.33333C4.59695 13.4 4 12.8627 4 12.2S4.59695 11 5.33333 11h5.33337C11.403 11 12 11.5373 12 12.2z" clip-rule="evenodd"/>
    <path d="M23.1421 20.0182v-9.7277l2.5036 2.4651c.3773.3715.9972.3715 1.3745 0 .3773-.3715.3773-.9818 0-1.3534l-4.1746-4.1103c-.0539-.05307-.1078-.07961-.1617-.13268-.027 0-.027-.02654-.0539-.02654-.027-.02654-.0809-.05307-.1078-.05307-.027 0-.0539-.02654-.0809-.02654-.0269 0-.0539-.02653-.0808-.02653-.0539 0-.1348-.02654-.1887-.02654s-.1347 0-.1886.02654c-.027 0-.0539.02653-.0809.02653-.0539.02654-.0808.02654-.1078.02654-.0269.02653-.0808.02653-.1078.05307-.027 0-.027.02654-.0539.02654-.0539.02653-.1078.07961-.1617.13268l-4.1746 4.1103c-.1887.1858-.2965.4246-.2965.69 0 .2653.1078.5042.2965.6899.3773.3715.9972.3715 1.3745 0l2.5036-2.4651v9.7277c0 .5307.4312.9553.9703.9553.539-.0265.9972-.4511.9972-.9818z"/>
</svg>
