<svg xmlns="http://www.w3.org/2000/svg" viewBox="0 0 32 32">
    <path fill-rule="evenodd" d="M16 15.2c0 .6627-.597 1.2-1.3333 1.2H5.33333C4.59695 16.4 4 15.8627 4 15.2S4.59695 14 5.33333 14h9.33337C15.403 14 16 14.5373 16 15.2zM20 9.2c0 .66274-.597 1.2-1.3333 1.2H5.33333C4.59695 10.4 4 9.86274 4 9.2S4.59695 8 5.33333 8H18.6667C19.403 8 20 8.53726 20 9.2zM12 21.2c0 .6627-.597 1.2-1.3333 1.2H5.33333C4.59695 22.4 4 21.8627 4 21.2S4.59695 20 5.33333 20h5.33337C11.403 20 12 20.5373 12 21.2z" clip-rule="evenodd"/>
    <path d="M21.1611 12.9818v9.7277l-2.5036-2.4651c-.3773-.3715-.9972-.3715-1.3745 0-.3773.3715-.3773.9818 0 1.3534l4.1746 4.1103c.0539.0531.1078.0796.1617.1327.027 0 .027.0265.0539.0265.027.0266.0809.0531.1078.0531.027 0 .0539.0265.0809.0265.0269 0 .0539.0266.0808.0266.0539 0 .1348.0265.1887.0265s.1347 0 .1886-.0265c.027 0 .0539-.0266.0809-.0266.0539-.0265.0809-.0265.1078-.0265.027-.0265.0809-.0265.1078-.0531.027 0 .027-.0265.0539-.0265.0539-.0266.1078-.0796.1617-.1327l4.1746-4.1103c.1887-.1858.2965-.4246.2965-.69 0-.2653-.1078-.5042-.2965-.6899-.3773-.3715-.9972-.3715-1.3745 0l-2.5036 2.4651v-9.7277c0-.5307-.4312-.9553-.9703-.9553-.539.0265-.9972.4511-.9972.9818z"/>
</svg>
