<svg  viewBox="0 0 25 24" xmlns="http://www.w3.org/2000/svg">
<path d="M5.93129 6.5205C7.67566 5.48058 12.5023 3 12.5023 3C12.5023 3 17.3266 5.48465 19.0688 6.5251L19.0755 6.53302C19.1944 6.67181 19.2565 6.85034 19.2495 7.03293C19.2424 7.21552 19.1667 7.38872 19.0375 7.51793C18.9083 7.64714 18.7351 7.72283 18.5525 7.72988C18.3699 7.73693 18.1914 7.67483 18.0526 7.55597L18.0446 7.54911L12.4999 4.75003L6.95539 7.5446L6.94741 7.55144C6.80862 7.67029 6.63009 7.7324 6.4475 7.72535C6.26491 7.71829 6.0917 7.6426 5.96249 7.51339C5.83329 7.38419 5.75759 7.21098 5.75054 7.02839C5.74349 6.8458 5.8056 6.66727 5.92445 6.52848L5.93129 6.5205Z" />
<path d="M16.7209 15.157H17.8721C18.19 15.157 18.4477 15.4147 18.4477 15.7326C18.4477 16.0504 18.19 16.3081 17.8721 16.3081H16.7209C16.4031 16.3081 16.1454 16.0504 16.1454 15.7326C16.1454 15.4147 16.4031 15.157 16.7209 15.157Z" />
<path d="M8.27908 15.157H7.12791C6.81004 15.157 6.55233 15.4147 6.55233 15.7326C6.55233 16.0504 6.81004 16.3081 7.12791 16.3081H8.27908C8.59695 16.3081 8.85466 16.0504 8.85466 15.7326C8.85466 15.4147 8.59695 15.157 8.27908 15.157Z" />
<path fill-rule="evenodd" clip-rule="evenodd" d="M18.5592 10.2178L19.4565 12.9097C20.1996 13.1025 20.75 13.7788 20.75 14.5814V18.0349C20.75 18.3528 20.4923 18.6105 20.1744 18.6105H19.5988V20.3372C19.5988 20.6551 19.3411 20.9128 19.0233 20.9128H15.9535C15.6356 20.9128 15.3779 20.6551 15.3779 20.3372V18.6105H9.62209V20.3372C9.62209 20.6551 9.36439 20.9128 9.04651 20.9128H5.97674C5.65887 20.9128 5.40116 20.6551 5.40116 20.3372V18.6105H4.82558C4.50771 18.6105 4.25 18.3528 4.25 18.0349V14.5814C4.25 13.7788 4.80037 13.1025 5.54352 12.9097L6.44082 10.2178C6.83313 9.04081 7.93034 8.25 9.17103 8.25H15.829C17.0697 8.25 18.1669 9.04081 18.5592 10.2178ZM9.17103 9.40116C8.42665 9.40116 7.76834 9.87567 7.53292 10.5819L6.77534 12.8546H8.99252C9.69972 12.8546 10.3562 13.206 10.7485 13.7944C10.8368 13.9268 10.9844 14.0058 11.1435 14.0058H13.8565C14.0156 14.0058 14.1632 13.9268 14.2515 13.7945C14.6438 13.206 15.3002 12.8546 16.0075 12.8546H18.2247L17.4671 10.5819C17.2317 9.87567 16.5734 9.40116 15.829 9.40116H13.0756V10.5523H13.4593C13.7772 10.5523 14.0349 10.81 14.0349 11.1279C14.0349 11.4458 13.7772 11.7035 13.4593 11.7035H11.5407C11.2228 11.7035 10.9651 11.4458 10.9651 11.1279C10.9651 10.81 11.2228 10.5523 11.5407 10.5523H11.9244V9.40116H9.17103ZM6.55233 19.7616H8.47093V18.6105H6.55233V19.7616ZM16.5291 19.7616H18.4477V18.6105H16.5291V19.7616ZM5.40116 17.4593H19.5988V14.5814C19.5988 14.264 19.3406 14.0058 19.0233 14.0058H16.0075C15.686 14.0058 15.3876 14.1655 15.2093 14.433C14.907 14.8863 14.4013 15.157 13.8565 15.157H11.1435C10.5986 15.157 10.093 14.8863 9.79074 14.433C9.61238 14.1655 9.314 14.0058 8.99252 14.0058H5.97674C5.65937 14.0058 5.40116 14.264 5.40116 14.5814V17.4593Z" />
</svg>
