<svg viewBox="0 0 16 16" xmlns="http://www.w3.org/2000/svg">
<path d="M14.8746 11.4195V13.4894C14.8754 13.6816 14.8359 13.8718 14.7588 14.0479C14.6816 14.2239 14.5685 14.382 14.4266 14.5119C14.2848 14.6418 14.1173 14.7407 13.9349 14.8023C13.7525 14.8638 13.5592 14.8867 13.3674 14.8694C11.2401 14.6387 9.19655 13.9132 7.40112 12.7512C5.73071 11.6918 4.31449 10.2784 3.25304 8.61131C2.08465 6.8113 1.35754 4.76193 1.13061 2.62922C1.11334 2.43841 1.13606 2.24611 1.19733 2.06456C1.2586 1.883 1.35708 1.71616 1.48649 1.57467C1.61591 1.43318 1.77343 1.32013 1.94902 1.24272C2.12461 1.16532 2.31443 1.12525 2.50639 1.12507H4.58043C4.91594 1.12177 5.24121 1.24035 5.49561 1.45869C5.75 1.67704 5.91616 1.98026 5.96312 2.31183C6.05066 2.97425 6.21301 3.62466 6.44706 4.25066C6.54008 4.49762 6.56021 4.76601 6.50507 5.02404C6.44993 5.28207 6.32184 5.51891 6.13596 5.70651L5.25795 6.58278C6.24212 8.31017 7.67521 9.74042 9.40603 10.7226L10.284 9.84637C10.472 9.66086 10.7093 9.53302 10.9679 9.47799C11.2264 9.42296 11.4953 9.44305 11.7428 9.53588C12.37 9.76947 13.0217 9.9315 13.6855 10.0189C14.0213 10.0661 14.328 10.235 14.5472 10.4932C14.7665 10.7515 14.883 11.0811 14.8746 11.4195Z" stroke-width="1.6" stroke-linecap="round" stroke-linejoin="round"/>
</svg>
