<svg viewBox="0 0 16 16" xmlns="http://www.w3.org/2000/svg">
<path d="M14.7318 11.4195V13.4894C14.7325 13.6816 14.6931 13.8718 14.616 14.0479C14.5388 14.2239 14.4257 14.382 14.2838 14.5119C14.1419 14.6418 13.9744 14.7407 13.792 14.8023C13.6096 14.8638 13.4164 14.8867 13.2246 14.8694C11.0972 14.6387 9.05373 13.9132 7.2583 12.7512C5.58789 11.6918 4.17167 10.2784 3.11022 8.61131C1.94183 6.8113 1.21472 4.76193 0.987789 2.62922C0.970513 2.43841 0.993233 2.24611 1.0545 2.06456C1.11578 1.883 1.21425 1.71616 1.34367 1.57467C1.47309 1.43318 1.63061 1.32013 1.8062 1.24272C1.98179 1.16532 2.17161 1.12525 2.36357 1.12507H4.43761C4.77312 1.12177 5.09839 1.24035 5.35278 1.45869C5.60718 1.67704 5.77334 1.98026 5.8203 2.31183C5.90784 2.97425 6.07019 3.62466 6.30424 4.25066C6.39726 4.49762 6.41739 4.76601 6.36225 5.02404C6.30711 5.28207 6.17901 5.51891 5.99314 5.70651L5.11513 6.58278C6.0993 8.31017 7.53239 9.74042 9.2632 10.7226L10.1412 9.84637C10.3292 9.66086 10.5665 9.53302 10.825 9.47799C11.0836 9.42296 11.3525 9.44305 11.6 9.53588C12.2272 9.76947 12.8789 9.9315 13.5426 10.0189C13.8785 10.0661 14.1852 10.235 14.4044 10.4932C14.6237 10.7515 14.7402 11.0811 14.7318 11.4195Z" stroke-width="1.6" stroke-linecap="round" stroke-linejoin="round"/>
</svg>
