<svg viewBox="0 0 32 32" xmlns="http://www.w3.org/2000/svg">
<path fill-rule="evenodd" clip-rule="evenodd" d="M16.2 11.6C13.1624 11.6 10.7 14.0624 10.7 17.1C10.7 20.1376 13.1624 22.6 16.2 22.6C19.2376 22.6 21.7 20.1376 21.7 17.1C21.7 14.0624 19.2376 11.6 16.2 11.6ZM12.9 17.1C12.9 15.2775 14.3775 13.8 16.2 13.8C18.0225 13.8 19.5 15.2775 19.5 17.1C19.5 18.9225 18.0225 20.4 16.2 20.4C14.3775 20.4 12.9 18.9225 12.9 17.1Z"/>
<path fill-rule="evenodd" clip-rule="evenodd" d="M12.9 5C12.5322 5 12.1888 5.18381 11.9847 5.48983L10.1113 8.3H6.3C5.42479 8.3 4.58542 8.64768 3.96655 9.26655C3.34768 9.88542 3 10.7248 3 11.6V23.7C3 24.5752 3.34768 25.4146 3.96655 26.0335C4.58542 26.6523 5.42479 27 6.3 27H26.1C26.9752 27 27.8146 26.6523 28.4335 26.0335C29.0523 25.4146 29.4 24.5752 29.4 23.7V11.6C29.4 10.7248 29.0523 9.88542 28.4335 9.26655C27.8146 8.64768 26.9752 8.3 26.1 8.3H22.2887L20.4153 5.48983C20.2112 5.18381 19.8678 5 19.5 5H12.9ZM11.6153 10.0102L13.4887 7.2H18.9113L20.7847 10.0102C20.9888 10.3162 21.3322 10.5 21.7 10.5H26.1C26.3917 10.5 26.6715 10.6159 26.8778 10.8222C27.0841 11.0285 27.2 11.3083 27.2 11.6V23.7C27.2 23.9917 27.0841 24.2715 26.8778 24.4778C26.6715 24.6841 26.3917 24.8 26.1 24.8H6.3C6.00826 24.8 5.72847 24.6841 5.52218 24.4778C5.31589 24.2715 5.2 23.9917 5.2 23.7V11.6C5.2 11.3083 5.31589 11.0285 5.52218 10.8222C5.72847 10.6159 6.00826 10.5 6.3 10.5H10.7C11.0678 10.5 11.4112 10.3162 11.6153 10.0102Z"/>
</svg>
