<svg viewBox="0 0 32 32" xmlns="http://www.w3.org/2000/svg">
<path clip-rule="evenodd" d="M16 5C16.3806 5 16.7282 5.21607 16.8967 5.55738L19.7543 11.3465L26.1446 12.2805C26.5212 12.3356 26.8339 12.5996 26.9512 12.9616C27.0686 13.3236 26.9703 13.7208 26.6977 13.9864L22.0745 18.4894L23.1656 24.851C23.23 25.2261 23.0757 25.6053 22.7677 25.8291C22.4598 26.0528 22.0515 26.0823 21.7145 25.9051L16 22.8998L10.2854 25.9051C9.94853 26.0823 9.54024 26.0528 9.23226 25.8291C8.92429 25.6053 8.77004 25.2261 8.83439 24.851L9.92548 18.4894L5.30227 13.9864C5.02965 13.7208 4.93137 13.3236 5.04875 12.9616C5.16613 12.5996 5.47881 12.3356 5.85537 12.2805L12.2457 11.3465L15.1033 5.55738C15.2718 5.21607 15.6194 5 16 5ZM16 8.25925L13.8067 12.7026C13.6612 12.9975 13.38 13.2019 13.0546 13.2495L8.14841 13.9666L11.6977 17.4236C11.9336 17.6534 12.0413 17.9845 11.9856 18.309L11.1482 23.1917L15.5345 20.8849C15.8259 20.7317 16.1741 20.7317 16.4655 20.8849L20.8518 23.1917L20.0144 18.309C19.9587 17.9845 20.0664 17.6534 20.3023 17.4236L23.8516 13.9666L18.9454 13.2495C18.62 13.2019 18.3388 12.9975 18.1933 12.7026L16 8.25925Z">
</svg>
