<svg xmlns="http://www.w3.org/2000/svg" viewBox="0 0 24 24"><path fill-rule="evenodd" d="M12.293 3.488a5.056 5.056 0 100 10.11 5.056 5.056 0 000-10.11zM5.25 8.543a7.043 7.043 0 1114.086 0 7.043 7.043 0 01-14.086 0z" clip-rule="evenodd"/><path fill-rule="evenodd" d="M15.438 12.64a.994.994 0 011.116.854l1.045 7.881a.994.994 0 01-1.496.983l-3.81-2.285-3.81 2.285a.994.994 0 01-1.496-.983l1.046-7.873a.994.994 0 111.97.262l-.774 5.83 2.553-1.533a.993.993 0 011.023 0l2.553 1.532-.775-5.838a.994.994 0 01.855-1.116z" clip-rule="evenodd"/></svg>