<svg xmlns="http://www.w3.org/2000/svg"><path fill-rule="evenodd" clip-rule="evenodd" d="M6.178 3.75A2.428 2.428 0 003.75 6.178v11.746a2.428 2.428 0 002.428 2.428h11.746a2.428 2.428 0 002.428-2.428v-9.23a.75.75 0 00-.22-.53L15.937 3.97a.75.75 0 00-.53-.22H6.178zm0 1.5a.928.928 0 00-.928.928v11.746a.928.928 0 00.928.928h.928V12.89a.75.75 0 01.75-.75h8.39a.75.75 0 01.75.75v5.962h.928a.928.928 0 00.928-.928V9.006L15.096 5.25h-6.49v2.695h5.962a.75.75 0 010 1.5H7.856a.75.75 0 01-.75-.75V5.25h-.928zm2.428 8.39v5.212h6.89V13.64h-6.89z" /></svg>