<svg xmlns="http://www.w3.org/2000/svg" viewBox="0 0 32 32">
    <path fill-rule="evenodd" d="M6.4 14.8c0-4.6392 3.7608-8.4 8.4-8.4 4.6392 0 8.4 3.7608 8.4 8.4 0 2.2631-.895 4.3172-2.3503 5.8276-.0411.0316-.0806.0662-.1182.1039-.0377.0376-.0723.0771-.1039.1182C19.1172 22.305 17.0631 23.2 14.8 23.2c-4.6392 0-8.4-3.7608-8.4-8.4zm15.1412 8.4383C19.6936 24.7162 17.35 25.6 14.8 25.6 8.83532 25.6 4 20.7647 4 14.8 4 8.83532 8.83532 4 14.8 4c5.9647 0 10.8 4.83532 10.8 10.8 0 2.55-.8838 4.8936-2.3617 6.7412l4.4102 4.4103c.4686.4686.4686 1.2284 0 1.697-.4686.4687-1.2284.4687-1.697 0l-4.4103-4.4102z" clip-rule="evenodd"/>
</svg>
