<svg xmlns="http://www.w3.org/2000/svg" viewBox="0 0 18 18">
    <g clip-path="url(#a)">
        <path
            d="M3.83 2.208c-.77.4-1.383 1.002-1.738 1.691a.51.51 0 0 1-.683.21.494.494 0 0 1-.231-.666c.453-.88 1.219-1.622 2.157-2.109A5.315 5.315 0 0 1 6.359.756a.51.51 0 0 1 .458.55.494.494 0 0 1-.557.432 4.28 4.28 0 0 0-2.43.47Z" />
        <path
            d="M4.61 3.584a2.134 2.134 0 0 0-.866.809.512.512 0 0 1-.694.178.492.492 0 0 1-.197-.676A3.11 3.11 0 0 1 4.114 2.71a3.291 3.291 0 0 1 1.726-.365.512.512 0 0 1 .485.527.492.492 0 0 1-.534.46c-.396-.027-.81.06-1.181.252Z" />
        <path fill-rule="evenodd"
            d="M5.227 4.151a.632.632 0 0 0-.706.511l-.827 4.459c-.063.341.16.67.501.736l3.646.71c-.084.566-.252.949-.449 1.212-.217.29-.493.468-.807.578-.322.112-.681.152-1.05.16-.183.005-.363.001-.538-.004l-.105-.003c-.137-.004-.274-.009-.397-.009H2.561V8.613a.502.502 0 1 0-1.005 0v8.16a.502.502 0 0 0 1.005 0v-3.267h1.934c.106 0 .222.003.356.007l.116.004c.18.005.38.01.59.005.418-.01.896-.056 1.359-.217.47-.164.924-.448 1.28-.925.31-.414.526-.948.632-1.62l5.486 1.068a.632.632 0 0 0 .745-.518l.053-.321c.984-.063 1.763-.912 1.763-1.95 0-.742-.398-1.387-.985-1.718l.62-.619a.632.632 0 0 0-.363-1.074L5.227 4.151Zm.217 1.043-.695 3.748 9.381 1.827.53-3.204c.055-.337.215-.649.457-.89l.151-.152-9.824-1.33ZM15.87 9.039a.94.94 0 0 1-.585.894l.268-1.623a.964.964 0 0 1 .317.73Z"
            clip-rule="evenodd" />
    </g>
    <defs>
        <clipPath id="a">
            <path d="M0 0h18v18H0z" />
        </clipPath>
    </defs>
</svg>