<svg viewBox="0 0 32 32" xmlns="http://www.w3.org/2000/svg">
<path clip-rule="evenodd" d="M27.9228 17.3898C27.8383 18.1278 27.2156 18.6861 26.4728 18.6899H26.3828H26.2728C25.6061 18.6931 25.0101 19.1062 24.773 19.7294C24.536 20.3526 24.7068 21.0574 25.2028 21.5029C25.7732 22.0286 25.8429 22.9047 25.3628 23.5139C24.7891 24.2268 24.1348 24.8708 23.4128 25.433C23.1558 25.6343 22.8392 25.7444 22.5128 25.746C22.099 25.7449 21.7043 25.5721 21.4228 25.269C21.0949 24.9316 20.6431 24.7433 20.1727 24.7479C19.9811 24.747 19.791 24.7827 19.6127 24.853C18.9883 25.1154 18.5905 25.736 18.6127 26.413C18.6374 27.1819 18.0672 27.8409 17.3027 27.927C16.4053 28.0266 15.4995 28.0243 14.6027 27.92C13.8296 27.8296 13.2627 27.1497 13.3126 26.373C13.3465 25.6896 12.9516 25.0573 12.3226 24.788C12.1415 24.7149 11.9479 24.6778 11.7526 24.6789C11.2825 24.6748 10.8311 24.8626 10.5026 25.199C9.97728 25.7776 9.09242 25.8477 8.48257 25.359C7.78146 24.7919 7.14735 24.1467 6.59254 23.4359C6.11264 22.8342 6.18267 21.9632 6.75254 21.4459C7.2501 20.9857 7.41306 20.2667 7.16255 19.6369C6.92269 19.0435 6.35236 18.6502 5.71253 18.6369H5.65253C4.87948 18.6471 4.21375 18.0937 4.0825 17.3318C3.9725 16.4255 3.9725 15.5092 4.0825 14.6028C4.16201 13.842 4.81814 13.2734 5.58252 13.3028C6.27413 13.3295 6.91519 12.9418 7.21255 12.3168C7.47416 11.6835 7.31012 10.9541 6.80254 10.4937C6.23233 9.96841 6.16262 9.09266 6.64254 8.48372C7.21426 7.77217 7.86513 7.12801 8.58257 6.56369C8.84351 6.36264 9.16317 6.25269 9.49258 6.25069C9.9069 6.25196 10.3019 6.42592 10.5826 6.73069C10.9117 7.06573 11.363 7.25239 11.8326 7.2477C12.0239 7.24972 12.2139 7.21579 12.3926 7.1477C13.0178 6.88439 13.4156 6.26262 13.3926 5.58468C13.3686 4.8163 13.9387 4.15828 14.7027 4.07266C15.6001 3.97349 16.5058 3.97584 17.4027 4.07966C18.1751 4.17055 18.7416 4.8495 18.6927 5.62568C18.6544 6.3107 19.0506 6.94593 19.6827 7.2127C19.864 7.28492 20.0576 7.32158 20.2527 7.3207C20.7226 7.32475 21.1739 7.13737 21.5028 6.8017C22.0248 6.22519 22.9052 6.15423 23.5128 6.63969C24.2179 7.20483 24.8555 7.84943 25.4128 8.56072C25.896 9.16505 25.8259 10.0409 25.2528 10.5607C24.7547 11.0115 24.5883 11.724 24.8354 12.3488C25.0824 12.9736 25.6911 13.3796 26.3628 13.3678C27.1308 13.3612 27.7908 13.9112 27.9228 14.6678C28.0272 15.5722 28.0272 16.4855 27.9228 17.3898ZM25.9428 15.0668C24.6668 15.0369 23.5293 14.2552 23.0439 13.0748C22.5585 11.8944 22.817 10.5387 23.7028 9.61974C23.3127 9.14067 22.8773 8.70029 22.4028 8.30472C21.7811 8.88417 20.9626 9.20586 20.1127 9.20473C19.7045 9.20719 19.2999 9.12797 18.9227 8.97173C17.737 8.47029 16.9627 7.31205 16.9527 6.02468C16.3373 5.96769 15.718 5.96769 15.1027 6.02468C15.0332 7.26462 14.212 8.33573 13.0326 8.72472C12.6981 8.93701 12.3238 9.0789 11.9326 9.14173C11.0875 9.14278 10.2731 8.82454 9.65258 8.25072C9.16434 8.64533 8.71557 9.0864 8.31256 9.56774C9.20834 10.4932 9.46779 11.8628 8.97257 13.0518C8.45612 14.2213 7.31064 14.9873 6.03253 15.0178C5.97418 15.643 5.97084 16.2721 6.02253 16.8978C7.30162 16.9225 8.44401 17.7042 8.93043 18.8874C9.41684 20.0707 9.15447 21.4298 8.26256 22.3469C8.65765 22.8218 9.09257 23.2621 9.56258 23.6629C10.1861 23.0864 11.0034 22.7652 11.8526 22.7629C12.2642 22.7598 12.6723 22.8394 13.0526 22.9969C14.2389 23.4966 15.0137 24.6548 15.0227 25.942C15.638 25.9995 16.2573 25.9995 16.8727 25.942C16.9124 24.6712 17.6902 23.5405 18.8627 23.0489C19.2346 22.8993 19.6319 22.8232 20.0327 22.8249C20.8813 22.8223 21.6995 23.141 22.3228 23.7169C22.8077 23.3187 23.2562 22.8779 23.6628 22.3999C22.7623 21.4769 22.5023 20.1043 23.0028 18.9159C23.5076 17.7355 24.6592 16.9623 25.9428 16.9418C26.0031 16.3169 26.0031 15.6877 25.9428 15.0628V15.0668ZM16.0027 19.9899C14.3809 19.9964 12.9153 19.0244 12.2902 17.528C11.6651 16.0316 12.0038 14.3059 13.1483 13.1568C14.2928 12.0078 16.0171 11.6621 17.516 12.2812C19.0149 12.9003 19.9927 14.3621 19.9927 15.9838C19.996 18.1914 18.2103 19.9844 16.0027 19.9899ZM16.0027 13.9978C14.8994 14.0033 14.009 14.9012 14.0127 16.0045C14.0163 17.1077 14.9127 17.9997 16.016 17.9978C17.1193 17.996 18.0127 17.1011 18.0127 15.9978C18.013 15.4655 17.801 14.955 17.4237 14.5794C17.0465 14.2038 16.535 13.9941 16.0027 13.9968V13.9978Z">
</svg>
