<svg xmlns="http://www.w3.org/2000/svg" viewBox="0 0 32 32">
    <path fill-rule="evenodd" d="M22.4545 6.18182c-1.205 0-2.1818.97683-2.1818 2.18182 0 .37874.0965.73495.2663 1.04536.0112.01694.0219.03429.0323.05204.0103.01762.02.03541.0292.05335.385.61901 1.0714 1.03111 1.854 1.03111 1.205 0 2.1818-.97688 2.1818-2.18186 0-1.20499-.9768-2.18182-2.1818-2.18182zm-3.1003 5.25258c.7908.7983 1.8878 1.2929 3.1003 1.2929 2.41 0 4.3637-1.9537 4.3637-4.36366C26.8182 5.95367 24.8645 4 22.4545 4c-2.4099 0-4.3636 1.95367-4.3636 4.36364 0 .41129.0569.80929.1633 1.18656l-5.7903 3.379c-.7908-.7983-1.8878-1.2928-3.10026-1.2928C6.95367 11.6364 5 13.59 5 16s1.95367 4.3636 4.36364 4.3636c1.21276 0 2.30986-.4947 3.10076-1.2933l5.7911 3.3746c-.1072.3787-.1646.7784-.1646 1.1915 0 2.4099 1.9537 4.3636 4.3636 4.3636 2.41 0 4.3637-1.9537 4.3637-4.3636 0-2.41-1.9537-4.3637-4.3637-4.3637-1.2106 0-2.3062.4931-3.0967 1.2893l-5.7936-3.3761c.1062-.377.1631-.7748.1631-1.1859 0-.4113-.0569-.8093-.1633-1.1866l5.7902-3.379zm-8.1362 3.4153c.0091.0178.0187.0354.0289.0529.0103.0175.0209.0347.032.0515.1699.3105.2666.6669.2666 1.0459 0 .3789-.0966.7353-.2666 1.0458-.0112.017-.022.0344-.0323.0522-.0101.0173-.0197.0347-.0287.0523-.3849.6193-1.0715 1.0315-1.85426 1.0315-1.20499 0-2.18182-.9768-2.18182-2.1818s.97683-2.1818 2.18182-2.1818c.78286 0 1.46936.4123 1.85436 1.0315zm9.0547 8.7867c0-.3547.0846-.6896.2348-.9857.027-.0354.0521-.0729.0751-.1124.022-.0378.0415-.0764.0586-.1156.3915-.5839 1.0575-.9682 1.8133-.9682 1.205 0 2.1818.9769 2.1818 2.1819s-.9768 2.1818-2.1818 2.1818-2.1818-.9768-2.1818-2.1818z" clip-rule="evenodd"/>
</svg>
