<svg xmlns="http://www.w3.org/2000/svg" viewBox="0 0 18 19">
    <g clip-path="url(#a)">
        <path fill-rule="evenodd"
            d="M2.777 15.925h5.822v1.21H7.294a.402.402 0 0 0 0 .803h3.412a.402.402 0 0 0 0-.804H9.4v-1.209h5.822c.291 0 .527-.236.527-.527V1.59a.527.527 0 0 0-.527-.527H2.777a.527.527 0 0 0-.527.527v13.808c0 .29.236.527.527.527Zm.421-13.913v12.964h5.4v-.379c-1.121-.047-2.182-.271-2.704-.651-.874-.635-.793-1.722-.445-2.598l.003-.007c.084-.195.182-.402.284-.616.578-1.22 1.278-2.693.33-3.826-.62-.575-1.292-1.553-.778-2.37.205-.324.56-.543 1.01-.677l.084-.02c.07-.015.141-.031.21-.053l.042-.013c.65-.214.724-.51.724-1.082a1115.74 1115.74 0 0 1 3.287.003c0 .74.243.959 1.054 1.152.452.134.807.354 1.013.68.515.817-.158 1.798-.78 2.374-.952 1.137-.25 2.616.33 3.84.102.214.2.421.285.617l.003.007c.348.875.433 1.965-.447 2.596-.56.402-1.607.611-2.702.648v.375h5.4V2.012H3.199ZM9 3.667l-.69-.002c-.277.634-1.034.997-1.717 1.13-.815.254-.217.92.163 1.341.04.046.079.088.112.127.491.567.659 1.25.686 1.839a4.07 4.07 0 0 1-.198 1.464l-.921 2.129c-.176.444-.372 1.13.107 1.477.756.55 4.029.641 4.918.003.48-.343.278-1.032.104-1.471l-.923-2.136a4.08 4.08 0 0 1-.2-1.467c.028-.59.196-1.276.688-1.844.38-.388 1.164-1.198.276-1.475-.68-.132-1.435-.48-1.712-1.113L9 3.667Z"
            clip-rule="evenodd" />
    </g>
    <defs>
        <clipPath id="a">
            <path d="M0 0h18v18H0z" transform="translate(0 .5)" />
        </clipPath>
    </defs>
</svg>