<svg viewBox="0 0 24 24" xmlns="http://www.w3.org/2000/svg">
<path fill-rule="evenodd" clip-rule="evenodd" d="M13.4084 15.2462C13.4084 14.8289 13.7468 14.4905 14.1642 14.4905H20.5764C20.9938 14.4905 21.3321 14.8289 21.3321 15.2462C21.3321 15.6636 20.9938 16.002 20.5764 16.002H14.1642C13.7468 16.002 13.4084 15.6636 13.4084 15.2462Z"/>
<path fill-rule="evenodd" clip-rule="evenodd" d="M3.33203 15.2462C3.33203 14.8289 3.67038 14.4905 4.08776 14.4905H10.5C10.9173 14.4905 11.2557 14.8289 11.2557 15.2462C11.2557 15.6636 10.9173 16.002 10.5 16.002H4.08776C3.67038 16.002 3.33203 15.6636 3.33203 15.2462Z"/>
<path fill-rule="evenodd" clip-rule="evenodd" d="M11.5764 7.9181C11.5764 7.50073 11.9148 7.16238 12.3321 7.16238L20.5764 7.16238C20.9938 7.16238 21.3321 7.50073 21.3321 7.9181C21.3321 8.33548 20.9938 8.67383 20.5764 8.67383L12.3321 8.67383C11.9148 8.67383 11.5764 8.33548 11.5764 7.9181Z"/>
<path fill-rule="evenodd" clip-rule="evenodd" d="M3.33203 7.9181C3.33203 7.50073 3.67038 7.16238 4.08776 7.16238H8.66791C9.08528 7.16238 9.42363 7.50073 9.42363 7.9181C9.42363 8.33548 9.08528 8.67383 8.66791 8.67383H4.08776C3.67038 8.67383 3.33203 8.33548 3.33203 7.9181Z"/>
<path fill-rule="evenodd" clip-rule="evenodd" d="M14.1642 18.75C13.7468 18.75 13.4084 18.4117 13.4084 17.9943V12.4981C13.4084 12.0807 13.7468 11.7424 14.1642 11.7424C14.5815 11.7424 14.9199 12.0807 14.9199 12.4981V17.9943C14.9199 18.4117 14.5815 18.75 14.1642 18.75Z"/>
<path fill-rule="evenodd" clip-rule="evenodd" d="M8.66783 11.4219C8.25046 11.4219 7.91211 11.0835 7.91211 10.6661L7.91211 5.16997C7.91211 4.75259 8.25046 4.41424 8.66783 4.41424C9.08521 4.41424 9.42356 4.75259 9.42356 5.16997V10.6661C9.42356 11.0835 9.08521 11.4219 8.66783 11.4219Z"/>
</svg>
