<svg viewBox="0 0 16 16" xmlns="http://www.w3.org/2000/svg">
  <path fill-rule="evenodd" clip-rule="evenodd" d="M8.00001 2.5C8.19032 2.5 8.36413 2.60804 8.44837 2.77869L9.87715 5.67323L13.0723 6.14026C13.2606 6.16778 13.4169 6.29978 13.4756 6.48078C13.5343 6.66179 13.4852 6.86041 13.3489 6.99318L11.0373 9.24468L11.5828 12.4255C11.615 12.6131 11.5379 12.8027 11.3839 12.9145C11.2299 13.0264 11.0257 13.0411 10.8573 12.9525L8.00001 11.4499L5.14274 12.9525C4.97428 13.0411 4.77014 13.0264 4.61615 12.9145C4.46216 12.8027 4.38504 12.6131 4.41721 12.4255L4.96275 9.24468L2.65115 6.99318C2.51484 6.86041 2.4657 6.66179 2.52439 6.48078C2.58308 6.29978 2.73942 6.16778 2.9277 6.14026L6.12288 5.67323L7.55166 2.77869C7.6359 2.60804 7.80971 2.5 8.00001 2.5ZM8.00001 4.12963L6.90337 6.35131C6.8306 6.49874 6.69001 6.60097 6.52733 6.62474L4.07422 6.9833L5.84888 8.71182C5.96682 8.82669 6.02065 8.99226 5.99282 9.15452L5.5741 11.5958L7.76729 10.4425C7.91298 10.3658 8.08705 10.3658 8.23274 10.4425L10.4259 11.5958L10.0072 9.15452C9.97938 8.99226 10.0332 8.82669 10.1511 8.71182L11.9258 6.9833L9.4727 6.62474C9.31002 6.60097 9.16943 6.49874 9.09666 6.35131L8.00001 4.12963Z"/>
</svg>
