<svg viewBox="0 0 23 22" xmlns="http://www.w3.org/2000/svg">
<path fill-rule="evenodd" clip-rule="evenodd" d="M11.0316 0C11.413 0 11.7613 0.216072 11.9301 0.557376L14.7933 6.34647L21.1963 7.28051C21.5736 7.33555 21.8869 7.59956 22.0046 7.96157C22.1222 8.32358 22.0237 8.72083 21.7505 8.98636L17.1182 13.4894L18.2114 19.851C18.2759 20.2261 18.1213 20.6053 17.8127 20.8291C17.5042 21.0528 17.0951 21.0823 16.7575 20.9051L11.0316 17.8998L5.30572 20.9051C4.96814 21.0823 4.55904 21.0528 4.25045 20.8291C3.94186 20.6053 3.78731 20.2261 3.85179 19.851L4.94504 13.4894L0.312661 8.98636C0.0395026 8.72083 -0.058965 8.32358 0.0586454 7.96157C0.176256 7.59956 0.489556 7.33555 0.866862 7.28051L7.2699 6.34647L10.1331 0.557376C10.3019 0.216072 10.6502 0 11.0316 0Z"/>
</svg>
