<svg viewBox="0 0 25 24" xmlns="http://www.w3.org/2000/svg">
<path fill-rule="evenodd" clip-rule="evenodd" d="M12.4996 2.88232L21.6496 6.17793L21.649 17.2756C21.586 19.3997 19.8389 21.1082 17.6997 21.1082C16.6957 21.1082 15.7781 20.7315 15.0806 20.1128L12.4997 21.0427L3.34961 17.7471V6.17793L12.4996 2.88232ZM12.4996 4.32222L10.3971 5.07951L16.8776 7.41564L18.9778 6.65547L12.4996 4.32222ZM6.02146 6.65547L12.4996 9.0003L14.8843 8.13713L8.39886 5.79921L6.02146 6.65547ZM4.7043 7.61941V16.7951L11.8223 19.3588V10.1958L4.7043 7.61941ZM13.177 10.1958V19.3587L14.2002 18.9901C13.9119 18.4418 13.7484 17.818 13.7484 17.1569C13.7484 14.978 15.5208 13.2057 17.6997 13.2057C18.6922 13.2057 19.6004 13.5736 20.2949 14.1798V7.61942L13.177 10.1958ZM17.6997 14.5603C16.2681 14.5603 15.1031 15.7253 15.1031 17.1569C15.1031 18.5885 16.2681 19.7535 17.6997 19.7535C19.1145 19.7535 20.2681 18.6155 20.2949 17.2069V17.1069C20.2681 15.6983 19.1145 14.5603 17.6997 14.5603ZM17.4766 17.0296L18.2376 15.6093L19.1673 16.1074L17.7355 18.78L16.21 17.2545L16.9557 16.5087L17.4766 17.0296Z" />
</svg>
