<svg viewBox="0 0 32 32" xmlns="http://www.w3.org/2000/svg">
<path d="M18.9326 12.2522C19.3218 11.7822 20.0207 11.7144 20.4941 12.1002C20.9682 12.4865 21.0371 13.1818 20.6473 13.6526L15.6005 19.7478C15.4048 19.9842 15.1191 20.1289 14.812 20.1479C14.5049 20.1668 14.2035 20.0584 13.9798 19.848L11.3467 17.3712C10.9013 16.9523 10.8825 16.2539 11.3049 15.8119C11.7267 15.3706 12.4286 15.3522 12.8733 15.7705L14.642 17.4341L18.9326 12.2522Z"/>
<path clip-rule="evenodd" d="M16 4C9.37258 4 4 9.37258 4 16C4 22.6274 9.37258 28 16 28C22.6274 28 28 22.6274 28 16C28 9.37258 22.6274 4 16 4ZM6.18182 16C6.18182 10.5776 10.5776 6.18182 16 6.18182C21.4224 6.18182 25.8182 10.5776 25.8182 16C25.8182 21.4224 21.4224 25.8182 16 25.8182C10.5776 25.8182 6.18182 21.4224 6.18182 16Z" />
</svg>
