<svg xmlns="http://www.w3.org/2000/svg"><g clip-path="url(#clip0)" ><path d="M21.935 18.73a.732.732 0 00-1.02.184c-.927 1.337-3.629 1.338-4.557 0a.732.732 0 00-1.204 0c-.928 1.337-3.63 1.338-4.558 0a.733.733 0 00-1.204 0c-.928 1.338-3.63 1.338-4.558 0a.732.732 0 10-1.203.836c1.344 1.937 4.595 2.146 6.363.657 1.555 1.31 4.225 1.294 5.762 0 1.767 1.49 5.02 1.278 6.363-.657a.732.732 0 00-.184-1.02zM7.089 14.572a.732.732 0 00.732-.733v-1.098h6.592v1.098a.732.732 0 101.465 0V5.856a1.027 1.027 0 012.05 0 .732.732 0 001.465 0 2.493 2.493 0 00-2.49-2.49 2.493 2.493 0 00-2.49 2.49V7.98H7.821V5.856a1.026 1.026 0 012.051 0 .732.732 0 001.465 0 2.493 2.493 0 00-2.49-2.49 2.493 2.493 0 00-2.49 2.49v7.983c0 .405.327.732.732.732zm.732-5.127h6.592v1.83H7.821v-1.83z"/><path d="M9.994 17.111c.738.621 1.76.976 2.881.976 1.12 0 2.143-.355 2.88-.976 1.768 1.49 5.02 1.278 6.364-.657a.732.732 0 10-1.203-.835c-.928 1.337-3.63 1.337-4.558 0a.732.732 0 00-1.204 0c-.928 1.337-3.63 1.337-4.558 0a.733.733 0 00-1.204 0c-.928 1.337-3.63 1.337-4.558 0a.732.732 0 10-1.203.835c1.344 1.937 4.595 2.146 6.363.657z"/></g><defs><clipPath id="clip0"><path transform="translate(3.5 3)" d="M0 0h18.75v18.75H0z"/></clipPath></defs></svg>