<svg xmlns="http://www.w3.org/2000/svg" viewBox="0 0 32 32">
    <path d="M12.8 4c-3.31371 0-6 2.68629-6 6 0 3.3137 2.68629 6 6 6 3.3137 0 6-2.6863 6-6 0-3.31371-2.6863-6-6-6zm-3.6 6c0-1.98823 1.6118-3.6 3.6-3.6 1.9882 0 3.6 1.61177 3.6 3.6 0 1.9882-1.6118 3.6-3.6 3.6-1.9882 0-3.6-1.6118-3.6-3.6z" clip-rule="evenodd"/>
    <path d="M8 18.4c-1.5913 0-3.11742.6321-4.24264 1.7574C2.63214 21.2826 2 22.8087 2 24.4v2.4c0 .6627.53726 1.2 1.2 1.2s1.2-.5373 1.2-1.2v-2.4c0-.9548.37928-1.8705 1.05441-2.5456C6.12955 21.1793 7.04522 20.8 8 20.8h9.6c.9548 0 1.8704.3793 2.5456 1.0544.6751.6751 1.0544 1.5908 1.0544 2.5456v2.4c0 .6627.5373 1.2 1.2 1.2s1.2-.5373 1.2-1.2v-2.4c0-1.5913-.6321-3.1174-1.7574-4.2426C20.7174 19.0321 19.1913 18.4 17.6 18.4H8zM24.8381 19.456c.1657-.6417.8202-1.0276 1.4619-.8619 1.2872.3324 2.4276 1.0828 3.242 2.1335.8145 1.0507 1.257 2.3421 1.258 3.6715V26.8c0 .6627-.5373 1.2-1.2 1.2s-1.2-.5373-1.2-1.2v-2.3991c-.0007-.7975-.2662-1.5726-.7548-2.2029-.4887-.6304-1.1729-1.0807-1.9452-1.2801-.6417-.1657-1.0276-.8202-.8619-1.4619zM21.4976 4.1935c-.642-.16438-1.2957.22282-1.4601.86485-.1644.64204.2228 1.29577.8648 1.46015.7744.19827 1.4608.64863 1.9509 1.28008.4902.63145.7562 1.40807.7562 2.20742 0 .7994-.266 1.576-.7562 2.2074-.4901.6315-1.1765 1.0818-1.9509 1.2801-.642.1644-1.0292.8181-.8648 1.4601.1644.6421.8181 1.0293 1.4601.8649 1.2907-.3305 2.4346-1.0811 3.2515-2.1335.8169-1.0524 1.2603-2.3467 1.2603-3.679 0-1.33225-.4434-2.62662-1.2603-3.67903-.8169-1.05242-1.9608-1.80302-3.2515-2.13347z"/>
</svg>
