<svg viewBox="0 0 25 24" xmlns="http://www.w3.org/2000/svg">
<path fill-rule="evenodd" clip-rule="evenodd" d="M9.09514 4.72611C9.24688 4.89681 9.24688 5.16236 9.09514 5.3141L8.41232 5.97795C8.33645 6.05382 8.22264 6.09176 8.12781 6.09176C8.03297 6.09176 7.91917 6.05382 7.8433 5.97795C7.69156 5.80725 7.69156 5.5417 7.8433 5.38997L8.50715 4.72611C8.67786 4.57437 8.9434 4.57437 9.09514 4.72611ZM9.96764 5.35203C10.1383 5.20029 10.4039 5.20029 10.5556 5.35203C10.7074 5.52274 10.7074 5.76931 10.5367 5.94002L9.03824 7.43844C8.96237 7.51431 8.86753 7.55224 8.75373 7.55224C8.65889 7.55224 8.54509 7.51431 8.46922 7.43844C8.31748 7.26773 8.31748 7.00219 8.46922 6.85045L9.96764 5.35203Z" />
<path fill-rule="evenodd" clip-rule="evenodd" d="M6.61025 2.8501C6.2429 2.8501 5.94813 3.14486 5.94813 3.51222V13.2821H4.01173C3.64437 13.2821 3.34961 13.5769 3.34961 13.9442C3.34961 14.3116 3.64437 14.6064 4.01173 14.6064H4.99977V19.8259H4.01173C3.64437 19.8259 3.34961 20.1206 3.34961 20.488C3.34961 20.8553 3.64437 21.1501 4.01173 21.1501H20.4754C20.8427 21.1501 21.1375 20.8553 21.1375 20.488C21.1375 20.1359 20.839 19.8448 20.4754 19.8448H19.4873V14.6253H20.4754C20.8427 14.6253 21.1375 14.3306 21.1375 13.9632C21.1375 13.5959 20.8427 13.3011 20.4754 13.3011H18.539V3.51222C18.539 3.14486 18.2442 2.8501 17.8768 2.8501H6.61025ZM7.27237 13.2821V4.17433H11.5814V13.2821H7.27237ZM12.9057 13.3011V4.17433H17.2147V13.3011H12.9057ZM6.324 19.8448V14.6253H8.28112V19.8448H6.324ZM9.62432 19.8448V14.6253H11.5814V19.8448H9.62432ZM12.9057 19.8448V14.6253H14.8628V19.8448H12.9057ZM16.206 19.8448V14.6253H18.1631V19.8448H16.206Z" />
</svg>
