<svg viewBox="0 0 18 19" xmlns="http://www.w3.org/2000/svg">
<path d="M9.70312 5.45C9.70312 5.06168 9.38833 4.74688 9 4.74688C8.61167 4.74688 8.29688 5.06168 8.29688 5.45V9.5C8.29688 9.76633 8.44735 10.0098 8.68555 10.1289L11.3856 11.4789C11.7329 11.6526 12.1552 11.5118 12.3289 11.1644C12.5026 10.8171 12.3618 10.3948 12.0144 10.2211L9.70312 9.06545V5.45Z"/>
<path fill-rule="evenodd" clip-rule="evenodd" d="M9 2.04688C4.88375 2.04688 1.54688 5.38375 1.54688 9.5C1.54688 13.6162 4.88375 16.9531 9 16.9531C13.1162 16.9531 16.4531 13.6162 16.4531 9.5C16.4531 5.38375 13.1162 2.04688 9 2.04688ZM2.95312 9.5C2.95312 6.1604 5.6604 3.45312 9 3.45312C12.3396 3.45312 15.0469 6.1604 15.0469 9.5C15.0469 12.8396 12.3396 15.5469 9 15.5469C5.6604 15.5469 2.95312 12.8396 2.95312 9.5Z"/>
</svg>
