<svg viewBox="0 0 16 11" xmlns="http://www.w3.org/2000/svg">
<path fill-rule="evenodd" clip-rule="evenodd" d="M15.7576 1.07573C15.9919 1.31004 15.9919 1.68994 15.7576 1.92426L9.42425 8.25759C9.31173 8.37011 9.15911 8.43333 8.99998 8.43333C8.84085 8.43333 8.68824 8.37011 8.57572 8.25759L5.66665 5.34852L1.09091 9.92426C0.8566 10.1586 0.476701 10.1586 0.242386 9.92426C0.00807178 9.68994 0.00807172 9.31005 0.242386 9.07573L5.24239 4.07573C5.35491 3.96321 5.50752 3.89999 5.66665 3.89999C5.82578 3.89999 5.97839 3.96321 6.09091 4.07573L8.99998 6.9848L14.9091 1.07573C15.1434 0.841415 15.5233 0.841415 15.7576 1.07573Z"/>
<path fill-rule="evenodd" clip-rule="evenodd" d="M10.7333 1.49999C10.7333 1.16862 11.0019 0.899994 11.3333 0.899994H15.3333C15.6647 0.899994 15.9333 1.16862 15.9333 1.49999V5.49999C15.9333 5.83136 15.6647 6.09999 15.3333 6.09999C15.0019 6.09999 14.7333 5.83136 14.7333 5.49999V2.09999H11.3333C11.0019 2.09999 10.7333 1.83136 10.7333 1.49999Z"/>
</svg>
