<svg viewBox="0 0 16 11" xmlns="http://www.w3.org/2000/svg">
<path fill-rule="evenodd" clip-rule="evenodd" d="M15.7576 9.92426C15.9919 9.68994 15.9919 9.31005 15.7576 9.07573L9.42425 2.7424C9.31173 2.62988 9.15911 2.56666 8.99998 2.56666C8.84085 2.56666 8.68824 2.62988 8.57572 2.7424L5.66665 5.65147L1.09091 1.07573C0.8566 0.841415 0.476701 0.841415 0.242386 1.07573C0.00807174 1.31004 0.00807165 1.68994 0.242386 1.92426L5.24239 6.92426C5.35491 7.03678 5.50752 7.1 5.66665 7.1C5.82578 7.1 5.97839 7.03678 6.09091 6.92426L8.99998 4.01519L14.9091 9.92426C15.1434 10.1586 15.5233 10.1586 15.7576 9.92426Z"/>
<path fill-rule="evenodd" clip-rule="evenodd" d="M10.7333 9.5C10.7333 9.83137 11.0019 10.1 11.3333 10.1L15.3333 10.1C15.6647 10.1 15.9333 9.83137 15.9333 9.5L15.9333 5.5C15.9333 5.16862 15.6647 4.9 15.3333 4.9C15.0019 4.9 14.7333 5.16862 14.7333 5.5L14.7333 8.9L11.3333 8.89999C11.0019 8.89999 10.7333 9.16862 10.7333 9.5Z"/>
</svg>
