<svg viewBox="0 0 32 32" xmlns="http://www.w3.org/2000/svg">
<path clip-rule="evenodd" d="M4 12.9955C3.9997 13.1191 4.02215 13.2428 4.06757 13.3599L4.07255 13.3725C4.22081 13.7391 4.5802 13.9978 5 13.9978H11C11.5523 13.9978 12 13.5501 12 12.9978C12 12.4455 11.5523 11.9978 11 11.9978H7.52455L10.3248 9.36658C12.2891 7.40195 15.0919 6.59124 17.771 7.19743C20.4502 7.80361 22.6309 9.74192 23.5473 12.3314C23.7315 12.8521 24.303 13.1248 24.8236 12.9405C25.3442 12.7563 25.617 12.1849 25.4327 11.6642C24.2873 8.42735 21.5613 6.00447 18.2124 5.24674C14.8635 4.489 11.36 5.50239 8.93272 7.93089L6 10.6862V6.99782C6 6.44554 5.55229 5.99782 5 5.99782C4.44772 5.99782 4 6.44554 4 6.99782V12.9955ZM27 19.0023C27.0003 18.8787 26.9779 18.755 26.9324 18.6379L26.9275 18.6254C26.7792 18.2587 26.4198 18 26 18H20C19.4477 18 19 18.4477 19 19C19 19.5523 19.4477 20 20 20H23.4755L20.6752 22.6312C18.7109 24.5959 15.9081 25.4066 13.229 24.8004C10.5498 24.1942 8.36906 22.2559 7.45272 19.6664C7.26848 19.1458 6.69705 18.873 6.1764 19.0573C5.65576 19.2415 5.38304 19.813 5.56728 20.3336C6.71271 23.5705 9.43869 25.9934 12.7876 26.7511C16.1365 27.5088 19.64 26.4954 22.0673 24.0669L25 21.3116V25C25 25.5523 25.4477 26 26 26C26.5523 26 27 25.5523 27 25V19.0023Z">
</svg>
