<svg viewBox="0 0 32 32" xmlns="http://www.w3.org/2000/svg">
<path clip-rule="evenodd" d="M17.1535 4.91561C15.6592 4.25776 14.0352 3.94721 12.4036 4.00732C10.772 4.06744 9.17532 4.49665 7.73349 5.26269C6.29166 6.02872 5.04225 7.11165 4.07919 8.43006C3.11613 9.74847 2.46449 11.2681 2.17324 12.8746C1.882 14.4811 1.95873 16.1327 2.39768 17.7053C2.83663 19.2778 3.62637 20.7305 4.70753 21.9539C5.14645 22.4506 5.90489 22.4974 6.40157 22.0585C6.89825 21.6196 6.94507 20.8611 6.50615 20.3644C5.66525 19.4129 5.05101 18.2831 4.7096 17.0599C4.3682 15.8368 4.30851 14.5522 4.53504 13.3027C4.76156 12.0532 5.2684 10.8713 6.01744 9.8459C6.76649 8.82047 7.73825 7.97819 8.85968 7.38238C9.9811 6.78658 11.223 6.45275 12.492 6.40599C13.761 6.35924 15.0241 6.60077 16.1863 7.11244C17.3486 7.62411 18.3797 8.39259 19.2022 9.36012C20.0246 10.3276 20.6171 11.469 20.9349 12.6985C21.0719 13.2282 21.5497 13.5982 22.0969 13.5982H23.6083C24.6748 13.5989 25.7108 13.9548 26.5526 14.6097C27.3945 15.2645 27.9943 16.1811 28.2573 17.2147C28.5204 18.2483 28.4318 19.3401 28.0055 20.3177C27.5791 21.2954 26.8394 22.1032 25.9029 22.6137C25.321 22.931 25.1064 23.66 25.4237 24.2419C25.7409 24.8239 26.4699 25.0385 27.0519 24.7212C28.4565 23.9554 29.5662 22.7437 30.2057 21.2772C30.8452 19.8107 30.9781 18.173 30.5835 16.6226C30.1889 15.0722 29.2892 13.6974 28.0264 12.7151C26.7636 11.7328 25.2089 11.199 23.6091 11.1979H22.9839C22.5458 9.9601 21.8848 8.80992 21.031 7.80549C19.9735 6.56153 18.6478 5.57347 17.1535 4.91561ZM15.5595 15.1499C15.6773 15.0321 15.8135 14.9439 15.9589 14.8853C16.0977 14.8292 16.2493 14.7984 16.4082 14.7984C16.7201 14.7984 17.0043 14.9174 17.2178 15.1126C17.2325 15.1261 17.247 15.14 17.2611 15.1542L22.0574 19.9505C22.5261 20.4192 22.5261 21.1791 22.0574 21.6478C21.5887 22.1164 20.8288 22.1164 20.3601 21.6478L17.6083 18.896V26.7999C17.6083 27.4627 17.071 28 16.4082 28C15.7453 28 15.208 27.4627 15.208 26.7999V18.8959L12.4562 21.6478C11.9875 22.1164 11.2276 22.1164 10.7589 21.6478C10.2902 21.1791 10.2902 20.4192 10.7589 19.9505L15.5595 15.1499Z">
</svg>
