<svg xmlns="http://www.w3.org/2000/svg" viewBox="0 0 32 32">
    <path d="M5 26.0789c0 .6025.48842 1.091 1.09091 1.091H25.7273c.6025 0 1.0909-.4885 1.0909-1.091 0-.6024-.4884-1.0909-1.0909-1.0909H6.09095C5.48846 24.988 5 25.4765 5 26.0789z"/>
    <path fill-rule="evenodd" d="M8.29289 12.7071c.39053.3905 1.02369.3905 1.41422 0L16 6.41421l6.2929 6.29289c.3905.3905 1.0237.3905 1.4142 0 .3905-.3905.3905-1.0237 0-1.4142l-7-7.00001c-.3905-.39052-1.0237-.39052-1.4142 0L8.29289 11.2929c-.39052.3905-.39052 1.0237 0 1.4142z" clip-rule="evenodd"/>
    <path fill-rule="evenodd" d="M16 22c.5523 0 1-.4477 1-1V5c0-.55228-.4477-1-1-1s-1 .44772-1 1v16c0 .5523.4477 1 1 1z" clip-rule="evenodd"/>
</svg>
