<svg viewBox="0 0 32 32" xmlns="http://www.w3.org/2000/svg">
<path clip-rule="evenodd" d="M12.2 10C12.2 8.01178 13.8118 6.4 15.8 6.4C17.7882 6.4 19.4 8.01178 19.4 10C19.4 11.9882 17.7882 13.6 15.8 13.6C13.8118 13.6 12.2 11.9882 12.2 10ZM15.8 4C12.4863 4 9.8 6.68629 9.8 10C9.8 13.3137 12.4863 16 15.8 16C19.1137 16 21.8 13.3137 21.8 10C21.8 6.68629 19.1137 4 15.8 4ZM11 18.4C9.4087 18.4 7.88258 19.0321 6.75736 20.1574C5.63214 21.2826 5 22.8087 5 24.4V26.8C5 27.4627 5.53726 28 6.2 28C6.86274 28 7.4 27.4627 7.4 26.8V24.4C7.4 23.4452 7.77928 22.5295 8.45442 21.8544C9.12955 21.1793 10.0452 20.8 11 20.8H20.6C21.5548 20.8 22.4705 21.1793 23.1456 21.8544C23.8207 22.5295 24.2 23.4452 24.2 24.4V26.8C24.2 27.4627 24.7373 28 25.4 28C26.0627 28 26.6 27.4627 26.6 26.8V24.4C26.6 22.8087 25.9679 21.2826 24.8426 20.1574C23.7174 19.0321 22.1913 18.4 20.6 18.4H11Z"/>
</svg>
