<svg xmlns="http://www.w3.org/2000/svg" viewBox="0 0 10 16"><path  fill-rule="evenodd" d="M4.767 3.528A1.747 1.747 0 0 1 3.62 1.35 1.747 1.747 0 0 1 5.797.203 1.747 1.747 0 0 1 6.944 2.38a1.747 1.747 0 0 1-2.178 1.147Zm.126-2.24a.697.697 0 0 0-.19.963.697.697 0 0 0 .962.19.697.697 0 0 0 .19-.962.697.697 0 0 0-.962-.19ZM5.804 5.613v5.928l1.771 3.581a.523.523 0 0 1-.938.462L4.81 11.886l-1.434-1.833c-.008-.01-.016-.024-.024-.037l-.013-.019a2.895 2.895 0 0 1-.403-1.477V5.054c-.07.055-.147.116-.221.187a4.702 4.702 0 0 0-.29.308c-.125.147-.248.304-.356.461a8.12 8.12 0 0 0-.526.852V9.17a.523.523 0 1 1-1.043 0V6.74c0-.084.018-.16.055-.234.003-.01.099-.197.259-.468.16-.27.387-.63.667-.981.188-.234.394-.468.628-.674.132-.117.274-.228.428-.32a1.9 1.9 0 0 1 .572-.243c.11-.025.227-.04.347-.04h.514a1.819 1.819 0 0 1 1.024.314 1.831 1.831 0 0 1 .81 1.52ZM4.72 5.377a.773.773 0 0 0-.446-.492.74.74 0 0 0-.299-.062V8.52c0 .317.08.628.234.905l.548.698v-4.51a.848.848 0 0 0-.037-.236Z" clip-rule="evenodd"/><path  d="m7.059 6.705 2.16 1.419a.52.52 0 0 1 .15.723.519.519 0 0 1-.723.15L6.486 7.58a.519.519 0 0 1-.15-.723.519.519 0 0 1 .723-.15ZM4.453 12.234a.52.52 0 0 0-.726.138l-1.747 2.56a.52.52 0 0 0 .138.726c.237.16.563.098.726-.139l1.747-2.56a.52.52 0 0 0-.138-.725Z"/></svg>