<svg xmlns="http://www.w3.org/2000/svg" viewBox="0 0 32 32">
    <path fill-rule="evenodd"
        d="M15.585 8.049a3.106 3.106 0 0 1-2.04-3.872 3.106 3.106 0 0 1 3.872-2.04 3.106 3.106 0 0 1 2.04 3.872 3.106 3.106 0 0 1-3.872 2.04Zm.225-3.982a1.238 1.238 0 0 0-.493 1.39 1.238 1.238 0 0 0 1.542.815 1.238 1.238 0 0 0 .662-1.865 1.238 1.238 0 0 0-1.389-.493 1.166 1.166 0 0 0-.322.153ZM17.428 11.757v10.538l3.15 6.366a.93.93 0 0 1-1.667.82l-3.249-6.573-2.549-3.26a.748.748 0 0 1-.043-.064l-.022-.034a5.145 5.145 0 0 1-.717-2.625V10.76a5.095 5.095 0 0 0-.393.334c-.17.164-.345.35-.514.547a9.932 9.932 0 0 0-.635.82c-.262.372-.487.733-.656 1.023-.12.202-.213.372-.279.492v4.102c0 .514-.41.93-.924.93a.929.929 0 0 1-.93-.93v-4.32c0-.148.033-.285.098-.416.006-.017.175-.35.46-.832.284-.48.689-1.12 1.187-1.744.333-.416.7-.832 1.115-1.198.235-.208.487-.405.76-.569a3.378 3.378 0 0 1 1.018-.432c.197-.044.404-.07.618-.07h.913a3.232 3.232 0 0 1 1.821.558 3.256 3.256 0 0 1 1.438 2.7Zm-1.925-.421a1.33 1.33 0 0 0-.175-.367 1.373 1.373 0 0 0-.618-.508 1.315 1.315 0 0 0-.53-.11v6.574c0 .563.142 1.116.416 1.608l.973 1.241v-8.017c0-.148-.027-.29-.066-.421Z"
        clip-rule="evenodd" />
    <path
        d="m19.66 13.698 3.839 2.521a.923.923 0 0 1 .268 1.285.923.923 0 0 1-1.285.268l-3.84-2.52a.923.923 0 0 1-.267-1.286.923.923 0 0 1 1.285-.268ZM15.027 23.526a.926.926 0 0 0-1.29.246l-3.107 4.55c-.29.427-.18 1.001.247 1.29a.937.937 0 0 0 1.29-.245l3.107-4.55c.29-.427.18-1.001-.246-1.291Z" />
</svg>