<svg xmlns="http://www.w3.org/2000/svg" viewBox="0 0 32 32"><path fill-rule="evenodd" d="M18.555 1.862a2.656 2.656 0 013.647.981l3.01 5.258a2.675 2.675 0 012.197 2.626v3.054a2.127 2.127 0 011.09 1.855v3.273c0 .802-.443 1.492-1.09 1.856v3.053a2.684 2.684 0 01-2.682 2.682H6.182A2.684 2.684 0 013.5 23.818v-13.09a2.684 2.684 0 012.682-2.682h1.75l10.623-6.184zm2.194 2.49l-.344-.438a.605.605 0 00-.368-.303.555.555 0 00-.429.057l-7.52 4.378h2.17l6.49-3.694zM17.332 8.01l5.414.03-1.42-2.36-3.994 2.33zm-11.15 2.127a.592.592 0 00-.591.59v13.091c0 .325.266.591.59.591h18.546c.325 0 .59-.266.59-.59v-2.773h-2.772a3.776 3.776 0 01-3.773-3.773 3.776 3.776 0 013.773-3.773h2.773v-2.773a.592.592 0 00-.591-.59H6.182zm16.363 5.454c-.927 0-1.682.755-1.682 1.682 0 .927.755 1.682 1.682 1.682h3.818c.025 0 .046-.021.046-.046v-3.272c0-.093-3.512-.046-3.864-.046z" clip-rule="evenodd"/></svg>