<svg viewBox="0 0 32 32"  xmlns="http://www.w3.org/2000/svg">
<path clip-rule="evenodd" d="M14.4572 5.40445C14.9282 5.1393 15.4595 5 16 5C16.5405 5 17.0718 5.1393 17.5428 5.40445C18.0137 5.6696 18.4084 6.05165 18.6887 6.51375L18.6917 6.51872L27.5701 21.3405L27.5786 21.355C27.8532 21.8305 27.9985 22.3696 28 22.9187C28.0015 23.4678 27.8593 24.0077 27.5874 24.4847C27.3154 24.9618 26.9234 25.3593 26.4501 25.6378C25.9769 25.9162 25.439 26.0659 24.8899 26.072L24.8784 26.0721L7.11009 26.072C6.56103 26.066 6.02312 25.9162 5.54988 25.6378C5.07664 25.3593 4.68456 24.9618 4.41265 24.4847C4.14074 24.0077 3.99847 23.4678 4.00001 22.9187C4.00155 22.3696 4.14684 21.8305 4.42141 21.355L4.42993 21.3405L13.3083 6.51873L14.2075 7.05737L13.3113 6.51375C13.5916 6.05165 13.9863 5.6696 14.4572 5.40445ZM15.105 7.59893L6.23344 22.4094C6.14416 22.5664 6.09694 22.7439 6.09644 22.9246C6.09592 23.1076 6.14335 23.2876 6.23398 23.4466C6.32462 23.6056 6.45531 23.7381 6.61306 23.8309C6.76943 23.9229 6.94697 23.9728 7.12831 23.9756H24.8717C25.053 23.9728 25.2306 23.9229 25.3869 23.8309C25.5447 23.7381 25.6754 23.6056 25.766 23.4466C25.8567 23.2876 25.9041 23.1076 25.9036 22.9246C25.9031 22.7439 25.8559 22.5664 25.7666 22.4094L16.8962 7.60101L16.895 7.59893C16.8016 7.44583 16.6705 7.31923 16.5143 7.23125C16.3573 7.14286 16.1802 7.09643 16 7.09643C15.8198 7.09643 15.6427 7.14286 15.4857 7.23125C15.3295 7.31923 15.1984 7.44583 15.105 7.59893ZM16 11.397C16.5789 11.397 17.0482 11.8663 17.0482 12.4452V16.6381C17.0482 17.217 16.5789 17.6863 16 17.6863C15.4211 17.6863 14.9518 17.217 14.9518 16.6381V12.4452C14.9518 11.8663 15.4211 11.397 16 11.397ZM15.9948 19.7827C15.4188 19.7827 14.9518 20.252 14.9518 20.831C14.9518 21.4099 15.4188 21.8792 15.9948 21.8792H16.0052C16.5813 21.8792 17.0482 21.4099 17.0482 20.831C17.0482 20.252 16.5813 19.7827 16.0052 19.7827H15.9948Z" />
</svg>
