<?xml version="1.0" encoding="UTF-8"?>
<svg viewBox="0 0 90 30" version="1.1" xmlns="http://www.w3.org/2000/svg" xmlns:xlink="http://www.w3.org/1999/xlink">
    <defs></defs>
    <g id="Landing" stroke="none" stroke-width="1" fill="none" fill-rule="evenodd">
        <g id="Desktop" transform="translate(-129.000000, -877.000000)">
            <g id="Footer" transform="translate(0.000000, 855.000000)">
                <g id="logo-urban-analytics" transform="translate(130.000000, 22.000000)">
                    <g id="Page-1">
                        <path d="M86.860258,8.72552542 C86.4344739,8.90094915 85.7942807,9.0499322 84.9422068,9.17349153 C84.4592807,9.24315254 84.1159227,9.32247458 83.9171898,9.41044068 C83.7169398,9.49789831 83.5627068,9.62501695 83.4524682,9.79484746 C83.3442523,9.96315254 83.2896386,10.1507797 83.2896386,10.3567119 C83.2896386,10.6724746 83.4099909,10.9358644 83.64665,11.1463729 C83.8833091,11.3573898 84.2312182,11.4621356 84.6878489,11.4621356 C85.1399284,11.4621356 85.5424511,11.3624746 85.8949114,11.1631525 C86.2473716,10.9638305 86.5067864,10.6897627 86.6721443,10.3445085 C86.7970477,10.0760339 86.860258,9.68094915 86.860258,9.16027119 L86.860258,8.72552542 Z M82.087633,23.9624746 L83.4681443,23.743322 C83.5439966,24.3001017 83.7599227,24.7287458 84.1133943,25.0251864 C84.4688886,25.3211186 84.9629398,25.4701017 85.5980761,25.4701017 C86.2392807,25.4701017 86.7161386,25.3384068 87.0240989,25.0750169 C87.3350932,24.8121356 87.4903375,24.504 87.4903375,24.1501017 C87.4903375,23.8328136 87.3522864,23.5831525 87.0787125,23.4006102 C86.8890818,23.2760339 86.4122239,23.1163729 85.6521841,22.923661 C84.6296955,22.6628136 83.9212352,22.4380678 83.525792,22.2478983 C83.1308545,22.0587458 82.8304795,21.7948475 82.6251727,21.4587458 C82.4229,21.1226441 82.3202466,20.7514576 82.3202466,20.3462034 C82.3202466,19.9765424 82.4031784,19.6338305 82.5710648,19.3190847 C82.7399625,19.0038305 82.9685307,18.7419661 83.2577807,18.5329831 C83.4747182,18.3723051 83.7700364,18.2360339 84.145758,18.1241695 C84.5199625,18.0107797 84.9214739,17.9548475 85.3513034,17.9548475 C85.9970591,17.9548475 86.5634227,18.0494237 87.0529227,18.2370508 C87.5409057,18.4241695 87.9009511,18.6784068 88.1335648,18.9982373 C88.3666841,19.3190847 88.5269852,19.7467119 88.6134568,20.2841695 L87.2491273,20.4712881 C87.1869284,20.044678 87.0074114,19.7111186 86.7120932,19.4701017 C86.4137409,19.2306102 85.994025,19.1116271 85.4519341,19.1116271 C84.8102239,19.1116271 84.3535932,19.2178983 84.0800193,19.4319661 C83.8064455,19.6455254 83.6683943,19.8951864 83.6683943,20.1814576 C83.6683943,20.3634915 83.7250307,20.5282373 83.8383034,20.674678 C83.9535989,20.824678 84.1315989,20.9502712 84.3743261,21.0494237 C84.5133886,21.1012881 84.9240023,21.2207797 85.6066727,21.4078983 C86.594775,21.674339 87.2825023,21.8909492 87.6718773,22.0612881 C88.0622636,22.2301017 88.3692125,22.4756949 88.5917125,22.7985763 C88.8132011,23.1214576 88.9244511,23.5226441 88.9244511,24.0016271 C88.9244511,24.4709492 88.787917,24.9117966 88.5163659,25.3251864 C88.2468375,25.7395932 87.8544284,26.0604407 87.3431841,26.2862034 C86.8319398,26.5129831 86.2524284,26.6258644 85.6066727,26.6258644 C84.53665,26.6258644 83.7209852,26.4016271 83.1611955,25.953661 C82.6003943,25.5056949 82.2418659,24.8426441 82.087633,23.9624746 L82.087633,23.9624746 Z M87.1935023,12.2319661 C87.0721386,11.9858644 86.993758,11.6985763 86.9583602,11.3706102 C86.5234739,11.7428136 86.105275,12.0056949 85.7027523,12.1597627 C85.2997239,12.313322 84.8673659,12.3895932 84.4061841,12.3895932 C83.645133,12.3895932 83.0600591,12.2029831 82.6509625,11.8277288 C82.2418659,11.4524746 82.0375705,10.9729831 82.0375705,10.3892542 C82.0375705,10.0485763 82.1139284,9.73535593 82.268667,9.45264407 C82.4239114,9.16942373 82.6251727,8.94213559 82.8770023,8.77230508 C83.1273148,8.60094915 83.4084739,8.47179661 83.7209852,8.38433898 C83.9505648,8.32179661 84.3004966,8.26281356 84.7652182,8.20586441 C85.7138773,8.09145763 86.4122239,7.95569492 86.860258,7.79755932 C86.8643034,7.63586441 86.8668318,7.53315254 86.8668318,7.48789831 C86.8668318,7.00688136 86.7555818,6.66671186 86.5335875,6.46840678 C86.2342239,6.20145763 85.7892239,6.06722034 85.1965648,6.06722034 C84.6438545,6.06722034 84.236275,6.16586441 83.9728148,6.36162712 C83.7098602,6.55637288 83.5161841,6.90061017 83.3882466,7.39637288 L82.2388318,7.23823729 C82.343508,6.74349153 82.5154398,6.34383051 82.7556386,6.03823729 C82.9943205,5.73366102 83.3402068,5.49874576 83.7938034,5.33501695 C84.2463886,5.17027119 84.7692636,5.08789831 85.3654625,5.08789831 C85.9581216,5.08789831 86.4395307,5.1580678 86.8086784,5.29738983 C87.1778261,5.43823729 87.4503886,5.61569492 87.6248489,5.82772881 C87.797792,6.04077966 87.9216841,6.30925424 87.9899511,6.63315254 C88.0299,6.83552542 88.0496216,7.19959322 88.0496216,7.72586441 L88.0496216,9.30518644 C88.0496216,10.4060339 88.0733886,11.1021356 88.1229455,11.3929831 C88.1735136,11.684339 88.2726273,11.9645085 88.4212977,12.2319661 L87.1935023,12.2319661 Z M80.7713432,11.2190847 C80.9018091,11.2190847 81.0737409,11.203322 81.286633,11.1723051 L81.456542,12.2182373 C81.1248148,12.2894237 80.830508,12.3234915 80.5690705,12.3234915 C80.1417693,12.3234915 79.8110534,12.2558644 79.5774284,12.1206102 C79.3422864,11.9848475 79.1774341,11.8053559 79.0803432,11.5841695 C78.9847693,11.3624746 78.9372352,10.8956949 78.9372352,10.1863729 L78.9372352,6.16738983 L78.0760591,6.16738983 L78.0760591,5.24552542 L78.9372352,5.24552542 L78.9372352,3.51518644 L80.1053602,2.80535593 L80.1053602,5.24552542 L81.286633,5.24552542 L81.286633,6.16738983 L80.1053602,6.16738983 L80.1053602,10.2514576 C80.1053602,10.5890847 80.1260932,10.8067119 80.1675591,10.9028136 C80.2100364,10.9999322 80.2767864,11.0767119 80.3688205,11.1326441 C80.463383,11.1901017 80.596883,11.2190847 80.7713432,11.2190847 L80.7713432,11.2190847 Z M80.0795705,23.4006102 L81.4519909,23.5795932 C81.3018034,24.5329831 80.9184966,25.2789153 80.3015648,25.8168814 C79.6836216,26.3568814 78.9256045,26.6258644 78.027008,26.6258644 C76.8988318,26.6258644 75.994167,26.2556949 75.3094739,25.5123051 C74.624275,24.7714576 74.2824341,23.7077288 74.2824341,22.3226441 C74.2824341,21.4267119 74.4305989,20.6426441 74.7249057,19.9714576 C75.0182011,19.2987458 75.4662352,18.7953559 76.069008,18.4592542 C76.6707693,18.1241695 77.326133,17.9548475 78.0335818,17.9548475 C78.9276273,17.9548475 79.6603602,18.1841695 80.2282409,18.6397627 C80.7961216,19.0938305 81.1612239,19.7416271 81.321525,20.5801017 L79.964275,20.7916271 C79.8353261,20.233322 79.606758,19.814339 79.2790761,19.5326441 C78.9498773,19.2519661 78.5524114,19.1116271 78.0876898,19.1116271 C77.3858034,19.1116271 76.8148886,19.3653559 76.3764625,19.873322 C75.935508,20.3807797 75.7165477,21.184678 75.7165477,22.2829831 C75.7165477,23.3975593 75.9279227,24.2070508 76.3526955,24.7119661 C76.7749398,25.2178983 77.3286614,25.4701017 78.0118375,25.4701017 C78.5589852,25.4701017 79.0156159,25.3017966 79.3837523,24.9621356 C79.7488545,24.6234915 79.9809625,24.1023051 80.0795705,23.4006102 L80.0795705,23.4006102 Z M75.7125023,8.72552542 C75.2852011,8.90094915 74.646525,9.0499322 73.7929341,9.17349153 C73.310008,9.24315254 72.968167,9.32247458 72.7684227,9.41044068 C72.567667,9.49789831 72.4144455,9.62501695 72.3047125,9.79484746 C72.1964966,9.96315254 72.1423886,10.1507797 72.1423886,10.3567119 C72.1423886,10.6724746 72.2607182,10.9358644 72.4983886,11.1463729 C72.734542,11.3573898 73.0819455,11.4621356 73.5385761,11.4621356 C73.9921727,11.4621356 74.3931784,11.3624746 74.7456386,11.1631525 C75.0991102,10.9638305 75.3590307,10.6897627 75.523883,10.3445085 C75.649292,10.0760339 75.7125023,9.68094915 75.7125023,9.16027119 L75.7125023,8.72552542 Z M71.1896841,26.4377288 L72.5838489,26.4377288 L72.5838489,18.1424746 L71.1896841,18.1424746 L71.1896841,26.4377288 Z M71.1896841,16.6048475 L72.5838489,16.6048475 L72.5838489,14.9868814 L71.1896841,14.9868814 L71.1896841,16.6048475 Z M76.0452409,12.2319661 C75.924383,11.9858644 75.8444852,11.6985763 75.8106045,11.3706102 C75.3757182,11.7428136 74.9560023,12.0056949 74.5534795,12.1597627 C74.1519682,12.313322 73.7196102,12.3895932 73.257417,12.3895932 C72.4958602,12.3895932 71.911292,12.2029831 71.5016898,11.8277288 C71.0936045,11.4524746 70.8888034,10.9729831 70.8888034,10.3892542 C70.8888034,10.0485763 70.965667,9.73535593 71.1209114,9.45264407 C71.2746386,9.16942373 71.477417,8.94213559 71.7277295,8.77230508 C71.978042,8.60094915 72.2597068,8.47179661 72.5732295,8.38433898 C72.8028091,8.32179661 73.1517295,8.26281356 73.6179682,8.20586441 C74.5651102,8.09145763 75.2644682,7.95569492 75.7125023,7.79755932 C75.7165477,7.63586441 75.7190761,7.53315254 75.7190761,7.48789831 C75.7190761,7.00688136 75.6078261,6.66671186 75.3863375,6.46840678 C75.0864682,6.20145763 74.6384341,6.06722034 74.0488091,6.06722034 C73.4960989,6.06722034 73.0870023,6.16586441 72.823542,6.36162712 C72.5615989,6.55637288 72.3653943,6.90061017 72.2399852,7.39637288 L71.0910761,7.23823729 C71.1957523,6.74349153 71.3671784,6.34383051 71.6063659,6.03823729 C71.8465648,5.73366102 72.1924511,5.49874576 72.6445307,5.33501695 C73.0961045,5.17027119 73.6210023,5.08789831 74.2177068,5.08789831 C74.8088489,5.08789831 75.290258,5.1580678 75.6599114,5.29738983 C76.0300705,5.43823729 76.302633,5.61569492 76.4770932,5.82772881 C76.6500364,6.04077966 76.7714,6.30925424 76.8411841,6.63315254 C76.881133,6.83552542 76.9003489,7.19959322 76.9003489,7.72586441 L76.9003489,9.30518644 C76.9003489,10.4060339 76.9246216,11.1021356 76.9746841,11.3929831 C77.0252523,11.684339 77.1248716,11.9645085 77.272025,12.2319661 L76.0452409,12.2319661 Z M69.2069057,25.2362034 C69.3616443,25.2362034 69.5644227,25.2178983 69.8187807,25.1797627 L70.0210534,26.4229831 C69.6261159,26.5068814 69.2766898,26.5480678 68.9651898,26.5480678 C68.4590023,26.5480678 68.0670989,26.4672203 67.7879625,26.3060339 C67.5088261,26.1438305 67.3116102,25.9328136 67.1978318,25.6694237 C67.0845591,25.4060339 67.027417,24.853322 67.027417,24.0092542 L67.027417,19.2367119 L66.0054341,19.2367119 L66.0054341,18.1424746 L67.027417,18.1424746 L67.027417,16.0887458 L68.415008,15.2451864 L68.415008,18.1424746 L69.8187807,18.1424746 L69.8187807,19.2367119 L68.415008,19.2367119 L68.415008,24.0880678 C68.415008,24.4877288 68.4397864,24.7460339 68.4888375,24.8614576 C68.5394057,24.9758644 68.618292,25.0658644 68.7290364,25.134 C68.8397807,25.2016271 68.9990705,25.2362034 69.2069057,25.2362034 L69.2069057,25.2362034 Z M63.0507352,11.0945085 L65.0926784,11.0945085 C65.7252864,11.0945085 66.2198432,11.034 66.5788773,10.9160339 C66.9374057,10.7975593 67.2236216,10.6317966 67.4370193,10.4162034 C67.736383,10.1131525 67.970008,9.70688136 68.1378943,9.19586441 C68.3042636,8.68586441 68.3897239,8.06501695 68.3897239,7.33789831 C68.3897239,6.32959322 68.2253773,5.55467797 67.8961784,5.01213559 C67.5684966,4.47061017 67.1700193,4.1080678 66.6987239,3.924 C66.3589057,3.79179661 65.813275,3.72569492 65.0608205,3.72569492 L63.0507352,3.72569492 L63.0507352,11.0945085 Z M61.7840023,12.2319661 L61.7840023,2.58722034 L65.0800364,2.58722034 C65.822883,2.58722034 66.3922807,2.63450847 66.7836784,2.72552542 C67.3323432,2.85366102 67.7995932,3.08298305 68.1869455,3.41705085 C68.6916159,3.84620339 69.0683489,4.39535593 69.3201784,5.06501695 C69.5694795,5.73366102 69.6948886,6.49840678 69.6948886,7.35823729 C69.6948886,8.0899322 69.6094284,8.73823729 69.4405307,9.30518644 C69.2701159,9.86959322 69.0526727,10.3373898 68.7871898,10.7085763 C68.5212011,11.0792542 68.2319511,11.3721356 67.9159,11.5841695 C67.6008602,11.7972203 67.2200818,11.9578983 66.7745761,12.0672203 C66.3275534,12.1775593 65.8158034,12.2319661 65.2373034,12.2319661 L61.7840023,12.2319661 Z M59.670758,29.8053559 C59.4012295,29.8053559 59.1013602,29.7468814 58.77115,29.6329831 L58.6164114,28.3124746 C58.9213375,28.3968814 59.1868205,28.4380678 59.4143773,28.4380678 C59.7253716,28.4380678 59.9716386,28.3862034 60.1577295,28.2824746 C60.3448318,28.1772203 60.497042,28.0323051 60.616383,27.8451864 C60.7033602,27.7038305 60.8459625,27.3550169 61.0431784,26.7982373 C61.0674511,26.7194237 61.108917,26.6055254 61.1670705,26.4534915 L58.0419568,18.1424746 L59.5458545,18.1424746 L61.2601159,22.9475593 C61.4821102,23.5562034 61.6798318,24.1968814 61.8553034,24.8680678 C62.0166159,24.223322 62.2077636,23.593322 62.4292523,22.9780678 L64.189025,18.1424746 L65.5847068,18.1424746 L62.4525136,26.5785763 C62.1172466,27.4902712 61.8553034,28.1177288 61.6707295,28.4619661 C61.4214284,28.9251864 61.1377409,29.2648475 60.8186557,29.4814576 C60.497042,29.6965424 60.1147466,29.8053559 59.670758,29.8053559 L59.670758,29.8053559 Z M55.2768886,26.4387458 L56.6710534,26.4387458 L56.6710534,14.9868814 L55.2768886,14.9868814 L55.2768886,26.4387458 Z M54.1992807,12.2319661 L54.1992807,5.24552542 L55.2576727,5.24552542 L55.2576727,6.23857627 C55.7663886,5.47179661 56.5006386,5.08789831 57.4634568,5.08789831 C57.8806443,5.08789831 58.2639511,5.16315254 58.613883,5.31518644 C58.9648261,5.46620339 59.2267693,5.66450847 59.4012295,5.91010169 C59.5756898,6.15467797 59.6965477,6.44755932 59.7668375,6.78518644 C59.8093148,7.00433898 59.8325761,7.38874576 59.8325761,7.93637288 L59.8325761,12.2319661 L58.6568659,12.2319661 L58.6568659,7.98264407 C58.6568659,7.50010169 58.6113545,7.13857627 58.5193205,6.90061017 C58.427792,6.66162712 58.2664795,6.4699322 58.0343716,6.3280678 C57.8002409,6.18518644 57.5281841,6.114 57.2146614,6.114 C56.7140364,6.114 56.2821841,6.27518644 55.9196102,6.59349153 C55.556025,6.91383051 55.3734739,7.52094915 55.3734739,8.41586441 L55.3734739,12.2319661 L54.1992807,12.2319661 Z M51.1899682,8.72552542 C50.762667,8.90094915 50.1229795,9.0499322 49.2704,9.17349153 C48.7879795,9.24315254 48.445633,9.32247458 48.2458886,9.41044068 C48.0456386,9.49789831 47.8919114,9.62501695 47.7826841,9.79484746 C47.6739625,9.96315254 47.6193489,10.1507797 47.6193489,10.3567119 C47.6193489,10.6724746 47.7386898,10.9358644 47.9748432,11.1463729 C48.212008,11.3573898 48.5594114,11.4621356 49.016042,11.4621356 C49.4681216,11.4621356 49.87115,11.3624746 50.2231045,11.1631525 C50.5770818,10.9638305 50.8354852,10.6897627 51.0003375,10.3445085 C51.126758,10.0760339 51.1899682,9.68094915 51.1899682,9.16027119 L51.1899682,8.72552542 Z M51.7361045,22.274339 C51.2273886,22.4838305 50.4698773,22.6597627 49.4564909,22.8062034 C48.8830477,22.8901017 48.4769852,22.9831525 48.2393148,23.0868814 C48.0016443,23.1916271 47.8170705,23.344678 47.689133,23.544 C47.5601841,23.744339 47.4954568,23.9680678 47.4954568,24.2126441 C47.4954568,24.5873898 47.636542,24.9001017 47.9177011,25.1497627 C48.1993659,25.3994237 48.6109909,25.5245085 49.1545989,25.5245085 C49.6901159,25.5245085 50.1689966,25.4060339 50.5882068,25.1695932 C51.0059,24.9316271 51.3138602,24.6087458 51.5115818,24.1968814 C51.6602523,23.8790847 51.7361045,23.4097627 51.7361045,22.7904407 L51.7361045,22.274339 Z M51.5232125,12.2319661 C51.4003318,11.9858644 51.3219511,11.6985763 51.2865534,11.3706102 C50.8531841,11.7428136 50.4339739,12.0056949 50.0309455,12.1597627 C49.6284227,12.313322 49.1960648,12.3895932 48.734883,12.3895932 C47.9733261,12.3895932 47.3882523,12.2029831 46.9796614,11.8277288 C46.5715761,11.4524746 46.3662693,10.9729831 46.3662693,10.3892542 C46.3662693,10.0485763 46.4436386,9.73535593 46.5973659,9.45264407 C46.7526102,9.16942373 46.954883,8.94213559 47.2036784,8.77230508 C47.455508,8.60094915 47.7371727,8.47179661 48.0506955,8.38433898 C48.280275,8.32179661 48.6286898,8.26281356 49.0949284,8.20586441 C50.0425761,8.09145763 50.7419341,7.95569492 51.1899682,7.79755932 C51.1940136,7.63586441 51.1970477,7.53315254 51.1970477,7.48789831 C51.1970477,7.00688136 51.0857977,6.66671186 50.8632977,6.46840678 C50.5629227,6.20145763 50.1164057,6.06722034 49.524758,6.06722034 C48.9725534,6.06722034 48.5649739,6.16586441 48.301008,6.36162712 C48.0380534,6.55637288 47.8428602,6.90061017 47.7179568,7.39637288 L46.568542,7.23823729 C46.6732182,6.74349153 46.84515,6.34383051 47.0838318,6.03823729 C47.3225136,5.73366102 47.669917,5.49874576 48.1219966,5.33501695 C48.5735705,5.17027119 49.0989739,5.08789831 49.6941614,5.08789831 C50.2868205,5.08789831 50.7682295,5.1580678 51.1368716,5.29738983 C51.506525,5.43823729 51.7785818,5.61569492 51.9545591,5.82772881 C52.1269966,6.04077966 52.2488659,6.30925424 52.3181443,6.63315254 C52.3580932,6.83552542 52.3778148,7.19959322 52.3778148,7.72586441 L52.3778148,9.30518644 C52.3778148,10.4060339 52.4020875,11.1021356 52.4526557,11.3929831 C52.5032239,11.684339 52.6013261,11.9645085 52.7494909,12.2319661 L51.5232125,12.2319661 Z M52.131042,26.4392542 C51.9854057,26.1463729 51.8923602,25.8062034 51.8524114,25.4156949 C51.3345932,25.8580678 50.8364966,26.1707797 50.3601443,26.3528136 C49.8812636,26.534339 49.3685023,26.6258644 48.8213545,26.6258644 C47.9161841,26.6258644 47.221883,26.4031525 46.735417,25.9577288 C46.2499625,25.5123051 46.0072352,24.9438305 46.0072352,24.2512881 C46.0072352,23.8455254 46.0992693,23.4738305 46.2823261,23.1382373 C46.465383,22.8021356 46.7060875,22.5326441 47.0039341,22.3292542 C47.299758,22.1268814 47.6355307,21.9728136 48.0067011,21.8695932 C48.280275,21.7963729 48.693417,21.7262034 49.2461273,21.6580678 C50.3743034,21.5223051 51.2026102,21.3616271 51.7361045,21.1745085 C51.74015,20.9817966 51.7441955,20.8592542 51.7441955,20.8058644 C51.7441955,20.233322 51.6106955,19.8306102 51.3467295,19.5956949 C50.9912352,19.2789153 50.4612807,19.1192542 49.7588886,19.1192542 C49.1030193,19.1192542 48.6175648,19.2351864 48.3050534,19.4675593 C47.9930477,19.6989153 47.7604341,20.1082373 47.6117636,20.6970508 L46.2474341,20.5099322 C46.3713261,19.9206102 46.5756216,19.4462034 46.8588034,19.084678 C47.1435023,18.7221356 47.5551273,18.444 48.0921614,18.2487458 C48.6286898,18.0534915 49.2527011,17.9548475 49.9596443,17.9548475 C50.6620364,17.9548475 51.2329511,18.0382373 51.6728943,18.2050169 C52.1118261,18.3723051 52.4344511,18.5812881 52.6422864,18.8334915 C52.8486045,19.0872203 52.9932295,19.4065424 53.0756557,19.7909492 C53.1226841,20.0309492 53.1454398,20.4631525 53.1454398,21.0875593 L53.1454398,22.9617966 C53.1454398,24.2695932 53.1757807,25.0963729 53.2349455,25.4421356 C53.2941102,25.7889153 53.4114284,26.1209492 53.5869,26.4392542 L52.131042,26.4392542 Z M40.402258,8.68586441 C40.402258,9.52433898 40.516542,10.1294237 40.7420761,10.5011186 C41.1122352,11.1112881 41.6123545,11.4158644 42.2434455,11.4158644 C42.7567125,11.4158644 43.2007011,11.1911186 43.5738943,10.7421356 C43.9486045,10.2931525 44.1372239,9.62247458 44.1372239,8.73213559 C44.1372239,7.82044068 43.9561898,7.14671186 43.5971557,6.7119661 C43.2381216,6.27874576 42.8032352,6.06061017 42.295025,6.06061017 C41.7822636,6.06061017 41.338275,6.28637288 40.9635648,6.73586441 C40.5893602,7.18484746 40.402258,7.83518644 40.402258,8.68586441 L40.402258,8.68586441 Z M40.4154057,12.2319661 L39.32465,12.2319661 L39.32465,2.58722034 L40.5003602,2.58722034 L40.5003602,6.02908475 C40.9964341,5.40162712 41.629042,5.08789831 42.3991955,5.08789831 C42.8264966,5.08789831 43.229525,5.17433898 43.6103034,5.34671186 C43.9910818,5.52061017 44.3051102,5.76416949 44.5498602,6.07738983 C44.7961273,6.39162712 44.988792,6.76891525 45.1283602,7.21281356 C45.2664114,7.65569492 45.3361955,8.12857627 45.3361955,8.634 C45.3361955,9.8299322 45.0434057,10.7563729 44.454792,11.4092542 C43.8682011,12.0631525 43.1637864,12.3895932 42.3415477,12.3895932 C41.5228489,12.3895932 40.8801273,12.0458644 40.4154057,11.3573898 L40.4154057,12.2319661 Z M37.6493261,26.4392542 L37.6493261,18.1424746 L38.9049341,18.1424746 L38.9049341,19.3231525 C39.5087182,18.4109492 40.3820307,17.9548475 41.5243659,17.9548475 C42.0199341,17.9548475 42.4760591,18.0458644 42.8927409,18.2248475 C43.3094227,18.4048475 43.6194057,18.6407797 43.8267352,18.9321356 C44.0335591,19.2229831 44.1771727,19.5702712 44.2611159,19.9714576 C44.3121898,20.2323051 44.3379795,20.6863729 44.3379795,21.3382373 L44.3379795,26.4392542 L42.9428034,26.4392542 L42.9428034,21.3926441 C42.9428034,20.8195932 42.8886955,20.3909492 42.7799739,20.1072203 C42.671758,19.824 42.4780818,19.5982373 42.2019795,19.4273898 C41.9258773,19.2585763 41.6027466,19.173661 41.2300591,19.173661 C40.635883,19.173661 40.1236273,19.3638305 39.6912693,19.7441695 C39.2599227,20.1245085 39.0445023,20.8460339 39.0445023,21.9077288 L39.0445023,26.4392542 L37.6493261,26.4392542 Z M34.8675705,12.2319661 L34.8675705,5.24552542 L35.9254568,5.24552542 L35.9254568,6.30518644 C36.1944795,5.8099322 36.443275,5.48247458 36.6718432,5.32433898 C36.9004114,5.16620339 37.1522409,5.08789831 37.4258148,5.08789831 C37.8217636,5.08789831 38.223275,5.21501695 38.6338886,5.46874576 L38.2288375,6.5680678 C37.9421159,6.39671186 37.6538773,6.31179661 37.3676614,6.31179661 C37.110775,6.31179661 36.8796784,6.38908475 36.6758886,6.54416949 C36.4705818,6.70027119 36.3254511,6.91688136 36.2384739,7.19298305 C36.108008,7.61450847 36.0432807,8.07416949 36.0432807,8.57450847 L36.0432807,12.2319661 L34.8675705,12.2319661 Z M29.2711898,21.7363729 L33.1229682,21.7363729 L31.9371443,18.5650169 C31.5755818,17.6019661 31.3070648,16.8092542 31.1300761,16.1904407 C30.9869682,16.924678 30.782167,17.653322 30.5182011,18.3778983 L29.2711898,21.7363729 Z M31.9887239,12.2319661 L31.9887239,11.2058644 C31.4491614,11.9950169 30.7159227,12.3895932 29.789008,12.3895932 C29.3799114,12.3895932 28.9976159,12.3107797 28.6426273,12.153661 C28.2891557,11.9950169 28.0256955,11.7972203 27.8537636,11.5577288 C27.6823375,11.3192542 27.5609739,11.0258644 27.4911898,10.6795932 C27.4421386,10.4467119 27.4188773,10.0785763 27.4188773,9.57366102 L27.4188773,5.24552542 L28.5935761,5.24552542 L28.5935761,9.12010169 C28.5935761,9.73840678 28.6178489,10.1558644 28.6658886,10.3694237 C28.7392125,10.6821356 28.8969852,10.9267119 29.1361727,11.103661 C29.3758659,11.2811186 29.6716898,11.3706102 30.022633,11.3706102 C30.3766102,11.3706102 30.7068205,11.2785763 31.0152864,11.0970508 C31.3252693,10.9145085 31.5432182,10.6673898 31.67065,10.353661 C31.8001045,10.0404407 31.8648318,9.58535593 31.8648318,8.98942373 L31.8648318,5.24552542 L33.039025,5.24552542 L33.039025,12.2319661 L31.9887239,12.2319661 Z M25.9928545,26.4392542 L30.3558773,14.9868814 L31.9755761,14.9868814 L36.6268375,26.4392542 L34.9135875,26.4392542 L33.5876898,22.9699322 L28.8378205,22.9699322 L27.589292,26.4392542 L25.9928545,26.4392542 Z" id="Fill-1" fill="#7D7B7B"></path>
                        <polygon id="Stroke-3" stroke="#D2C385" stroke-linecap="round" stroke-linejoin="round" points="0.279996023 5.75313559 0.279996023 5.73889831 0.252689205 5.75313559 0.279996023 16.705678 9.72663807 11.2070339"></polygon>
                        <polygon id="Stroke-5" stroke="#D2C385" stroke-linecap="round" stroke-linejoin="round" points="19.1443045 16.6607288 19.1175034 5.72344068 9.72648636 11.2058136"></polygon>
                        <polygon id="Stroke-7" stroke="#D2C385" stroke-linecap="round" stroke-linejoin="round" points="0.279996023 16.705678 9.72663807 22.1600847 9.72663807 11.2075424"></polygon>
                        <polygon id="Stroke-9" stroke="#D2C385" stroke-linecap="round" stroke-linejoin="round" points="9.72496932 11.2068305 9.72496932 22.1598814 19.1432932 16.6617458"></polygon>
                        <polygon id="Stroke-11" stroke="#D2C385" stroke-linecap="square" stroke-linejoin="round" points="9.72496932 11.2068305 19.1175034 5.72394915 19.1175034 5.70767797 9.67136705 0.254288136 0.279844318 5.73869492 0.279844318 5.7529322"></polygon>
                        <polygon id="Stroke-13" stroke="#D2C385" stroke-linecap="round" stroke-linejoin="round" points="9.72496932 22.1598814 19.1706 27.6122542 19.1706 16.6617458"></polygon>
                    </g>
                </g>
            </g>
        </g>
    </g>
</svg>