<svg width="134" height="41" viewBox="0 0 134 41" fill="none" xmlns="http://www.w3.org/2000/svg">
<path fill-rule="evenodd" clip-rule="evenodd" d="M28 16L13.9787 8L13.9787 24.5L28 16Z" fill="#55BAA9"/>
<path fill-rule="evenodd" clip-rule="evenodd" d="M14 8L4.62215e-05 1.88032e-05L0 16L14 8Z" fill="#F2BF12"/>
<path fill-rule="evenodd" clip-rule="evenodd" d="M14 24.5L14 8L1.69677e-06 16L14 24.5Z" fill="#FAC6A0"/>
<path fill-rule="evenodd" clip-rule="evenodd" d="M14 24.5L6.99385e-07 33L14.0592 41L28 33L14 24.5Z" fill="#1778FB"/>
<path fill-rule="evenodd" clip-rule="evenodd" d="M28 33L28 16L14 24.5L28 33Z" fill="#48AAF1"/>
<path fill-rule="evenodd" clip-rule="evenodd" d="M1.48619e-06 16L9.53674e-07 33L14 24.5L1.48619e-06 16Z" fill="#FEF9E7"/>
<path d="M52.454 15.4491C54.0243 15.4491 55.4441 15.8137 56.7132 16.5429C57.9824 17.2507 58.9719 18.2587 59.6818 19.567C60.4132 20.8539 60.7789 22.3231 60.7789 23.9746C60.7789 25.626 60.4132 27.0952 59.6818 28.3821C58.9719 29.6689 57.9824 30.677 56.7132 31.4062C55.4441 32.1354 54.0243 32.5 52.454 32.5C50.9482 32.5 49.5822 32.1461 48.3561 31.4384C47.1514 30.7091 46.2157 29.7011 45.5488 28.4142V32.3713H44V8.50002H45.6134V19.4062C46.2802 18.1622 47.216 17.1971 48.4206 16.5107C49.6252 15.803 50.9697 15.4491 52.454 15.4491ZM52.3572 31.0523C53.6479 31.0523 54.8095 30.752 55.842 30.1515C56.8746 29.551 57.6813 28.7145 58.2621 27.6421C58.8644 26.5697 59.1655 25.3472 59.1655 23.9746C59.1655 22.6019 58.8644 21.3794 58.2621 20.307C57.6813 19.2346 56.8746 18.3981 55.842 17.7976C54.8095 17.1971 53.6479 16.8968 52.3572 16.8968C51.0665 16.8968 49.9049 17.1971 48.8723 17.7976C47.8613 18.3981 47.0546 19.2346 46.4523 20.307C45.8715 21.3794 45.5811 22.6019 45.5811 23.9746C45.5811 25.3472 45.8715 26.5697 46.4523 27.6421C47.0546 28.7145 47.8613 29.551 48.8723 30.1515C49.9049 30.752 51.0665 31.0523 52.3572 31.0523Z" fill="white"/>
<path d="M80.0038 24.3606H65.5159C65.5589 25.6689 65.8923 26.8378 66.5161 27.8673C67.14 28.8754 67.9789 29.6582 69.033 30.2158C70.1085 30.7735 71.3132 31.0523 72.6469 31.0523C73.744 31.0523 74.755 30.8593 75.68 30.4732C76.6265 30.0657 77.4117 29.4759 78.0355 28.7038L78.9712 29.7654C78.2398 30.6448 77.3149 31.3204 76.1963 31.7922C75.0992 32.2641 73.9053 32.5 72.6146 32.5C70.9367 32.5 69.4417 32.1354 68.1295 31.4062C66.8173 30.677 65.7847 29.6689 65.0318 28.3821C64.3005 27.0952 63.9348 25.626 63.9348 23.9746C63.9348 22.3445 64.2789 20.8861 64.9673 19.5992C65.6772 18.2909 66.6452 17.2721 67.8713 16.5429C69.0975 15.8137 70.4742 15.4491 72.0015 15.4491C73.5288 15.4491 74.8948 15.8137 76.0995 16.5429C77.3256 17.2507 78.2829 18.248 78.9712 19.5349C79.6811 20.8217 80.036 22.2802 80.036 23.9102L80.0038 24.3606ZM72.0015 16.8646C70.8184 16.8646 69.7536 17.1327 68.8071 17.6689C67.8606 18.1837 67.0969 18.9236 66.5161 19.8888C65.9568 20.8325 65.6342 21.9049 65.5481 23.1059H78.455C78.3904 21.9049 78.0677 20.8325 77.4869 19.8888C76.9061 18.9451 76.1425 18.2051 75.196 17.6689C74.2495 17.1327 73.1847 16.8646 72.0015 16.8646Z" fill="white"/>
<path d="M93.2552 15.4491C95.3633 15.4491 97.0305 16.0603 98.2566 17.2829C99.4828 18.5054 100.096 20.2641 100.096 22.559V32.3713H98.4825V22.6877C98.4825 20.8003 97.9985 19.3633 97.0305 18.3767C96.084 17.3901 94.7503 16.8968 93.0293 16.8968C91.0503 16.8968 89.4907 17.4866 88.3506 18.6662C87.2105 19.8459 86.6405 21.433 86.6405 23.4276V32.3713H85.0271V15.5778H86.5759V19.2132C87.1567 18.0335 88.0172 17.1113 89.1573 16.4464C90.3189 15.7815 91.6849 15.4491 93.2552 15.4491Z" fill="white"/>
<path d="M115.095 31.3097C114.687 31.6957 114.17 31.996 113.546 32.2105C112.944 32.4035 112.31 32.5 111.643 32.5C110.18 32.5 109.051 32.1032 108.255 31.3097C107.459 30.4947 107.061 29.3687 107.061 27.9317V16.9611H103.963V15.5778H107.061V11.9102H108.674V15.5778H114.03V16.9611H108.674V27.7708C108.674 28.8646 108.932 29.7011 109.449 30.2802C109.986 30.8378 110.771 31.1166 111.804 31.1166C112.858 31.1166 113.729 30.8057 114.418 30.1837L115.095 31.3097Z" fill="white"/>
<path d="M125.578 32.5C123.986 32.5 122.545 32.1354 121.254 31.4062C119.985 30.677 118.985 29.6689 118.254 28.3821C117.522 27.0737 117.157 25.6046 117.157 23.9746C117.157 22.3445 117.522 20.8861 118.254 19.5992C118.985 18.2909 119.985 17.2721 121.254 16.5429C122.545 15.8137 123.986 15.4491 125.578 15.4491C127.17 15.4491 128.601 15.8137 129.87 16.5429C131.16 17.2721 132.172 18.2909 132.903 19.5992C133.634 20.8861 134 22.3445 134 23.9746C134 25.6046 133.634 27.0737 132.903 28.3821C132.172 29.6689 131.16 30.677 129.87 31.4062C128.601 32.1354 127.17 32.5 125.578 32.5ZM125.578 31.0523C126.869 31.0523 128.02 30.752 129.031 30.1515C130.063 29.551 130.87 28.7145 131.451 27.6421C132.053 26.5697 132.354 25.3472 132.354 23.9746C132.354 22.6019 132.053 21.3794 131.451 20.307C130.87 19.2346 130.063 18.3981 129.031 17.7976C128.02 17.1971 126.869 16.8968 125.578 16.8968C124.288 16.8968 123.126 17.1971 122.093 17.7976C121.082 18.3981 120.276 19.2346 119.673 20.307C119.093 21.3794 118.802 22.6019 118.802 23.9746C118.802 25.3472 119.093 26.5697 119.673 27.6421C120.276 28.7145 121.082 29.551 122.093 30.1515C123.126 30.752 124.288 31.0523 125.578 31.0523Z" fill="white"/>
</svg>
